<?xml version="1.0" encoding="utf-8"?>
<svg version="1.1" xmlns:xlink="http://www.w3.org/1999/xlink" width="18px" height="18px" xmlns="http://www.w3.org/2000/svg">
  <g transform="matrix(1 0 0 1 -14 -115 )">
    <path d="M 17.60869565217391 4.218898846129292  L 10.173913043478258 4.218898846129292  C 10.173913043478258 4.218898846129292  10.173913043478258 0.35156319150837234  10.173913043478258 0.35156319150837234  C 10.173913043478258 0.15743000292420994  9.998726077701733 0  9.782608695652172 0  C 9.782608695652172 0  0.39130434782608603 0  0.39130434782608603 0  C 0.17518696577652726 0  0 0.15743000292420994  0 0.35156319150837234  C 0 0.35156319150837234  0 17.648436808491628  0 17.648436808491628  C 0 17.84256999707579  0.17518696577652726 18  0.39130434782608603 18  C 0.39130434782608603 18  9.782608695652172 18  9.782608695652172 18  C 9.782608695652172 18  17.60869565217391 18  17.60869565217391 18  C 17.82481303422347 18  18 17.84256999707579  18 17.648436808491628  C 18 17.648436808491628  18 4.570462037637665  18 4.570462037637665  C 18 4.376293695282456  17.824773906624834 4.218898846129292  17.60869565217391 4.218898846129292  Z M 10.173913043478258 13.781241701899539  L 10.173913043478258 4.922025229146037  L 17.217391304347828 4.922025229146037  L 17.217391304347828 13.781241701899539  L 10.173913043478258 13.781241701899539  Z M 6.260869565217391 17.296873616983255  L 3.913043478260871 17.296873616983255  L 3.913043478260871 14.484368084916284  L 6.260869565217391 14.484368084916284  L 6.260869565217391 17.296873616983255  Z M 7.043478260869563 14.132804893407908  C 7.0434391304329225 13.938671704823747  6.86825188761172 13.781241701899539  6.6521345055621595 13.781241701899539  C 6.6521345055621595 13.781241701899539  3.52170002149499 13.781241701899539  3.52170002149499 13.781241701899539  C 3.3055826394454293 13.781241701899539  3.130395673668904 13.938671704823747  3.130395673668904 14.132804893407908  C 3.130395673668904 14.132804893407908  3.130395673668904 17.296873616983255  3.130395673668904 17.296873616983255  L 1 17.296873616983255  L 1 0.7031263830167429  L 9.391304347826086 0.7031263830167429  L 9.391304347826086 17.296873616983255  L 7.043478260869563 17.296873616983255  C 7.043478260869563 17.296873616983255  7.043478260869563 14.132804893407908  7.043478260869563 14.132804893407908  Z M 17.217351896866507 17.296873616983255  L 10.17387363599694 17.296873616983255  L 10.17387363599694 14.484368084916284  L 17.217351896866507 14.484368084916284  L 17.217351896866507 17.296873616983255  Z M 6.500037386828545 2  C 6.500037386828545 2  7.499962613171455 2  7.499962613171455 2  C 7.776133250090414 2  8 2.2238500118255615  8 2.5  C 8 2.5  8 3.5  8 3.5  C 8 3.7761499881744385  7.776133250090414 4  7.499962613171455 4  C 7.499962613171455 4  6.500037386828545 4  6.500037386828545 4  C 6.223866749909586 4  6 3.7761499881744385  6 3.5  C 6 3.5  6 2.5  6 2.5  C 6 2.2238500118255615  6.223866749909586 2  6.500037386828545 2  Z M 6.500037386828545 5  C 6.500037386828545 5  7.499962613171455 5  7.499962613171455 5  C 7.776133250090414 5  8 5.223849969129567  8 5.499999904632588  C 8 5.499999904632588  8 6.500000095367412  8 6.500000095367412  C 8 6.776150030870433  7.776133250090414 7  7.499962613171455 7  C 7.499962613171455 7  6.500037386828545 7  6.500037386828545 7  C 6.223866749909586 7  6 6.776150030870433  6 6.500000095367412  C 6 6.500000095367412  6 5.499999904632588  6 5.499999904632588  C 6 5.223849969129567  6.223866749909586 5  6.500037386828545 5  Z M 6.500037386828545 8  C 6.500037386828545 8  7.499962613171455 8  7.499962613171455 8  C 7.776133250090414 8  8 8.223850011825562  8 8.5  C 8 8.5  8 9.5  8 9.5  C 8 9.776149988174438  7.776133250090414 10  7.499962613171455 10  C 7.499962613171455 10  6.500037386828545 10  6.500037386828545 10  C 6.223866749909586 10  6 9.776149988174438  6 9.5  C 6 9.5  6 8.5  6 8.5  C 6 8.223850011825562  6.223866749909586 8  6.500037386828545 8  Z M 6.500037386828545 11  C 6.500037386828545 11  7.499962613171455 11  7.499962613171455 11  C 7.776133250090414 11  8 11.223850011825562  8 11.5  C 8 11.5  8 12.5  8 12.5  C 8 12.776149988174438  7.776133250090414 13  7.499962613171455 13  C 7.499962613171455 13  6.500037386828545 13  6.500037386828545 13  C 6.223866749909586 13  6 12.776149988174438  6 12.5  C 6 12.5  6 11.5  6 11.5  C 6 11.2239000082016  6.223866749909586 11  6.500037386828545 11  Z M 3.5000374822102565 2  C 3.5000374822102565 2  4.4999625177897435 2  4.4999625177897435 2  C 4.776133207388021 2  5 2.2238500118255615  5 2.5  C 5 2.5  5 3.5  5 3.5  C 5 3.7761499881744385  4.776133207388021 4  4.4999625177897435 4  C 4.4999625177897435 4  3.5000374822102565 4  3.5000374822102565 4  C 3.223866792611979 4  3 3.7761499881744385  3 3.5  C 3 3.5  3 2.5  3 2.5  C 3 2.2238500118255615  3.223866792611979 2  3.5000374822102565 2  Z M 3 5.499999904632588  C 3 5.223849969129567  3.223866792611979 5  3.5000374822102565 5  C 3.5000374822102565 5  4.4999625177897435 5  4.4999625177897435 5  C 4.776133207388021 5  5 5.223849969129567  5 5.499999904632588  C 5 5.499999904632588  5 6.500000095367412  5 6.500000095367412  C 5 6.776150030870433  4.776133207388021 7  4.4999625177897435 7  C 4.4999625177897435 7  3.5000374822102565 7  3.5000374822102565 7  C 3.223866792611979 7  3 6.776150030870433  3 6.500000095367412  C 3 6.500000095367412  3 5.499999904632588  3 5.499999904632588  Z M 3 8.5  C 3 8.223850011825562  3.223866792611979 8  3.5000374822102565 8  C 3.5000374822102565 8  4.4999625177897435 8  4.4999625177897435 8  C 4.776133207388021 8  5 8.223850011825562  5 8.5  C 5 8.5  5 9.5  5 9.5  C 5 9.776149988174438  4.776133207388021 10  4.4999625177897435 10  C 4.4999625177897435 10  3.5000374822102565 10  3.5000374822102565 10  C 3.223866792611979 10  3 9.776149988174438  3 9.5  C 3 9.5  3 8.5  3 8.5  Z M 3 11.5  C 3 11.2239000082016  3.223866792611979 11  3.5000374822102565 11  C 3.5000374822102565 11  4.4999625177897435 11  4.4999625177897435 11  C 4.776133207388021 11  5 11.223850011825562  5 11.5  C 5 11.5  5 12.5  5 12.5  C 5 12.776149988174438  4.776133207388021 13  4.4999625177897435 13  C 4.4999625177897435 13  3.5000374822102565 13  3.5000374822102565 13  C 3.223866792611979 13  3 12.776149988174438  3 12.5  C 3 12.5  3 11.5  3 11.5  Z M 14 7.5  C 14 7.2238500118255615  14.223866749909586 7  14.500037386828545 7  C 14.500037386828545 7  15.499962613171455 7  15.499962613171455 7  C 15.776133250090414 7  16 7.2238500118255615  16 7.5  C 16 7.5  16 8.5  16 8.5  C 16 8.776149988174438  15.776133250090414 9  15.499962613171455 9  C 15.499962613171455 9  14.500037386828545 9  14.500037386828545 9  C 14.223866749909586 9  14 8.776149988174438  14 8.5  C 14 8.5  14 7.5  14 7.5  Z M 14 10.5  C 14 10.2239000082016  14.223866749909586 10  14.500037386828545 10  C 14.500037386828545 10  15.499962613171455 10  15.499962613171455 10  C 15.776133250090414 10  16 10.223850011825562  16 10.5  C 16 10.5  16 11.5  16 11.5  C 16 11.776149988174438  15.776133250090414 12  15.499962613171455 12  C 15.499962613171455 12  14.500037386828545 12  14.500037386828545 12  C 14.223866749909586 12  14 11.776149988174438  14 11.5  C 14 11.5  14 10.5  14 10.5  Z M 11 7.5  C 11 7.2238500118255615  11.223866920719264 7  11.500037768355611 7  C 11.500037768355611 7  12.499962231644389 7  12.499962231644389 7  C 12.776133079280736 7  13 7.2238500118255615  13 7.5  C 13 7.5  13 8.5  13 8.5  C 13 8.776149988174438  12.776133079280736 9  12.499962231644389 9  C 12.499962231644389 9  11.500037768355611 9  11.500037768355611 9  C 11.223866920719264 9  11 8.776149988174438  11 8.5  C 11 8.5  11 7.5  11 7.5  Z M 11 10.5  C 11 10.2239000082016  11.223866920719264 10  11.500037768355611 10  C 11.500037768355611 10  12.499962231644389 10  12.499962231644389 10  C 12.776133079280736 10  13 10.223850011825562  13 10.5  C 13 10.5  13 11.5  13 11.5  C 13 11.776149988174438  12.776133079280736 12  12.499962231644389 12  C 12.499962231644389 12  11.500037768355611 12  11.500037768355611 12  C 11.223866920719264 12  11 11.776149988174438  11 11.5  C 11 11.5  11 10.5  11 10.5  Z " fill-rule="nonzero" fill="#555555" stroke="none" transform="matrix(1 0 0 1 14 115 )" />
  </g>
</svg>