<?xml version="1.0" encoding="utf-8"?>
<svg version="1.1" xmlns:xlink="http://www.w3.org/1999/xlink" width="18px" height="18px" xmlns="http://www.w3.org/2000/svg">
  <g transform="matrix(1 0 0 1 -14 -221 )">
    <path d="M 0 9  C 0 4.037805000000002  4.037096250000001 0  9 0  C 13.962937500000002 0  18 4.037096250000001  18 9  C 18 13.962937500000002  13.962937500000002 18  9 18  C 4.037096250000001 18  0 13.962150000000001  0 9  Z M 1.3942575000000001 9  C 1.3942575000000001 13.194000000000003  4.806033750000001 16.6057875  9 16.6057875  C 13.193212500000001 16.6057875  16.605787499999998 13.194000000000003  16.605787499999998 9  C 16.605787499999998 4.806033750000001  13.193212500000001 1.394257500000002  9 1.394257500000002  C 4.806742499999999 1.394257500000002  1.3942575000000001 4.806033750000001  1.3942575000000001 9  Z M 5.281890000000001 8.94414  C 5.281890000000001 8.602070000000001  5.558889999999998 8.324449999999999  5.901579999999999 8.324449999999999  L 8.38027 8.324449999999999  L 8.38027 5.8457599999999985  C 8.38027 5.503700000000002  8.65727 5.22607  8.999960000000002 5.22607  C 9.34264 5.22607  9.61964 5.503700000000002  9.61964 5.8457599999999985  L 9.61964 8.324449999999999  L 12.098300000000002 8.324449999999999  C 12.441000000000003 8.324449999999999  12.718 8.602070000000001  12.718 8.94414  C 12.718 9.286200000000001  12.441000000000003 9.56382  12.098300000000002 9.56382  L 9.61964 9.56382  L 9.61964 12.0425  C 9.61964 12.384599999999999  9.34264 12.662199999999999  8.999960000000002 12.662199999999999  C 8.65727 12.662199999999999  8.38027 12.384599999999999  8.38027 12.0425  L 8.38027 9.56382  L 5.901579999999999 9.56382  C 5.558889999999998 9.56382  5.281890000000001 9.286200000000001  5.281890000000001 8.94414  Z " fill-rule="nonzero" fill="#333333" stroke="none" transform="matrix(1 0 0 1 14 221 )" />
  </g>
</svg>