<svg width="22" height="20" viewBox="0 0 22 20" fill="none" xmlns="http://www.w3.org/2000/svg">
<g clip-path="url(#clip0_5203_554565)">
<path d="M17.877 15.3243C17.6509 14.803 17.3945 14.2122 17.4082 13.266C17.4267 11.9877 17.141 11.4059 16.8648 10.8433C16.736 10.5812 16.6145 10.3336 16.5229 10.0113C16.389 9.53965 16.3843 9.13457 16.3794 8.7057C16.3736 8.20734 16.3677 7.69203 16.1692 7.03801C16.0266 6.56824 15.8394 6.25633 15.6585 5.9548C15.4031 5.52914 15.1618 5.12703 15.0577 4.25086C14.8697 2.66895 13.8709 1.6443 13.066 1.06332C12.1711 0.417383 11.0463 0 10.2003 0C9.79837 0 9.45689 0.0910937 9.18533 0.270703C9.07107 0.346406 8.92904 0.346406 8.8147 0.270703C8.54306 0.0910937 8.20162 0 7.7997 0C6.95373 0 5.82884 0.417383 4.934 1.06332C4.12916 1.6443 3.13025 2.66895 2.94228 4.25086C2.83818 5.12703 2.59693 5.52914 2.3415 5.9548C2.16056 6.25637 1.97341 6.56824 1.8308 7.03801C1.63224 7.69207 1.6263 8.20738 1.62056 8.7057C1.61564 9.13457 1.61095 9.53965 1.47705 10.0113C1.38552 10.3336 1.26392 10.5812 1.13525 10.8433C0.858959 11.4059 0.573256 11.9877 0.591811 13.266C0.605522 14.2122 0.349155 14.803 0.122944 15.3243C-0.133775 15.9159 -0.376236 16.4746 -0.0972124 17.2962C0.211108 18.2041 1.1163 18.7525 1.50505 18.9522V19.707C1.50505 19.8689 1.63622 20 1.79802 20C1.95982 20 2.09099 19.8689 2.09099 19.707V17.2787C2.09099 16.9935 2.16802 16.7211 2.30494 16.4848L3.689 17.6711C3.90197 17.8537 4.02408 18.1192 4.02408 18.3997V19.707C4.02408 19.8689 4.15525 20 4.31705 20C4.47884 20 4.61001 19.8689 4.61001 19.707V18.3997C4.61001 17.948 4.4133 17.5202 4.07033 17.2262L2.68689 16.0405C2.82306 15.9314 2.97841 15.8435 3.149 15.7833L5.01279 15.1255C6.27369 16.7775 7.57783 17.8836 8.8904 18.413C8.92556 18.4272 8.96279 18.4343 9.00001 18.4343C9.03724 18.4343 9.07443 18.4272 9.10962 18.4131C9.9083 18.0909 10.7165 17.5442 11.5118 16.7881C11.6291 16.6766 11.6337 16.4911 11.5223 16.3739C11.4108 16.2566 11.2253 16.252 11.1081 16.3634C10.4036 17.0332 9.69497 17.5241 9.00005 17.8239C7.61451 17.2257 6.414 15.9664 5.59462 14.9201L6.3831 14.6418C6.99986 14.4242 7.41423 13.8385 7.41423 13.1845V12.1865C7.90599 12.379 8.44087 12.4848 9.00005 12.4848C9.55923 12.4848 10.0941 12.379 10.5859 12.1865V13.1845C10.5859 13.8385 11.0002 14.4241 11.617 14.6418L12.4052 14.92C12.2415 15.1292 12.076 15.3309 11.9103 15.5214C11.8041 15.6435 11.817 15.8285 11.9391 15.9347C11.9946 15.9829 12.0631 16.0066 12.1313 16.0066C12.2131 16.0066 12.2945 15.9725 12.3524 15.9059C12.5655 15.6609 12.7783 15.3984 12.9868 15.1254L14.8511 15.7833C15.0277 15.8457 15.1881 15.9375 15.3277 16.052L13.9577 17.2263C13.6148 17.5202 13.4181 17.948 13.4181 18.3997V19.707C13.4181 19.8689 13.5492 20 13.711 20C13.8729 20 14.004 19.8689 14.004 19.707V18.3997C14.004 18.1192 14.1261 17.8536 14.3391 17.6711L15.7044 16.5009C15.8355 16.7334 15.9091 17 15.9091 17.2788V19.707C15.9091 19.8689 16.0403 20 16.2021 20C16.3639 20 16.4951 19.8689 16.4951 19.707V18.9522C16.8838 18.7525 17.789 18.2041 18.0974 17.2962C18.3763 16.4746 18.1338 15.9158 17.877 15.3243ZM17.5424 17.1078C17.3568 17.6544 16.857 18.051 16.495 18.2774V17.2787C16.495 16.3597 15.9127 15.5367 15.046 15.2308L11.8119 14.0893C11.429 13.9542 11.1717 13.5905 11.1717 13.1845V11.9051C12.4806 11.1509 13.3636 9.73723 13.3636 8.12121V7.08367C13.3852 7.09891 13.4066 7.11402 13.4277 7.12887C14.0574 7.57293 14.4734 7.86633 14.5531 8.87488C14.5652 9.02836 14.6935 9.14477 14.8448 9.14477C14.8525 9.14477 14.8603 9.14445 14.8682 9.14387C15.0295 9.13113 15.1499 8.99004 15.1372 8.82875C15.0359 7.54602 14.4188 7.11082 13.7654 6.65004C13.2999 6.32176 12.8185 5.98223 12.38 5.27855C11.6697 4.13891 10.8947 3.94359 10.2718 3.78668C9.9706 3.71078 9.71423 3.6459 9.49076 3.48965C9.36615 3.4025 9.29298 3.25898 9.29298 3.10691V2.49715C9.29298 2.33676 9.16939 2.19684 9.00904 2.19203C8.84314 2.18707 8.70705 2.32004 8.70705 2.48488V3.10688C8.70705 3.25895 8.63388 3.40246 8.50927 3.48961C8.2858 3.64586 8.02943 3.71074 7.72822 3.78664C7.1054 3.94359 6.33029 4.13891 5.62009 5.27852C5.18154 5.98223 4.70017 6.32172 4.23466 6.65C3.5813 7.11078 2.96416 7.54602 2.86291 8.82875C2.85017 8.99004 2.9706 9.13109 3.13189 9.14383C3.29341 9.15684 3.43427 9.03613 3.44701 8.87481C3.52665 7.86629 3.94263 7.57289 4.57236 7.12879C5.0374 6.80082 5.61615 6.3927 6.1174 5.58836C6.70263 4.64926 7.27037 4.50621 7.87142 4.35473C8.2547 4.25813 8.64861 4.15891 9.00005 3.84898C9.35146 4.15895 9.74537 4.25816 10.1287 4.35473C10.7297 4.50621 11.2975 4.64926 11.8827 5.58836C12.1677 6.04574 12.4778 6.37488 12.7778 6.63414V8.07293C12.7778 10.1527 11.117 11.8785 9.03736 11.8986C6.93728 11.919 5.22236 10.2166 5.22236 8.12109V8.01594C5.22236 7.85555 5.09876 7.71562 4.93841 7.71082C4.77251 7.70586 4.63642 7.83883 4.63642 8.00367V8.12109C4.63642 9.73711 5.51943 11.1508 6.82833 11.905V13.1844C6.82833 13.5905 6.57107 13.9541 6.18814 14.0892L2.95408 15.2307C2.0874 15.5366 1.50513 16.3595 1.50513 17.2786V18.2785C1.14361 18.053 0.64435 17.6573 0.457671 17.1077C0.251382 16.5002 0.414116 16.1252 0.660522 15.5573C0.897905 15.0104 1.1933 14.3296 1.17775 13.2574C1.16126 12.1196 1.40412 11.625 1.66126 11.1014C1.79576 10.8276 1.93486 10.5443 2.0408 10.1713C2.19607 9.62445 2.20138 9.16078 2.20658 8.71234C2.21208 8.23402 2.21728 7.78219 2.39158 7.20809C2.51318 6.8075 2.67388 6.53969 2.84404 6.25609C3.11998 5.79625 3.40533 5.3207 3.52423 4.31984C3.68708 2.94902 4.56732 2.05059 5.27705 1.53828C6.18841 0.88043 7.20076 0.585938 7.7997 0.585938C8.0847 0.585938 8.31744 0.644297 8.49146 0.759375C8.80037 0.963711 9.19962 0.96375 9.50861 0.759414C9.68263 0.644297 9.91537 0.585938 10.2003 0.585938C11.0315 0.585938 12.0663 1.0643 12.7231 1.5384C13.4328 2.0507 14.313 2.94914 14.4759 4.31996C14.5948 5.32082 14.8801 5.79637 15.1561 6.25621C15.3262 6.5398 15.4869 6.80762 15.6085 7.2082C15.7828 7.7823 15.788 8.23414 15.7935 8.71246C15.7987 9.16086 15.804 9.62457 15.9593 10.1714C16.0652 10.5445 16.2043 10.8277 16.3388 11.1016C16.5959 11.6252 16.8388 12.1197 16.8223 13.2575C16.8068 14.3297 17.1022 15.0105 17.3395 15.5575C17.586 16.1253 17.7487 16.5004 17.5424 17.1078Z" fill="#333333"/>
<path d="M9.50001 2.5L11.5 1L13 0.5H16L18.5 2L20 3.5L19.5 7L19.5 8H18.5L17.5 11L15.5 12.5L16.5 14.5L18.5 15L20 16L20.6055 20H7.3884L7.50003 18L8.00001 16L11.5 14L12.5 13L10 10.5L8.50001 6.5L9.50001 2.5Z" fill="white"/>
<path d="M20.9477 17.6979V19.6667C20.9477 19.8508 20.7941 20 20.6046 20C20.4151 20 20.2615 19.8508 20.2615 19.6667V17.6979C20.2615 16.165 18.9846 14.9245 17.4064 14.9245C16.6597 14.9245 15.9822 14.555 15.5941 13.936C15.4955 13.7788 15.5468 13.5737 15.7086 13.4779C15.8704 13.3822 16.0815 13.432 16.1801 13.5892C16.4427 14.0079 16.9011 14.2579 17.4064 14.2579C19.3636 14.2578 20.9477 15.7965 20.9477 17.6979ZM14.9605 14.357C15.0008 14.5368 14.8834 14.7144 14.6983 14.7536C13.7954 14.9447 12.877 14.7534 12.1459 14.2686C11.422 15.0221 10.4657 14.9245 10.5938 14.9245C9.01575 14.9245 7.73867 16.1649 7.73867 17.6979V19.6667C7.73867 19.8508 7.58506 20 7.39558 20C7.20611 20 7.05249 19.8508 7.05249 19.6667V17.6979C7.05249 15.7967 8.63625 14.2579 10.5937 14.2579C11.3854 14.2579 12.0273 13.6382 12.0273 12.8688V12.7811C10.5298 12.0855 9.47862 10.6237 9.41455 8.92145C8.79827 8.77751 8.33909 8.24166 8.33909 7.60412V5.87631C8.32034 5.03059 8.4496 2.91241 10.0395 1.42368C12.0026 -0.414658 15.1508 -0.297882 17.4657 0.784684C17.6914 0.890296 17.7256 1.18642 17.5382 1.33978C18.711 1.61766 19.7222 2.31798 20.3719 3.32027C20.4055 3.37189 20.4669 3.45292 20.4508 3.58219C20.4409 3.66264 20.4162 3.73071 20.3524 3.79362C19.9343 4.20557 19.704 4.75146 19.704 5.33075V7.60421C19.704 7.78826 19.5504 7.93749 19.3609 7.93749C19.1715 7.93749 19.0178 7.78826 19.0178 7.60421V5.33075C19.0178 4.66263 19.2528 4.02847 19.6844 3.51903C19.0266 2.60515 18.0003 2.0174 16.8396 1.89666L16.2366 1.83392C15.884 1.79726 15.8148 1.32536 16.1425 1.19434L16.4168 1.08465C12.8449 -0.124988 9.02523 1.21904 9.02523 5.87268V7.60412C9.02523 7.86859 9.18202 8.09843 9.41121 8.21387V6.0532C9.41121 4.76679 10.4886 3.72017 11.8129 3.72017H16.1873C17.5115 3.72017 18.5889 4.7667 18.5889 6.05308V8.78201C18.5889 11.6805 15.6732 13.8822 12.7062 13.0337C12.6869 13.2715 12.6259 13.5009 12.5267 13.7142C13.1038 14.0993 13.8327 14.2546 14.5522 14.1023C14.7373 14.0631 14.9201 14.1771 14.9605 14.357ZM14.0001 12.5478C16.152 12.5478 17.9027 10.8472 17.9027 8.75668V6.05308C17.9027 5.13428 17.1332 4.38675 16.1873 4.38675H11.8129C10.8669 4.38675 10.0974 5.13432 10.0974 6.0532V8.75668C10.0974 10.8472 11.8481 12.5478 14.0001 12.5478Z" fill="white"/>
<g clip-path="url(#clip1_5203_554565)">
<path d="M21.9477 17.6979V19.6667C21.9477 19.8508 21.7941 20 21.6046 20C21.4151 20 21.2615 19.8508 21.2615 19.6667V17.6979C21.2615 16.165 19.9846 14.9245 18.4064 14.9245C17.6597 14.9245 16.9822 14.555 16.5941 13.936C16.4955 13.7788 16.5468 13.5737 16.7086 13.4779C16.8704 13.3822 17.0815 13.432 17.1801 13.5892C17.4427 14.0079 17.9011 14.2579 18.4064 14.2579C20.3636 14.2578 21.9477 15.7965 21.9477 17.6979ZM15.9605 14.357C16.0008 14.5368 15.8834 14.7144 15.6983 14.7536C14.7954 14.9447 13.877 14.7534 13.1459 14.2686C12.422 15.0221 11.4657 14.9245 11.5938 14.9245C10.0157 14.9245 8.73867 16.1649 8.73867 17.6979V19.6667C8.73867 19.8508 8.58506 20 8.39558 20C8.20611 20 8.05249 19.8508 8.05249 19.6667V17.6979C8.05249 15.7967 9.63625 14.2579 11.5937 14.2579C12.3854 14.2579 13.0273 13.6382 13.0273 12.8688V12.7811C11.5298 12.0855 10.4786 10.6237 10.4146 8.92145C9.79827 8.77751 9.33909 8.24166 9.33909 7.60412V5.87631C9.32034 5.03059 9.4496 2.91241 11.0395 1.42368C13.0026 -0.414658 16.1508 -0.297882 18.4657 0.784684C18.6914 0.890296 18.7256 1.18642 18.5382 1.33978C19.711 1.61766 20.7222 2.31798 21.3719 3.32027C21.4055 3.37189 21.4669 3.45292 21.4508 3.58219C21.4409 3.66264 21.4162 3.73071 21.3524 3.79362C20.9343 4.20557 20.704 4.75146 20.704 5.33075V7.60421C20.704 7.78826 20.5504 7.93749 20.3609 7.93749C20.1715 7.93749 20.0178 7.78826 20.0178 7.60421V5.33075C20.0178 4.66263 20.2528 4.02847 20.6844 3.51903C20.0266 2.60515 19.0003 2.0174 17.8396 1.89666L17.2366 1.83392C16.884 1.79726 16.8148 1.32536 17.1425 1.19434L17.4168 1.08465C13.8449 -0.124988 10.0252 1.21904 10.0252 5.87268V7.60412C10.0252 7.86859 10.182 8.09843 10.4112 8.21387V6.0532C10.4112 4.76679 11.4886 3.72017 12.8129 3.72017H17.1873C18.5115 3.72017 19.5889 4.7667 19.5889 6.05308V8.78201C19.5889 11.6805 16.6732 13.8822 13.7062 13.0337C13.6869 13.2715 13.6259 13.5009 13.5267 13.7142C14.1038 14.0993 14.8327 14.2546 15.5522 14.1023C15.7373 14.0631 15.9201 14.1771 15.9605 14.357ZM15.0001 12.5478C17.152 12.5478 18.9027 10.8472 18.9027 8.75668V6.05308C18.9027 5.13428 18.1332 4.38675 17.1873 4.38675H12.8129C11.8669 4.38675 11.0974 5.13432 11.0974 6.0532V8.75668C11.0974 10.8472 12.8481 12.5478 15.0001 12.5478Z" fill="#333333"/>
<circle cx="18.5" cy="16.5" r="8.5" fill="white"/>
<path d="M20.465 17.4455C21.0326 16.6704 21.3721 15.7183 21.3721 14.6861C21.3721 12.1023 19.2699 10 16.6861 10C14.1022 10 12 12.1023 12 14.6861C12 17.2699 14.1023 19.3722 16.6861 19.3722C17.7183 19.3722 18.6705 19.0326 19.4456 18.465L20.9806 20L22 18.9805L20.465 17.4455ZM16.6861 17.9303C14.8971 17.9303 13.4419 16.4751 13.4419 14.6861C13.4419 12.8971 14.8971 11.4419 16.6861 11.4419C18.475 11.4419 19.9303 12.8971 19.9303 14.6861C19.9303 16.4751 18.475 17.9303 16.6861 17.9303Z" fill="#333333"/>
</g>
</g>
<defs>
<clipPath id="clip0_5203_554565">
<rect width="22" height="20" fill="white"/>
</clipPath>
<clipPath id="clip1_5203_554565">
<rect width="14" height="20" fill="white" transform="translate(8)"/>
</clipPath>
</defs>
</svg>
