<svg width="22" height="22" viewBox="0 0 22 22" fill="none" xmlns="http://www.w3.org/2000/svg">
<path d="M16.8429 11.7292V11.1292C16.5115 11.1292 16.2429 11.3978 16.2429 11.7292H16.8429ZM18.5772 10.7368L18.9992 10.3103L18.5772 10.7368ZM10 2.25L10.422 1.8235C10.1882 1.59217 9.81178 1.59217 9.57799 1.8235L10 2.25ZM3.15709 11.7292H3.75709C3.75709 11.3978 3.48846 11.1292 3.15709 11.1292V11.7292ZM1.42282 10.7368L1.0008 10.3103H1.0008L1.42282 10.7368ZM17.4429 19.0208V11.7292H16.2429V19.0208H17.4429ZM18.9992 10.3103L10.422 1.8235L9.57799 2.6765L18.1552 11.1633L18.9992 10.3103ZM16.8429 12.3292H18.2115V11.1292H16.8429V12.3292ZM18.1552 11.1633C18.1558 11.164 18.1544 11.1626 18.1527 11.1594C18.1511 11.1564 18.1504 11.1538 18.1501 11.1524C18.1498 11.1508 18.1504 11.1538 18.1487 11.1583C18.147 11.1631 18.1474 11.1574 18.1597 11.148C18.1662 11.1429 18.1752 11.1377 18.1861 11.134C18.1972 11.1301 18.2064 11.1292 18.2115 11.1292V12.3292C18.7503 12.3292 19.1287 11.9696 19.2747 11.5733C19.4202 11.1786 19.3668 10.6741 18.9992 10.3103L18.1552 11.1633ZM16.1586 20.35C16.9032 20.35 17.4429 19.7184 17.4429 19.0208H16.2429C16.2429 19.0688 16.225 19.1045 16.205 19.1258C16.1855 19.1466 16.1691 19.15 16.1586 19.15V20.35ZM3.75709 19.0208V11.7292H2.55709V19.0208H3.75709ZM1.84483 11.1633L10.422 2.6765L9.57799 1.8235L1.0008 10.3103L1.84483 11.1633ZM3.15709 11.1292H1.78851V12.3292H3.15709V11.1292ZM1.0008 10.3103C0.63317 10.6741 0.579835 11.1786 0.725282 11.5733C0.871342 11.9696 1.2497 12.3292 1.78851 12.3292V11.1292C1.79359 11.1292 1.80278 11.1301 1.81391 11.134C1.82477 11.1377 1.83375 11.1429 1.84033 11.148C1.85259 11.1574 1.85301 11.1631 1.85126 11.1583C1.84957 11.1538 1.8502 11.1508 1.84989 11.1524C1.84963 11.1538 1.8489 11.1564 1.84733 11.1594C1.84564 11.1626 1.84421 11.164 1.84483 11.1633L1.0008 10.3103ZM3.84138 19.15C3.8309 19.15 3.81447 19.1466 3.79503 19.1258C3.77498 19.1045 3.75709 19.0688 3.75709 19.0208H2.55709C2.55709 19.7184 3.09676 20.35 3.84138 20.35V19.15ZM8.63142 20.35H16.1586V19.15H8.63142V20.35ZM11.3686 19.15H3.84138V20.35H11.3686V19.15Z" fill="#0084CC"/>
<g clip-path="url(#clip0_5203_512011)">
<rect x="13" y="1.09998" width="7" height="20.9" fill="white"/>
<path d="M9.62653 3.70274L13 1.09998L16.5 3.29997L17.2348 5.90274L16.6265 9.20274L14.6265 11.4027L14.8734 18.5527L13 20.35L11 18.5527V14.85V13.75V11L11.1265 10.2799L9.5 8.79998L8.62653 5.90274L9.62653 3.70274Z" fill="white"/>
<path d="M12.8028 20.7224C12.9654 20.9001 13.2285 20.8992 13.3901 20.7214L15.0535 18.8917C15.1315 18.8059 15.1752 18.6896 15.1752 18.5683L15.1753 10.557C16.6998 9.70026 17.6704 7.97452 17.6704 6.07953C17.6704 3.30496 15.6183 1.04769 13.096 1.04769C10.5737 1.04768 8.52159 3.30488 8.52159 6.07953C8.52159 7.97454 9.49219 9.70024 11.0167 10.557V11.1107L10.2548 12.3678C10.1617 12.5214 10.1617 12.7216 10.2548 12.8753L10.9328 13.9938L10.2548 15.1124C10.1616 15.2662 10.1617 15.4666 10.255 15.6203L10.9027 16.6865L10.3123 17.3359C10.1499 17.5146 10.1499 17.8042 10.3123 17.9829L12.8019 20.7215C12.8022 20.7218 12.8025 20.7221 12.8028 20.7224ZM11.1945 17.6594L11.7321 17.068C11.8724 16.9137 11.894 16.6718 11.7838 16.4904L11.1008 15.3659L11.7786 14.2476C11.8717 14.0939 11.8717 13.8937 11.7786 13.7401L11.1006 12.6215L11.7785 11.5029C11.8241 11.4278 11.8484 11.3395 11.8484 11.2492V10.2677C11.8484 10.086 11.7506 9.9215 11.5993 9.84864C10.2349 9.19177 9.3533 7.7123 9.35326 6.07946C9.35328 3.8097 11.0319 1.96251 13.096 1.96249C15.1597 1.96251 16.8387 3.80938 16.8387 6.07946C16.8387 7.71491 15.955 9.19277 14.5927 9.84864C14.4413 9.92154 14.3435 10.086 14.3436 10.2677L14.3436 18.3788L13.5118 19.2937L13.5119 11.2492C13.5119 10.9966 13.3257 10.7918 13.096 10.7918C12.9812 10.7918 12.8772 10.843 12.8019 10.9257C12.7267 11.0085 12.6801 11.1229 12.6802 11.2492L12.6801 19.2937L11.1945 17.6594Z" fill="white"/>
<path d="M13.0958 5.62219C13.7837 5.62219 14.3434 5.00659 14.3434 4.24987C14.3434 3.49317 13.7837 2.87755 13.0958 2.87755C12.4079 2.87753 11.8482 3.49315 11.8483 4.24987C11.8483 5.00656 12.4079 5.62221 13.0958 5.62219ZM12.68 4.24989C12.68 3.997 12.8659 3.79246 13.0958 3.79246C13.3257 3.79248 13.5116 3.99705 13.5117 4.24989C13.5116 4.50217 13.3251 4.70732 13.0958 4.70732C12.8665 4.70732 12.68 4.50211 12.68 4.24989Z" fill="white"/>
</g>
<g clip-path="url(#clip1_5203_512011)">
<path d="M14.7778 19.778C14.9403 19.9395 15.2034 19.9386 15.365 19.777L17.0284 18.1137C17.1064 18.0357 17.1502 17.93 17.1502 17.8196L17.1502 10.5367C18.6747 9.75783 19.6453 8.18897 19.6453 6.46625C19.6453 3.94392 17.5932 1.89185 15.0709 1.89185C12.5486 1.89185 10.4965 3.94384 10.4965 6.46625C10.4965 8.18899 11.4671 9.75781 12.9916 10.5367L12.9916 11.04L12.2297 12.1828C12.1366 12.3225 12.1366 12.5045 12.2297 12.6442L12.9077 13.6611L12.2297 14.678C12.1365 14.8178 12.1366 15 12.23 15.1397L12.8776 16.109L12.2872 16.6994C12.1248 16.8618 12.1248 17.1251 12.2872 17.2875L14.7769 19.7771C14.7771 19.7774 14.7775 19.7777 14.7778 19.778ZM13.1694 16.9934L13.707 16.4557C13.8473 16.3155 13.869 16.0956 13.7588 15.9307L13.0757 14.9084L13.7535 13.8917C13.8466 13.7521 13.8466 13.5701 13.7535 13.4304L13.0756 12.4135L13.7535 11.3966C13.799 11.3283 13.8233 11.248 13.8233 11.1659V10.2737C13.8233 10.1085 13.7255 9.95895 13.5742 9.89272C12.2098 9.29557 11.3282 7.95059 11.3282 6.46619C11.3282 4.40277 13.0068 2.72351 15.0709 2.72349C17.1346 2.72351 18.8136 4.40248 18.8136 6.46619C18.8136 7.95296 17.9299 9.29647 16.5676 9.89272C16.4162 9.95899 16.3184 10.1085 16.3185 10.2737L16.3185 17.6474L15.4868 18.4791L15.4868 11.166C15.4868 10.9363 15.3006 10.7501 15.0709 10.7501C14.9561 10.7501 14.8521 10.7966 14.7769 10.8719C14.7016 10.9471 14.655 11.0511 14.6551 11.166L14.6551 18.4791L13.1694 16.9934Z" fill="#0084CC"/>
<path d="M14.7635 7.0111C15.4514 7.0111 16.0111 6.45147 16.011 5.76354C16.011 5.07564 15.4514 4.51598 14.7635 4.51598C14.0756 4.51596 13.5159 5.07562 13.5159 5.76354C13.5159 6.45145 14.0756 7.01112 14.7635 7.0111ZM14.3476 5.76356C14.3477 5.53367 14.5336 5.34771 14.7635 5.34771C14.9934 5.34773 15.1793 5.5337 15.1793 5.76356C15.1793 5.99291 14.9928 6.17941 14.7635 6.17941C14.5342 6.17941 14.3476 5.99285 14.3476 5.76356Z" fill="#0084CC"/>
</g>
<path d="M16.8429 11.7292V11.1292C16.5115 11.1292 16.2429 11.3978 16.2429 11.7292H16.8429ZM18.5772 10.7368L18.9992 10.3103L18.5772 10.7368ZM10 2.25L10.422 1.8235C10.1882 1.59217 9.81178 1.59217 9.57799 1.8235L10 2.25ZM3.15709 11.7292H3.75709C3.75709 11.3978 3.48846 11.1292 3.15709 11.1292V11.7292ZM1.42282 10.7368L1.0008 10.3103H1.0008L1.42282 10.7368ZM17.4429 19.0208V11.7292H16.2429V19.0208H17.4429ZM18.9992 10.3103L10.422 1.8235L9.57799 2.6765L18.1552 11.1633L18.9992 10.3103ZM16.8429 12.3292H18.2115V11.1292H16.8429V12.3292ZM18.1552 11.1633C18.1558 11.164 18.1544 11.1626 18.1527 11.1594C18.1511 11.1564 18.1504 11.1538 18.1501 11.1524C18.1498 11.1508 18.1504 11.1538 18.1487 11.1583C18.147 11.1631 18.1474 11.1574 18.1597 11.148C18.1662 11.1429 18.1752 11.1377 18.1861 11.134C18.1972 11.1301 18.2064 11.1292 18.2115 11.1292V12.3292C18.7503 12.3292 19.1287 11.9696 19.2747 11.5733C19.4202 11.1786 19.3668 10.6741 18.9992 10.3103L18.1552 11.1633ZM16.1586 20.35C16.9032 20.35 17.4429 19.7184 17.4429 19.0208H16.2429C16.2429 19.0688 16.225 19.1045 16.205 19.1258C16.1855 19.1466 16.1691 19.15 16.1586 19.15V20.35ZM3.75709 19.0208V11.7292H2.55709V19.0208H3.75709ZM1.84483 11.1633L10.422 2.6765L9.57799 1.8235L1.0008 10.3103L1.84483 11.1633ZM3.15709 11.1292H1.78851V12.3292H3.15709V11.1292ZM1.0008 10.3103C0.63317 10.6741 0.579835 11.1786 0.725282 11.5733C0.871342 11.9696 1.2497 12.3292 1.78851 12.3292V11.1292C1.79359 11.1292 1.80278 11.1301 1.81391 11.134C1.82477 11.1377 1.83375 11.1429 1.84033 11.148C1.85259 11.1574 1.85301 11.1631 1.85126 11.1583C1.84957 11.1538 1.8502 11.1508 1.84989 11.1524C1.84963 11.1538 1.8489 11.1564 1.84733 11.1594C1.84564 11.1626 1.84421 11.164 1.84483 11.1633L1.0008 10.3103ZM3.84138 19.15C3.8309 19.15 3.81447 19.1466 3.79503 19.1258C3.77498 19.1045 3.75709 19.0688 3.75709 19.0208H2.55709C2.55709 19.7184 3.09676 20.35 3.84138 20.35V19.15ZM8.63142 20.35H16.1586V19.15H8.63142V20.35ZM11.3686 19.15H3.84138V20.35H11.3686V19.15Z" fill="#333333"/>
<g clip-path="url(#clip2_5203_512011)">
<rect x="13" y="1.09998" width="7" height="20.9" fill="white"/>
<path d="M9.62653 3.70274L13 1.09998L16.5 3.29997L17.2348 5.90274L16.6265 9.20274L14.6265 11.4027L14.8734 18.5527L13 20.35L11 18.5527V14.85V13.75V11L11.1265 10.2799L9.5 8.79998L8.62653 5.90274L9.62653 3.70274Z" fill="white"/>
<path d="M12.8028 20.7224C12.9654 20.9001 13.2285 20.8992 13.3901 20.7214L15.0535 18.8917C15.1315 18.8059 15.1752 18.6896 15.1752 18.5683L15.1753 10.557C16.6998 9.70026 17.6704 7.97452 17.6704 6.07953C17.6704 3.30496 15.6183 1.04769 13.096 1.04769C10.5737 1.04768 8.52159 3.30488 8.52159 6.07953C8.52159 7.97454 9.49219 9.70024 11.0167 10.557V11.1107L10.2548 12.3678C10.1617 12.5214 10.1617 12.7216 10.2548 12.8753L10.9328 13.9938L10.2548 15.1124C10.1616 15.2662 10.1617 15.4666 10.255 15.6203L10.9027 16.6865L10.3123 17.3359C10.1499 17.5146 10.1499 17.8042 10.3123 17.9829L12.8019 20.7215C12.8022 20.7218 12.8025 20.7221 12.8028 20.7224ZM11.1945 17.6594L11.7321 17.068C11.8724 16.9137 11.894 16.6718 11.7838 16.4904L11.1008 15.3659L11.7786 14.2476C11.8717 14.0939 11.8717 13.8937 11.7786 13.7401L11.1006 12.6215L11.7785 11.5029C11.8241 11.4278 11.8484 11.3395 11.8484 11.2492V10.2677C11.8484 10.086 11.7506 9.9215 11.5993 9.84864C10.2349 9.19177 9.3533 7.7123 9.35326 6.07946C9.35328 3.8097 11.0319 1.96251 13.096 1.96249C15.1597 1.96251 16.8387 3.80938 16.8387 6.07946C16.8387 7.71491 15.955 9.19277 14.5927 9.84864C14.4413 9.92154 14.3435 10.086 14.3436 10.2677L14.3436 18.3788L13.5118 19.2937L13.5119 11.2492C13.5119 10.9966 13.3257 10.7918 13.096 10.7918C12.9812 10.7918 12.8772 10.843 12.8019 10.9257C12.7267 11.0085 12.6801 11.1229 12.6802 11.2492L12.6801 19.2937L11.1945 17.6594Z" fill="white"/>
<path d="M13.0958 5.62219C13.7837 5.62219 14.3434 5.00659 14.3434 4.24987C14.3434 3.49317 13.7837 2.87755 13.0958 2.87755C12.4079 2.87753 11.8482 3.49315 11.8483 4.24987C11.8483 5.00656 12.4079 5.62221 13.0958 5.62219ZM12.68 4.24989C12.68 3.997 12.8659 3.79246 13.0958 3.79246C13.3257 3.79248 13.5116 3.99705 13.5117 4.24989C13.5116 4.50217 13.3251 4.70732 13.0958 4.70732C12.8665 4.70732 12.68 4.50211 12.68 4.24989Z" fill="white"/>
</g>
<g clip-path="url(#clip3_5203_512011)">
<path d="M14.7778 19.778C14.9403 19.9395 15.2034 19.9386 15.365 19.777L17.0284 18.1137C17.1064 18.0357 17.1502 17.93 17.1502 17.8196L17.1502 10.5367C18.6747 9.75783 19.6453 8.18897 19.6453 6.46625C19.6453 3.94392 17.5932 1.89185 15.0709 1.89185C12.5486 1.89185 10.4965 3.94384 10.4965 6.46625C10.4965 8.18899 11.4671 9.75781 12.9916 10.5367L12.9916 11.04L12.2297 12.1828C12.1366 12.3225 12.1366 12.5045 12.2297 12.6442L12.9077 13.6611L12.2297 14.678C12.1365 14.8178 12.1366 15 12.23 15.1397L12.8776 16.109L12.2872 16.6994C12.1248 16.8618 12.1248 17.1251 12.2872 17.2875L14.7769 19.7771C14.7771 19.7774 14.7775 19.7777 14.7778 19.778ZM13.1694 16.9934L13.707 16.4557C13.8473 16.3155 13.869 16.0956 13.7588 15.9307L13.0757 14.9084L13.7535 13.8917C13.8466 13.7521 13.8466 13.5701 13.7535 13.4304L13.0756 12.4135L13.7535 11.3966C13.799 11.3283 13.8233 11.248 13.8233 11.1659V10.2737C13.8233 10.1085 13.7255 9.95895 13.5742 9.89272C12.2098 9.29557 11.3282 7.95059 11.3282 6.46619C11.3282 4.40277 13.0068 2.72351 15.0709 2.72349C17.1346 2.72351 18.8136 4.40248 18.8136 6.46619C18.8136 7.95296 17.9299 9.29647 16.5676 9.89272C16.4162 9.95899 16.3184 10.1085 16.3185 10.2737L16.3185 17.6474L15.4868 18.4791L15.4868 11.166C15.4868 10.9363 15.3006 10.7501 15.0709 10.7501C14.9561 10.7501 14.8521 10.7966 14.7769 10.8719C14.7016 10.9471 14.655 11.0511 14.6551 11.166L14.6551 18.4791L13.1694 16.9934Z" fill="#333333"/>
<path d="M14.7635 7.0111C15.4514 7.0111 16.0111 6.45147 16.011 5.76354C16.011 5.07564 15.4514 4.51598 14.7635 4.51598C14.0756 4.51596 13.5159 5.07562 13.5159 5.76354C13.5159 6.45145 14.0756 7.01112 14.7635 7.0111ZM14.3476 5.76356C14.3477 5.53367 14.5336 5.34771 14.7635 5.34771C14.9934 5.34773 15.1793 5.5337 15.1793 5.76356C15.1793 5.99291 14.9928 6.17941 14.7635 6.17941C14.5342 6.17941 14.3476 5.99285 14.3476 5.76356Z" fill="#333333"/>
</g>
<defs>
<clipPath id="clip0_5203_512011">
<rect width="12" height="22" fill="white" transform="translate(8)"/>
</clipPath>
<clipPath id="clip1_5203_512011">
<rect width="14" height="19" fill="white" transform="translate(8 1)"/>
</clipPath>
<clipPath id="clip2_5203_512011">
<rect width="12" height="22" fill="white" transform="translate(8)"/>
</clipPath>
<clipPath id="clip3_5203_512011">
<rect width="14" height="19" fill="white" transform="translate(8 1)"/>
</clipPath>
</defs>
</svg>
