<svg xmlns="http://www.w3.org/2000/svg" width="49" height="53px" viewBox="0 0 49 45" fill="none" class="injected-svg" data-src="/static/media/rommates-safe.d2f00a3b.svg" xmlns:xlink="http://www.w3.org/1999/xlink">
<g clip-path="url(#clip0-170)">
<g clip-path="url(#clip1-171)">
<path d="M36.3972 8.20996C36.1742 8.20996 35.9934 8.39309 35.9934 8.61911V23.9372C35.9934 24.184 35.7952 24.3849 35.5515 24.3849H13.4486C13.2049 24.3849 13.0067 24.184 13.0067 23.9372V21.6572C13.0067 21.4312 12.8259 21.2481 12.603 21.2481C12.38 21.2481 12.1992 21.4312 12.1992 21.6572V23.9372C12.1992 24.6353 12.7597 25.2032 13.4486 25.2032H14.6133V26.9761C14.6133 27.5025 15.0359 27.9308 15.5553 27.9308H20.6156C21.1351 27.9308 21.5577 27.5025 21.5577 26.9761V25.2032H27.264V26.9761C27.264 27.5025 27.6867 27.9308 28.2061 27.9308H33.2664C33.7858 27.9308 34.2085 27.5025 34.2085 26.9761V25.2032H35.5516C36.2405 25.2032 36.801 24.6353 36.801 23.9372V8.61911C36.8009 8.39309 36.6201 8.20996 36.3972 8.20996ZM20.7502 26.9761C20.7502 27.0514 20.6898 27.1125 20.6156 27.1125H15.5553C15.4811 27.1125 15.4207 27.0514 15.4207 26.9761V25.2032H20.7502V26.9761ZM33.401 26.9761C33.401 27.0514 33.3406 27.1125 33.2664 27.1125H28.2061C28.1319 27.1125 28.0715 27.0514 28.0715 26.9761V25.2032H33.401V26.9761Z" fill="#0084CC"></path>
<path d="M35.5515 0H13.4486C12.7597 0 12.1992 0.567895 12.1992 1.26601V19.639C12.1992 19.865 12.38 20.0482 12.603 20.0482C12.8259 20.0482 13.0067 19.865 13.0067 19.639V1.26601C13.0067 1.01916 13.2049 0.818292 13.4486 0.818292H35.5516C35.7952 0.818292 35.9935 1.01916 35.9935 1.26601L36 9C36 9.22601 36.1808 9.40915 36.4037 9.40915C36.6267 9.40915 36.8075 9.22601 36.8075 9L36.801 1.26601C36.8009 0.567895 36.2404 0 35.5515 0Z" fill="#0084CC"></path>
<path d="M13.998 15.5014V18.131C13.998 18.805 14.483 19.3659 15.1178 19.4752V20.8301C15.1178 21.5418 15.6893 22.1209 16.3916 22.1209H32.4306C33.133 22.1209 33.7044 21.5418 33.7044 20.8301V4.37286C33.7044 3.66111 33.133 3.08203 32.4306 3.08203H24.923C24.7 3.08203 24.5193 3.26517 24.5193 3.49118C24.5193 3.71719 24.7 3.90032 24.923 3.90032H32.4306C32.6877 3.90032 32.8969 4.11232 32.8969 4.37286V20.8301C32.8969 21.0907 32.6877 21.3027 32.4306 21.3027H16.3916C16.1345 21.3027 15.9253 21.0907 15.9253 20.8301V19.4753C16.5601 19.3659 17.0451 18.805 17.0451 18.1311V15.5015C17.0451 14.8275 16.5601 14.2666 15.9253 14.1573V11.0458C16.5601 10.9365 17.0451 10.3755 17.0451 9.70163V7.07202C17.0451 6.39808 16.5601 5.83711 15.9253 5.72784V4.37286C15.9253 4.11232 16.1345 3.90032 16.3916 3.90032H24.923C25.146 3.90032 25.3268 3.71719 25.3268 3.49118C25.3268 3.26517 25.146 3.08203 24.923 3.08203H16.3916C15.6893 3.08203 15.1178 3.66111 15.1178 4.37286V5.72773C14.483 5.83706 13.998 6.39802 13.998 7.07191V9.70152C13.998 10.3755 14.483 10.9364 15.1178 11.0457V14.1572C14.483 14.2666 13.998 14.8275 13.998 15.5014ZM16.2376 15.5014V18.131C16.2376 18.4318 15.9961 18.6765 15.6993 18.6765H15.3439C15.047 18.6765 14.8055 18.4318 14.8055 18.131V15.5014C14.8055 15.2006 15.047 14.9559 15.3439 14.9559H15.6993C15.9961 14.9559 16.2376 15.2007 16.2376 15.5014ZM14.8055 9.70158V7.07197C14.8055 6.77117 15.047 6.52644 15.3439 6.52644H15.6993C15.9961 6.52644 16.2376 6.77117 16.2376 7.07197V9.70158C16.2376 10.0024 15.9961 10.2471 15.6993 10.2471H15.3439C15.047 10.2471 14.8055 10.0023 14.8055 9.70158Z" fill="#0084CC"></path>
<path d="M28.9089 17.0498C29.0781 17.1969 29.333 17.1774 29.4782 17.0059C30.5156 15.7815 31.0869 14.2173 31.0869 12.6015C31.0869 8.87147 28.0924 5.83691 24.4116 5.83691C20.7308 5.83691 17.7363 8.87147 17.7363 12.6015C17.7363 16.3315 20.7308 19.366 24.4116 19.366C25.6707 19.366 26.8971 19.0089 27.9583 18.3332C28.1471 18.2129 28.204 17.9603 28.0853 17.769C27.9667 17.5778 27.7175 17.5202 27.5286 17.6403C26.5964 18.2339 25.5185 18.5477 24.4116 18.5477C21.1761 18.5477 18.5438 15.8802 18.5438 12.6015C18.5438 9.32267 21.1761 6.65521 24.4116 6.65521C27.6471 6.65521 30.2794 9.32267 30.2794 12.6015C30.2794 14.0219 29.7773 15.3967 28.8655 16.4729C28.7203 16.6443 28.7397 16.9026 28.9089 17.0498Z" fill="#0084CC"></path>
<path d="M28.5949 13.0109C28.8178 13.0109 28.9986 12.8278 28.9986 12.6018C28.9986 12.3757 28.8178 12.1926 28.5949 12.1926H27.0435C26.9772 11.7532 26.8058 11.3487 26.5566 11.0055L27.6548 9.89265C27.8125 9.73287 27.8125 9.47379 27.6548 9.31406C27.4972 9.15422 27.2415 9.15428 27.0838 9.31401L25.9856 10.4268C25.647 10.1743 25.2478 10.0006 24.8142 9.93351V8.3613C24.8142 8.13528 24.6334 7.95215 24.4104 7.95215C24.1875 7.95215 24.0067 8.13528 24.0067 8.3613V9.93351C23.5731 10.0006 23.1739 10.1743 22.8352 10.4269L21.737 9.31401C21.5794 9.15428 21.3237 9.15422 21.1661 9.31406C21.0084 9.47385 21.0084 9.73292 21.1661 9.89265L22.2643 11.0055C22.015 11.3487 21.8436 11.7533 21.7774 12.1926H20.226C20.003 12.1926 19.8223 12.3757 19.8223 12.6018C19.8223 12.8278 20.003 13.0109 20.226 13.0109H21.7774C21.8436 13.4503 22.015 13.8548 22.2643 14.198L21.1661 15.3109C21.0084 15.4706 21.0084 15.7297 21.1661 15.8894C21.3238 16.0493 21.5794 16.0492 21.737 15.8895L22.8352 14.7766C23.1739 15.0291 23.5731 15.2029 24.0067 15.27V16.8422C24.0067 17.0682 24.1875 17.2514 24.4104 17.2514C24.6334 17.2514 24.8142 17.0682 24.8142 16.8422V15.27C25.2478 15.2029 25.647 15.0292 25.9856 14.7767L27.0838 15.8895C27.2415 16.0492 27.4972 16.0493 27.6548 15.8894C27.8125 15.7297 27.8125 15.4706 27.6548 15.3109L26.5566 14.198C26.8058 13.8548 26.9772 13.4503 27.0435 13.0109H28.5949ZM24.4104 14.4827C23.3869 14.4827 22.5543 13.6389 22.5543 12.6018C22.5543 11.5646 23.3869 10.7208 24.4104 10.7208C25.4339 10.7208 26.2665 11.5646 26.2665 12.6018C26.2665 13.6389 25.4339 14.4827 24.4104 14.4827Z" fill="#0084CC"></path>
</g>
<g clip-path="url(#clip2-172)">
<path d="M1.07845 40.6517V43.7068C1.07845 43.9924 1.31368 44.2239 1.60381 44.2239C1.89394 44.2239 2.12917 43.9924 2.12917 43.7068V40.6517C2.12917 38.2731 4.0845 36.3481 6.50102 36.3482C7.6444 36.3482 8.68179 35.7747 9.27617 34.8142C9.42708 34.5703 9.3486 34.252 9.10077 34.1035C8.85299 33.9549 8.52977 34.0322 8.37879 34.2762C7.97676 34.9259 7.27481 35.3138 6.50102 35.3138C3.50404 35.3137 1.07845 37.7012 1.07845 40.6517ZM10.2464 35.4675C10.1846 35.7466 10.3643 36.0221 10.6478 36.083C12.0304 36.3795 13.4366 36.0826 14.5562 35.3304C15.6646 36.4996 17.1289 36.3482 16.9329 36.3482C19.3492 36.3481 21.3047 38.2729 21.3047 40.6517V43.7068C21.3047 43.9924 21.54 44.2239 21.8301 44.2239C22.1202 44.2239 22.3555 43.9924 22.3555 43.7068V40.6517C22.3555 37.7015 19.9303 35.3138 16.933 35.3138C15.7206 35.3138 14.7377 34.3522 14.7377 33.1584V33.0221C17.0309 31.9427 18.6405 29.6745 18.7386 27.0331C19.6822 26.8097 20.3854 25.9782 20.3854 24.989V22.3079C20.4141 20.9955 20.2161 17.7087 17.7817 15.3986C14.7756 12.546 9.95494 12.7272 6.4102 14.4071C6.06471 14.5709 6.01224 15.0305 6.29915 15.2684C4.50341 15.6996 2.95491 16.7863 1.96007 18.3416C1.90872 18.4217 1.81468 18.5474 1.83924 18.748C1.85448 18.8729 1.89224 18.9785 1.98995 19.0761C2.63024 19.7153 2.98282 20.5624 2.98282 21.4613V24.9891C2.98282 25.2747 3.21805 25.5063 3.50818 25.5063C3.79831 25.5063 4.03354 25.2747 4.03354 24.9891V21.4613C4.03354 20.4246 3.67373 19.4405 3.01289 18.65C4.02014 17.2319 5.59162 16.3199 7.36892 16.1326L8.2923 16.0352C8.83224 15.9783 8.93817 15.2461 8.43638 15.0427L8.01642 14.8725C13.4858 12.9955 19.3347 15.0811 19.3347 22.3022V24.989C19.3347 25.3993 19.0946 25.756 18.7437 25.9351V22.5824C18.7437 20.5862 17.0939 18.9621 15.0662 18.9621H8.36782C6.34007 18.9621 4.6903 20.5861 4.6903 22.5822V26.8167C4.6903 31.3144 9.15508 34.7308 13.6983 33.4141C13.7278 33.7831 13.8211 34.1392 13.9732 34.4702C13.0894 35.0676 11.9733 35.3086 10.8716 35.0723C10.5881 35.0115 10.3082 35.1885 10.2464 35.4675ZM11.717 32.6603C8.4218 32.6603 5.74102 30.0212 5.74102 26.7774V22.5822C5.74102 21.1564 6.9194 19.9965 8.36782 19.9965H15.0662C16.5146 19.9965 17.693 21.1565 17.693 22.5824V26.7774C17.693 30.0212 15.0122 32.6603 11.717 32.6603Z" fill="white"></path>
<path d="M17.6103 16.7582L14.5478 14.4306L12.251 13.6548H7.65722L3.82878 16.2926L1.53222 18.31L2.29784 23.741L2.29781 25.2927H3.82909L5.36034 29.9479L7.65691 32.5857L7.83079 33.0513L6.89159 35.3789L3.82909 36.1548L1.53222 37.7065L0.766281 40.3444L0.605062 43.9134H20.8438L20.6728 40.81L19.9072 37.7065L17.4558 36.1548L14.1635 35.3789L13.7819 33.8272L13.0166 33.0513L16.8447 29.172L19.1416 22.9651L17.6103 16.7582Z" fill="#0084CC"></path>
<path d="M0.000329971 40.6517V43.7068C0.000329971 43.9924 0.235559 44.2239 0.52569 44.2239C0.815821 44.2239 1.05105 43.9924 1.05105 43.7068V40.6517C1.05105 38.2731 3.00637 36.3481 5.4229 36.3482C6.56628 36.3482 7.60367 35.7747 8.19805 34.8142C8.34896 34.5703 8.27048 34.252 8.02264 34.1035C7.77487 33.9549 7.45164 34.0322 7.30067 34.2762C6.89864 34.9259 6.19669 35.3138 5.4229 35.3138C2.42592 35.3137 0.000329971 37.7012 0.000329971 40.6517ZM9.16826 35.4675C9.10646 35.7466 9.2862 36.0221 9.5697 36.083C10.9523 36.3795 12.3585 36.0826 13.4781 35.3304C14.5865 36.4996 16.0508 36.3482 15.8548 36.3482C18.2711 36.3481 20.2266 38.2729 20.2266 40.6517V43.7068C20.2266 43.9924 20.4619 44.2239 20.752 44.2239C21.0421 44.2239 21.2773 43.9924 21.2773 43.7068V40.6517C21.2773 37.7015 18.8522 35.3138 15.8549 35.3138C14.6425 35.3138 13.6596 34.3522 13.6596 33.1584V33.0221C15.9528 31.9427 17.5623 29.6745 17.6604 27.0331C18.6041 26.8097 19.3072 25.9782 19.3072 24.989V22.3079C19.3359 20.9955 19.138 17.7087 16.7036 15.3986C13.6975 12.546 8.87681 12.7272 5.33208 14.4071C4.98659 14.5709 4.93412 15.0305 5.22103 15.2684C3.42528 15.6996 1.87679 16.7863 0.88195 18.3416C0.830597 18.4217 0.736557 18.5474 0.761118 18.748C0.776354 18.8729 0.814112 18.9785 0.911829 19.0761C1.55211 19.7153 1.9047 20.5624 1.9047 21.4613V24.9891C1.9047 25.2747 2.13993 25.5063 2.43006 25.5063C2.72018 25.5063 2.95541 25.2747 2.95541 24.9891V21.4613C2.95541 20.4246 2.59561 19.4405 1.93477 18.65C2.94202 17.2319 4.5135 16.3199 6.29079 16.1326L7.21418 16.0352C7.75412 15.9783 7.86004 15.2461 7.35826 15.0427L6.9383 14.8725C12.4077 12.9955 18.2566 15.0811 18.2566 22.3022V24.989C18.2566 25.3993 18.0165 25.756 17.6656 25.9351V22.5824C17.6656 20.5862 16.0158 18.9621 13.988 18.9621H7.2897C5.26194 18.9621 3.61218 20.5861 3.61218 22.5822V26.8167C3.61218 31.3144 8.07695 34.7308 12.6201 33.4141C12.6497 33.7831 12.743 34.1392 12.895 34.4702C12.0112 35.0676 10.8952 35.3086 9.79343 35.0723C9.50994 35.0115 9.23005 35.1885 9.16826 35.4675ZM10.6389 32.6603C7.34368 32.6603 4.6629 30.0212 4.6629 26.7774V22.5822C4.6629 21.1564 5.84128 19.9965 7.2897 19.9965H13.988C15.4365 19.9965 16.6148 21.1565 16.6148 22.5824V26.7774C16.6148 30.0212 13.9341 32.6603 10.6389 32.6603Z" fill="#0084CC"></path>
</g>
<g clip-path="url(#clip3-173)">
<path d="M26.4984 40.6517V43.7068C26.4984 43.9924 26.7336 44.2239 27.0237 44.2239C27.3139 44.2239 27.5491 43.9924 27.5491 43.7068V40.6517C27.5491 38.2731 29.5044 36.3481 31.9209 36.3482C33.0643 36.3482 34.1017 35.7747 34.6961 34.8142C34.847 34.5703 34.7685 34.252 34.5207 34.1035C34.2729 33.9549 33.9497 34.0322 33.7987 34.2762C33.3967 34.9259 32.6947 35.3138 31.9209 35.3138C28.924 35.3137 26.4984 37.7012 26.4984 40.6517ZM35.6663 35.4675C35.6045 35.7466 35.7842 36.0221 36.0677 36.083C37.4504 36.3795 38.8566 36.0826 39.9762 35.3304C41.0845 36.4996 42.5488 36.3482 42.3528 36.3482C44.7691 36.3481 46.7247 38.2729 46.7247 40.6517V43.7068C46.7247 43.9924 46.9599 44.2239 47.25 44.2239C47.5402 44.2239 47.7754 43.9924 47.7754 43.7068V40.6517C47.7754 37.7015 45.3503 35.3138 42.353 35.3138C41.1406 35.3138 40.1577 34.3522 40.1577 33.1584V33.0221C42.4508 31.9427 44.0604 29.6745 44.1585 27.0331C45.1022 26.8097 45.8053 25.9782 45.8053 24.989V22.3079C45.834 20.9955 45.6361 17.7087 43.2016 15.3986C40.1956 12.546 35.3749 12.7272 31.8301 14.4071C31.4846 14.5709 31.4322 15.0305 31.7191 15.2684C29.9233 15.6996 28.3748 16.7863 27.38 18.3416C27.3286 18.4217 27.2346 18.5474 27.2592 18.748C27.2744 18.8729 27.3122 18.9785 27.4099 19.0761C28.0502 19.7153 28.4027 20.5624 28.4027 21.4613V24.9891C28.4027 25.2747 28.638 25.5063 28.9281 25.5063C29.2182 25.5063 29.4535 25.2747 29.4535 24.9891V21.4613C29.4535 20.4246 29.0937 19.4405 28.4328 18.65C29.4401 17.2319 31.0115 16.3199 32.7888 16.1326L33.7122 16.0352C34.2522 15.9783 34.3581 15.2461 33.8563 15.0427L33.4363 14.8725C38.9057 12.9955 44.7546 15.0811 44.7546 22.3022V24.989C44.7546 25.3993 44.5145 25.756 44.1636 25.9351V22.5824C44.1636 20.5862 42.5138 18.9621 40.4861 18.9621H33.7877C31.76 18.9621 30.1102 20.5861 30.1102 22.5822V26.8167C30.1102 31.3144 34.575 34.7308 39.1182 33.4141C39.1477 33.7831 39.241 34.1392 39.3931 34.4702C38.5093 35.0676 37.3932 35.3086 36.2915 35.0723C36.008 35.0115 35.7281 35.1885 35.6663 35.4675ZM37.1369 32.6603C33.8417 32.6603 31.1609 30.0212 31.1609 26.7774V22.5822C31.1609 21.1564 32.3393 19.9965 33.7877 19.9965H40.4861C41.9345 19.9965 43.1129 21.1565 43.1129 22.5824V26.7774C43.1129 30.0212 40.4321 32.6603 37.1369 32.6603Z" fill="white"></path>
<path d="M45.1728 16.7582L42.1103 14.4306L39.8135 13.6548H35.2197L31.3913 16.2926L29.0947 18.31L29.8603 23.741L29.8603 25.2927H31.3916L32.9228 29.9479L35.2194 32.5857L35.3933 33.0513L34.4541 35.3789L31.3916 36.1548L29.0947 37.7065L28.3288 40.3444L28.1676 43.9134H48.4062L48.2353 40.81L47.4697 37.7065L45.0183 36.1548L41.726 35.3789L41.3444 33.8272L40.5791 33.0513L44.4072 29.172L46.7041 22.9651L45.1728 16.7582Z" fill="white"></path>
<path d="M27.5628 40.6517V43.7068C27.5628 43.9924 27.7981 44.2239 28.0882 44.2239C28.3783 44.2239 28.6135 43.9924 28.6135 43.7068V40.6517C28.6135 38.2731 30.5689 36.3481 32.9854 36.3482C34.1288 36.3482 35.1662 35.7747 35.7605 34.8142C35.9115 34.5703 35.833 34.252 35.5851 34.1035C35.3374 33.9549 35.0141 34.0322 34.8632 34.2762C34.4611 34.9259 33.7592 35.3138 32.9854 35.3138C29.9884 35.3137 27.5628 37.7012 27.5628 40.6517ZM36.7308 35.4675C36.669 35.7466 36.8487 36.0221 37.1322 36.083C38.5148 36.3795 39.921 36.0826 41.0406 35.3304C42.149 36.4996 43.6133 36.3482 43.4173 36.3482C45.8336 36.3481 47.7891 38.2729 47.7891 40.6517V43.7068C47.7891 43.9924 48.0244 44.2239 48.3145 44.2239C48.6046 44.2239 48.8398 43.9924 48.8398 43.7068V40.6517C48.8398 37.7015 46.4147 35.3138 43.4174 35.3138C42.205 35.3138 41.2221 34.3522 41.2221 33.1584V33.0221C43.5153 31.9427 45.1248 29.6745 45.2229 27.0331C46.1666 26.8097 46.8697 25.9782 46.8697 24.989V22.3079C46.8984 20.9955 46.7005 17.7087 44.2661 15.3986C41.26 12.546 36.4393 12.7272 32.8946 14.4071C32.5491 14.5709 32.4966 15.0305 32.7835 15.2684C30.9878 15.6996 29.4393 16.7863 28.4445 18.3416C28.3931 18.4217 28.2991 18.5474 28.3236 18.748C28.3389 18.8729 28.3766 18.9785 28.4743 19.0761C29.1146 19.7153 29.4672 20.5624 29.4672 21.4613V24.9891C29.4672 25.2747 29.7024 25.5063 29.9926 25.5063C30.2827 25.5063 30.5179 25.2747 30.5179 24.9891V21.4613C30.5179 20.4246 30.1581 19.4405 29.4973 18.65C30.5045 17.2319 32.076 16.3199 33.8533 16.1326L34.7767 16.0352C35.3166 15.9783 35.4225 15.2461 34.9208 15.0427L34.5008 14.8725C39.9702 12.9955 45.8191 15.0811 45.8191 22.3022V24.989C45.8191 25.3993 45.579 25.756 45.2281 25.9351V22.5824C45.2281 20.5862 43.5783 18.9621 41.5505 18.9621H34.8522C32.8244 18.9621 31.1747 20.5861 31.1747 22.5822V26.8167C31.1747 31.3144 35.6395 34.7308 40.1826 33.4141C40.2122 33.7831 40.3055 34.1392 40.4575 34.4702C39.5737 35.0676 38.4577 35.3086 37.3559 35.0723C37.0724 35.0115 36.7926 35.1885 36.7308 35.4675ZM38.2014 32.6603C34.9062 32.6603 32.2254 30.0212 32.2254 26.7774V22.5822C32.2254 21.1564 33.4038 19.9965 34.8522 19.9965H41.5505C42.999 19.9965 44.1773 21.1565 44.1773 22.5824V26.7774C44.1773 30.0212 41.4966 32.6603 38.2014 32.6603Z" fill="#0084CC"></path>
</g>
</g>
<defs>
<clipPath id="clip0-170">
<rect width="49" height="45" fill="white"></rect>
</clipPath>
<clipPath id="clip1-171">
<rect width="27.5625" height="27.931" fill="white" transform="translate(10.7188)"></rect>
</clipPath>
<clipPath id="clip2-172">
<rect width="22.9688" height="32.5862" fill="white" transform="matrix(-1 0 0 1 22.9688 12.4136)"></rect>
</clipPath>
<clipPath id="clip3-173">
<rect width="22.9688" height="32.5862" fill="white" transform="matrix(-1 0 0 1 50.5312 12.4136)"></rect>
</clipPath>
</defs>
</svg>