<svg xmlns="http://www.w3.org/2000/svg" width="49" height="30px" viewBox="0 0 49 30" fill="none" class="injected-svg" data-src="/static/media/dollar-key.19c58b06.svg" xmlns:xlink="http://www.w3.org/1999/xlink">
<path d="M6.60217 12.8571C5.41399 12.8571 4.44733 11.8959 4.44733 10.7143C4.44733 9.85114 4.96377 9.076 5.76307 8.73928C6.72801 8.333 7.88271 8.67972 8.93197 9.69057C9.78672 10.514 11.1509 10.4926 11.9789 9.64271C12.8071 8.79271 12.7854 7.43614 11.9308 6.61271C10.9579 5.67543 9.87651 5.013 8.757 4.63914V2.14286C8.757 0.959429 7.79221 0 6.60217 0C5.41212 0 4.44733 0.959429 4.44733 2.14286V4.653C4.32508 4.69629 4.20326 4.742 4.08245 4.79286C1.68613 5.80214 0.137665 8.12643 0.137665 10.7143C0.137665 14.259 3.03764 17.1429 6.60217 17.1429C7.79034 17.1429 8.757 18.1041 8.757 19.2857C8.757 20.1837 8.1874 20.9934 7.33969 21.3004C6.23283 21.7011 4.94438 21.1576 3.8049 19.8083C3.03951 18.902 1.68038 18.7844 0.769032 19.5456C-0.142319 20.3067 -0.260548 21.6584 0.504849 22.5646C1.66975 23.9439 3.02572 24.8897 4.44748 25.3657V27.8571C4.44748 29.0406 5.41227 30 6.60231 30C7.79235 30 8.75714 29.0406 8.75714 27.8571V25.3467C8.77639 25.34 8.79564 25.3341 8.81475 25.3273C11.3579 24.4061 13.0667 21.9781 13.0667 19.2857C13.0667 15.741 10.1667 12.8571 6.60217 12.8571Z" fill="#0084CC"></path>
<g clip-path="url(#clip0-169)">
<path d="M40.8338 0C36.4858 0 32.9482 3.56576 32.9482 7.94839C32.9482 10.6509 34.3349 13.1833 36.5877 14.6397V15.2853C36.5877 15.6228 36.8595 15.8968 37.1943 15.8968H37.8009V17.4779L36.7649 18.5209C36.5283 18.7594 36.5283 19.147 36.7649 19.3855L37.8009 20.4298V21.1464L36.7649 22.1894C36.5283 22.4279 36.5283 22.8155 36.7649 23.054L37.8009 24.0983V26.2908C37.8009 26.4535 37.8653 26.6088 37.9781 26.7237L40.4044 29.1694C40.5233 29.288 40.6786 29.3479 40.8339 29.3479C40.9892 29.3479 41.1444 29.288 41.2633 29.1694L43.6897 26.7237C43.8025 26.6088 43.8668 26.4535 43.8668 26.2908V15.8967H44.4733C44.8082 15.8967 45.0799 15.6228 45.0799 15.2853V14.6396C47.3328 13.1832 48.7194 10.6508 48.7194 7.94833C48.7194 3.56576 45.1818 0 40.8338 0ZM44.1688 13.7666C43.982 13.8766 43.8667 14.0784 43.8667 14.2961V14.6739H43.2601C42.9253 14.6739 42.6535 14.9478 42.6535 15.2853V26.0377L40.8338 27.8719L39.014 26.0377V23.8451C39.014 23.6825 38.9497 23.5272 38.8357 23.4122L38.052 22.6223L38.8369 21.8324C38.9498 21.7174 39.0141 21.5621 39.0141 21.3995V20.1766C39.0141 20.014 38.9498 19.8587 38.8357 19.7437L38.0521 18.9538L38.837 18.1639C38.9498 18.049 39.0141 17.8936 39.0141 17.731V15.2853C39.0141 14.9478 38.7424 14.6739 38.4075 14.6739H37.8009V14.2961C37.8009 14.0784 37.6857 13.8766 37.4989 13.7666C35.4401 12.5645 34.1614 10.3354 34.1614 7.94839C34.1614 4.23956 37.1556 1.22286 40.8338 1.22286C44.5122 1.22286 47.5062 4.23956 47.5062 7.94839C47.5062 10.3353 46.2276 12.5645 44.1688 13.7666Z" fill="#0084CC"></path>
<path d="M40.8337 2.4458C39.1607 2.4458 37.8008 3.81781 37.8008 5.50285C37.8008 7.18789 39.1608 8.5599 40.8337 8.5599C42.5066 8.5599 43.8666 7.18789 43.8666 5.50285C43.8666 3.81781 42.5066 2.4458 40.8337 2.4458ZM40.8337 7.33709C39.8304 7.33709 39.0139 6.51415 39.0139 5.50285C39.0139 4.49155 39.8304 3.66861 40.8337 3.66861C41.837 3.66861 42.6534 4.49155 42.6534 5.50285C42.6534 6.51415 41.837 7.33709 40.8337 7.33709Z" fill="#0084CC"></path>
<path d="M40.8341 15.897C40.4993 15.897 40.2275 16.1709 40.2275 16.5084V25.0682C40.2275 25.4057 40.4993 25.6796 40.8341 25.6796C41.169 25.6796 41.4407 25.4057 41.4407 25.0682V16.5084C41.4407 16.1709 41.169 15.897 40.8341 15.897Z" fill="#0084CC"></path>
</g>
<line x1="19.293" y1="13.3477" x2="29.053" y2="13.3477" stroke="#0084CC" stroke-width="2" stroke-linecap="round"></line>
<line x1="19.293" y1="17.2607" x2="29.053" y2="17.2607" stroke="#0084CC" stroke-width="2" stroke-linecap="round"></line>
<defs>
<clipPath id="clip0-169">
<rect width="16.3333" height="29.3478" fill="white" transform="translate(32.667)"></rect>
</clipPath>
</defs>
</svg>