<svg xmlns="http://www.w3.org/2000/svg" width="53" height="53px" viewBox="0 0 53 53" fill="none" class="injected-svg" data-src="/static/media/safe-in-out.a444ecef.svg" xmlns:xlink="http://www.w3.org/1999/xlink">
<g clip-path="url(#clip0-174)">
<path d="M42.1028 23.2109C41.8104 23.2109 41.5733 23.447 41.5733 23.7384V43.4865C41.5733 43.8048 41.3134 44.0637 40.9938 44.0637H12.0076C11.688 44.0637 11.4281 43.8048 11.4281 43.4865V40.5472C11.4281 40.2558 11.191 40.0197 10.8986 40.0197C10.6062 40.0197 10.3691 40.2558 10.3691 40.5472V43.4865C10.3691 44.3865 11.1041 45.1187 12.0076 45.1187H13.535V47.4044C13.535 48.083 14.0892 48.6351 14.7704 48.6351H21.4066C22.0878 48.6351 22.6421 48.083 22.6421 47.4044V45.1187H30.1254V47.4044C30.1254 48.083 30.6797 48.6351 31.3609 48.6351H37.997C38.6782 48.6351 39.2325 48.083 39.2325 47.4044V45.1187H40.9939C41.8974 45.1187 42.6323 44.3865 42.6323 43.4865V23.7384C42.6323 23.447 42.3952 23.2109 42.1028 23.2109ZM21.5831 47.4044C21.5831 47.5014 21.5039 47.5802 21.4066 47.5802H14.7704C14.6731 47.5802 14.5939 47.5014 14.5939 47.4044V45.1187H21.5831V47.4044ZM38.1735 47.4044C38.1735 47.5014 38.0943 47.5802 37.997 47.5802H31.3609C31.2636 47.5802 31.1844 47.5014 31.1844 47.4044V45.1187H38.1735V47.4044Z" fill="#0084CC"></path>
<path d="M40.9938 12.6265H12.0076C11.1041 12.6265 10.3691 13.3586 10.3691 14.2586V41.21C10.3691 41.5014 10.6062 41.7375 10.8986 41.7375C11.191 41.7375 11.4281 41.5014 11.4281 41.21L11.4281 14.2586C11.4281 13.9404 11.688 13.6814 12.0076 13.6814H40.9939C41.3134 13.6814 41.5734 13.9404 41.5734 14.2586V21.2067C41.5734 21.4981 41.8104 21.7342 42.1028 21.7342C42.3953 21.7342 42.6323 21.4981 42.6323 21.2067V14.2586C42.6323 13.3586 41.8973 12.6265 40.9938 12.6265Z" fill="#0084CC"></path>
<path d="M12.7285 32.6112V36.0013C12.7285 36.8702 13.3645 37.5934 14.197 37.7343V39.481C14.197 40.3986 14.9464 41.1451 15.8675 41.1451H36.9014C37.8225 41.1451 38.5718 40.3986 38.5718 39.481V18.2642C38.5718 17.3466 37.8225 16.6001 36.9014 16.6001H27.0557C26.7633 16.6001 26.5263 16.8362 26.5263 17.1276C26.5263 17.4189 26.7633 17.655 27.0557 17.655H36.9014C37.2385 17.655 37.5129 17.9283 37.5129 18.2642V39.481C37.5129 39.8169 37.2385 40.0902 36.9014 40.0902H15.8675C15.5303 40.0902 15.256 39.8169 15.256 39.481V37.7343C16.0885 37.5934 16.7245 36.8702 16.7245 36.0014V32.6113C16.7245 31.7424 16.0885 31.0192 15.256 30.8784V26.867C16.0885 26.7261 16.7245 26.0029 16.7245 25.1341V21.744C16.7245 20.8752 16.0885 20.152 15.256 20.0111V18.2642C15.256 17.9283 15.5303 17.655 15.8675 17.655H27.0557C27.3482 17.655 27.5852 17.4189 27.5852 17.1276C27.5852 16.8362 27.3482 16.6001 27.0557 16.6001H15.8675C14.9464 16.6001 14.197 17.3466 14.197 18.2642V20.0109C13.3645 20.1519 12.7285 20.8751 12.7285 21.7439V25.134C12.7285 26.0028 13.3645 26.726 14.197 26.8669V30.8782C13.3645 31.0192 12.7285 31.7424 12.7285 32.6112ZM15.6655 32.6112V36.0013C15.6655 36.3891 15.3488 36.7046 14.9595 36.7046H14.4935C14.1042 36.7046 13.7875 36.3891 13.7875 36.0013V32.6112C13.7875 32.2234 14.1042 31.9079 14.4935 31.9079H14.9595C15.3488 31.9079 15.6655 32.2235 15.6655 32.6112ZM13.7875 25.134V21.7439C13.7875 21.3561 14.1042 21.0406 14.4935 21.0406H14.9595C15.3488 21.0406 15.6655 21.3561 15.6655 21.7439V25.134C15.6655 25.5218 15.3488 25.8373 14.9595 25.8373H14.4935C14.1042 25.8373 13.7875 25.5218 13.7875 25.134Z" fill="#0084CC"></path>
<path d="M32.2828 34.6076C32.5046 34.7972 32.8389 34.772 33.0294 34.551C34.3898 32.9725 35.1391 30.9559 35.1391 28.8727C35.1391 24.064 31.212 20.1519 26.385 20.1519C21.5579 20.1519 17.6309 24.064 17.6309 28.8727C17.6309 33.6815 21.5579 37.5936 26.385 37.5936C28.0362 37.5936 29.6445 37.1332 31.0361 36.2621C31.2837 36.1071 31.3583 35.7814 31.2027 35.5348C31.0472 35.2882 30.7204 35.214 30.4727 35.3688C29.2501 36.1341 27.8366 36.5387 26.385 36.5387C22.1418 36.5387 18.6898 33.0998 18.6898 28.8727C18.6898 24.6457 22.1418 21.2068 26.385 21.2068C30.6281 21.2068 34.0801 24.6457 34.0801 28.8727C34.0801 30.7039 33.4216 32.4764 32.2259 33.8638C32.0354 34.0847 32.0609 34.4178 32.2828 34.6076Z" fill="#0084CC"></path>
<path d="M31.8718 29.4002C32.1642 29.4002 32.4012 29.1641 32.4012 28.8727C32.4012 28.5813 32.1642 28.3452 31.8718 28.3452H29.8372C29.7504 27.7788 29.5256 27.2572 29.1987 26.8148L30.6389 25.3801C30.8457 25.1741 30.8457 24.8401 30.6389 24.6342C30.4322 24.4281 30.0969 24.4282 29.8902 24.6341L28.45 26.0688C28.0058 25.7432 27.4823 25.5192 26.9137 25.4328V23.4059C26.9137 23.1145 26.6766 22.8784 26.3842 22.8784C26.0918 22.8784 25.8547 23.1145 25.8547 23.4059V25.4328C25.2861 25.5193 24.7626 25.7432 24.3185 26.0689L22.8783 24.6341C22.6715 24.4282 22.3362 24.4281 22.1295 24.6342C21.9227 24.8402 21.9227 25.1742 22.1295 25.3801L23.5697 26.8148C23.2428 27.2572 23.0181 27.7789 22.9312 28.3452H20.8967C20.6043 28.3452 20.3672 28.5813 20.3672 28.8727C20.3672 29.1641 20.6043 29.4002 20.8967 29.4002H22.9312C23.0181 29.9666 23.2428 30.4882 23.5697 30.9306L22.1295 32.3653C21.9227 32.5713 21.9227 32.9053 22.1295 33.1112C22.3363 33.3173 22.6715 33.3172 22.8783 33.1113L24.3185 31.6765C24.7626 32.0021 25.2861 32.2261 25.8547 32.3126V34.3395C25.8547 34.6309 26.0918 34.867 26.3842 34.867C26.6766 34.867 26.9137 34.6309 26.9137 34.3395V32.3126C27.4823 32.2261 28.0058 32.0022 28.45 31.6766L29.8902 33.1113C30.0969 33.3172 30.4322 33.3173 30.6389 33.1112C30.8457 32.9052 30.8457 32.5712 30.6389 32.3653L29.1987 30.9306C29.5256 30.4882 29.7504 29.9666 29.8372 29.4002H31.8718ZM26.3841 31.2976C25.0419 31.2976 23.95 30.2097 23.95 28.8727C23.95 27.5357 25.0419 26.4478 26.3841 26.4478C27.7263 26.4478 28.8184 27.5357 28.8184 28.8727C28.8184 30.2097 27.7263 31.2976 26.3841 31.2976Z" fill="#0084CC"></path>
</g>
<path d="M40.9925 30.1633L31.9582 18.8393L36.2528 18.8349V3.9751H45.9541L45.9497 18.8393L50.0312 18.8349L40.9925 30.1633Z" fill="white"></path>
<path d="M43.6429 30.1633L34.6086 18.8393L38.9032 18.8349V3.9751H48.6045L48.6001 18.8393L52.6816 18.8349L43.6429 30.1633Z" fill="#FF7C7C"></path>
<path d="M12.0024 3.9751L2.96801 15.2991L7.26253 15.3036V30.1633H16.9638L16.9595 15.2991L21.041 15.3036L12.0024 3.9751Z" fill="white"></path>
<path d="M9.35199 3.9751L0.317623 15.2991L4.61214 15.3036V30.1633H14.3134L14.3091 15.2991L18.3906 15.3036L9.35199 3.9751Z" fill="#009A34"></path>
<defs>
<clipPath id="clip0-174">
<rect width="36.146" height="36.0088" fill="white" transform="translate(8.42773 12.6265)"></rect>
</clipPath>
</defs>
</svg>