<?xml version="1.0" encoding="utf-8"?>
<svg version="1.1" xmlns:xlink="http://www.w3.org/1999/xlink" width="18px" height="20px" xmlns="http://www.w3.org/2000/svg">
  <g transform="matrix(1 0 0 1 -15 -15 )">
    <path d="M 16.714285714285715 13.324607329842932  C 17.571428571428573 14.179755671902267  18 15.205061082024432  18 16.40052356020942  C 18 17.421465968586386  17.661428571428573 18.276614310645723  16.984285714285715 18.965968586387433  C 16.30714285714286 19.655322862129147  15.467142857142857 20  14.464285714285715 20  C 13.307142857142857 20  12.3 19.563699825479933  11.442857142857143 18.69109947643979  L 1.452857142857143 8.534031413612567  C 0.48428571428571443 7.530541012216403  0 6.348167539267015  0 4.986910994764397  C 0 3.5994764397905765  0.4714285714285716 2.421465968586387  1.4142857142857146 1.4528795811518314  C 2.3571428571428577 0.48429319371727786  3.5100000000000002 0  4.872857142857144 0  C 6.227142857142857 0  7.397142857142857 0.49301919720767584  8.382857142857143 1.4790575916230364  L 16.161428571428573 9.410994764397905  C 16.247142857142858 9.49825479930192  16.29 9.594240837696335  16.29 9.698952879581151  C 16.29 9.838568935427574  16.159285714285716 10.041448516579408  15.897857142857143 10.30759162303665  C 15.636428571428572 10.573734729493891  15.43714285714286 10.706806282722514  15.299999999999999 10.706806282722514  C 15.18857142857143 10.706806282722514  15.09 10.663176265270504  15.004285714285713 10.575916230366493  L 7.212857142857143 2.630890052356021  C 6.5357142857142865 1.958987783595112  5.760000000000002 1.6230366492146597  4.885714285714285 1.6230366492146597  C 3.9771428571428578 1.6230366492146597  3.21 1.9502617801047117  2.5842857142857145 2.6047120418848158  C 1.958571428571429 3.259162303664922  1.6457142857142857 4.0488656195462465  1.6457142857142857 4.973821989528795  C 1.6457142857142857 5.890052356020943  1.971428571428572 6.679755671902267  2.6228571428571428 7.342931937172774  L 12.6 17.513089005235603  C 13.14 18.062827225130892  13.761428571428572 18.337696335078533  14.464285714285715 18.337696335078533  C 15.012857142857145 18.337696335078533  15.467142857142857 18.154450261780106  15.827142857142858 17.787958115183248  C 16.187142857142856 17.421465968586386  16.367142857142856 16.958987783595113  16.367142857142856 16.40052356020942  C 16.367142857142856 15.68499127399651  16.097142857142856 15.052356020942408  15.557142857142857 14.502617801047123  L 8.087142857142858 6.897905759162304  C 7.864285714285716 6.68848167539267  7.607142857142858 6.583769633507854  7.315714285714286 6.583769633507854  C 7.0671428571428585 6.583769633507854  6.861428571428572 6.666666666666665  6.698571428571429 6.832460732984293  C 6.5357142857142865 6.99825479930192  6.454285714285715 7.207678883071553  6.454285714285715 7.460732984293195  C 6.454285714285715 7.739965095986037  6.561428571428571 7.997382198952881  6.775714285714286 8.232984293193716  L 12.047142857142857 13.599476439790577  C 12.132857142857144 13.686736474694587  12.175714285714287 13.782722513089006  12.175714285714285 13.887434554973822  C 12.175714285714287 14.027050610820242  12.042857142857144 14.232111692844676  11.777142857142856 14.502617801047123  C 11.511428571428572 14.773123909249561  11.310000000000002 14.908376963350785  11.172857142857142 14.908376963350785  C 11.070000000000002 14.908376963350785  10.975714285714288 14.864746945898776  10.89 14.777486910994764  L 5.618571428571429 9.410994764397905  C 5.078571428571428 8.878708551483419  4.808571428571428 8.228621291448517  4.808571428571428 7.460732984293195  C 4.808571428571428 6.745200698080279  5.0528571428571425 6.138743455497382  5.541428571428572 5.641361256544504  C 6.03 5.143979057591624  6.625714285714286 4.895287958115184  7.328571428571428 4.895287958115184  C 8.082857142857144 4.895287958115184  8.721428571428572 5.170157068062826  9.244285714285715 5.719895287958114  L 16.714285714285715 13.324607329842932  Z " fill-rule="nonzero" fill="#0085cc" stroke="none" transform="matrix(1 0 0 1 15 15 )" />
  </g>
</svg>