<svg width="33" height="32" viewBox="0 0 33 32" fill="none" xmlns="http://www.w3.org/2000/svg">
<path d="M20.9339 27.859V30.3503C20.9339 30.6355 20.6841 30.8666 20.4011 30.8666C20.1182 30.8666 19.9091 30.6355 19.9091 30.3503V27.859C19.9091 25.4841 18.0023 23.5623 15.6455 23.5623C14.5305 23.5623 13.0766 21.592 12.4969 20.6331C12.3498 20.3895 12.4263 20.0718 12.668 19.9235C12.9097 19.7751 13.2249 19.8523 13.3721 20.0959C13.7642 20.7446 14.8909 22.5297 15.6455 22.5297C18.5683 22.5295 20.9339 24.9132 20.9339 27.859ZM14.3181 21.7501C14.3784 22.0288 14.2031 22.3039 13.9267 22.3646C10.8181 23.5244 10.4569 23.5244 7.7898 22.5462C6.70887 23.7136 5.2808 23.5623 5.472 23.5623C3.11553 23.5623 1.2084 25.4839 1.2084 27.859L1.20827 29.7999C1.20827 30.0851 0.978867 30.3163 0.695934 30.3163C0.413 30.3163 0.183594 30.0851 0.183594 29.7999L0.183701 27.859C0.183701 24.9135 2.5488 22.5297 5.47187 22.5297C6.65427 22.5297 7.6128 21.5697 7.6128 20.3777V20.2417C5.37647 19.1641 3.80673 16.8995 3.71107 14.2624C2.79073 14.0394 2.105 13.2093 2.105 12.2216V9.54487C2.077 8.23467 2.27007 4.95314 4.6442 2.64683C7.57587 -0.201143 12.2772 -0.0202365 15.7341 1.65688C16.0711 1.8205 16.1223 2.27926 15.8425 2.51684C17.5937 2.94733 19.1039 4.03227 20.0741 5.585C20.1241 5.665 20.2159 5.79054 20.1919 5.99081C20.1771 6.11541 20.1403 6.22087 20.0449 6.31834C19.4205 6.95654 19.0767 7.80221 19.0767 8.69967V12.2217C19.0767 12.5069 18.8473 12.7381 18.5643 12.7381C18.2813 12.7381 18.0519 12.5069 18.0519 12.2217V8.69967C18.0519 7.6646 18.4029 6.68221 19.0473 5.89294C18.065 4.47714 16.5325 3.56661 14.7991 3.37957L13.8987 3.28237C13.3721 3.22557 13.2688 2.49451 13.7581 2.29152L14.1677 2.12158C8.83373 0.247617 3.12967 2.3298 3.12967 9.53927V12.2216C3.12967 12.6313 3.3638 12.9874 3.70607 13.1662V9.81887C3.70607 7.82601 5.31493 6.20454 7.29253 6.20454H13.825C15.8025 6.20454 17.4115 7.82587 17.4115 9.81874V14.0464C17.4115 18.5368 13.0572 21.9476 8.62653 20.6331C8.59773 21.0015 8.50673 21.357 8.35847 21.6874C10.4569 22.8015 11.6388 22.3646 13.7085 21.3555C13.9849 21.2949 14.2579 21.4715 14.3181 21.7501ZM10.5587 19.8805C13.7723 19.8805 16.3867 17.2457 16.3867 14.0071V9.81874C16.3867 8.39534 15.2375 7.23721 13.825 7.23721H7.29253C5.87993 7.23721 4.73073 8.39534 4.73073 9.81887V14.0071C4.73073 17.2457 7.34513 19.8805 10.5587 19.8805Z" fill="white"/>
<path d="M22.5331 31.6667C28.1295 31.6667 32.6664 27.1299 32.6664 21.5334C32.6664 15.9369 28.1295 11.4001 22.5331 11.4001C16.9366 11.4001 12.3997 15.9369 12.3997 21.5334C12.3997 27.1299 16.9366 31.6667 22.5331 31.6667Z" fill="#009A34"/>
<path d="M22.6667 15V28.3333" stroke="white" stroke-width="2" stroke-linecap="round"/>
<path d="M16.6667 21.6667H28.6667" stroke="white" stroke-width="2" stroke-linecap="round"/>
</svg>
