<svg width="71" height="61" viewBox="0 0 71 61" fill="none" xmlns="http://www.w3.org/2000/svg">
<g clip-path="url(#clip0_4979_273699)">
<path d="M22.7858 13.625L26.5001 10.85L29.2858 9.925H34.8573L39.5001 12.7L42.2858 15.475L41.3573 21.95L41.3573 23.8H39.5001L37.643 29.35L33.9287 32.125L35.7858 35.825L39.5001 36.75L42.2858 38.6L43.4103 46H18.8643L19.0716 42.3L20.0001 38.6L26.5001 34.9L28.3572 33.05L23.7144 28.425L20.9287 21.025L22.7858 13.625Z" fill="white"/>
<path d="M44.0456 41.7412V45.3834C44.0456 45.7239 43.7603 46 43.4084 46C43.0565 46 42.7712 45.7239 42.7712 45.3834V41.7412C42.7712 38.9052 40.3998 36.6102 37.4689 36.6103C36.0822 36.6103 34.8241 35.9267 34.1032 34.7815C33.9201 34.4907 34.0153 34.1113 34.3159 33.9342C34.6164 33.757 35.0084 33.8492 35.1915 34.14C35.6791 34.9147 36.5305 35.3771 37.4689 35.3771C41.1038 35.377 44.0456 38.2235 44.0456 41.7412ZM32.9265 35.5604C33.0014 35.8932 32.7834 36.2216 32.4396 36.2942C30.7627 36.6477 29.0573 36.2938 27.6994 35.3969C26.3551 36.7909 24.5791 36.6103 24.8169 36.6103C21.8863 36.6102 19.5146 38.905 19.5146 41.7412V45.3834C19.5146 45.7239 19.2293 46 18.8774 46C18.5255 46 18.2402 45.7239 18.2402 45.3834V41.7412C18.2402 38.2238 21.1815 35.3771 24.8167 35.3771C26.2871 35.3771 27.4792 34.2307 27.4792 32.8074V32.645C24.698 31.3581 22.7459 28.6538 22.6269 25.5047C21.4824 25.2384 20.6296 24.2471 20.6296 23.0676V19.8712C20.5948 18.3066 20.8349 14.3879 23.7874 11.6338C27.4333 8.23288 33.2799 8.44892 37.5791 10.4517C37.9981 10.647 38.0618 11.1949 37.7138 11.4786C39.8917 11.9927 41.7698 13.2883 42.9763 15.1425C43.0386 15.238 43.1527 15.3879 43.1229 15.6271C43.1044 15.7759 43.0586 15.9018 42.9401 16.0182C42.1635 16.7803 41.7359 17.7902 41.7359 18.8619V23.0678C41.7359 23.4083 41.4506 23.6844 41.0988 23.6844C40.7469 23.6844 40.4616 23.4083 40.4616 23.0678V18.8619C40.4616 17.6259 40.898 16.4527 41.6994 15.5102C40.4778 13.8195 38.5719 12.7322 36.4163 12.5088L35.2964 12.3928C34.6416 12.3249 34.5131 11.4519 35.1217 11.2095L35.631 11.0066C28.9976 8.76877 21.9039 11.2552 21.9039 19.8645V23.0676C21.9039 23.5569 22.1951 23.9821 22.6207 24.1957V20.1984C22.6207 17.8186 24.6216 15.8823 27.0809 15.8823H35.2048C37.6642 15.8823 39.665 17.8184 39.665 20.1982V25.2467C39.665 30.609 34.25 34.682 28.7399 33.1123C28.7041 33.5522 28.5909 33.9767 28.4065 34.3713C29.4784 35.0837 30.832 35.371 32.1682 35.0892C32.5121 35.0168 32.8515 35.2277 32.9265 35.5604ZM31.1429 32.2135C35.1394 32.2135 38.3907 29.0672 38.3907 25.1999V20.1982C38.3907 18.4984 36.9615 17.1155 35.2048 17.1155H27.0809C25.3242 17.1155 23.895 18.4985 23.895 20.1984V25.1999C23.895 29.0672 27.1464 32.2135 31.1429 32.2135Z" fill="white"/>
<path d="M45.903 41.7412V45.3834C45.903 45.7239 45.6177 46 45.2658 46C44.914 46 44.6287 45.7239 44.6287 45.3834V41.7412C44.6287 38.9052 42.2572 36.6102 39.3264 36.6103C37.9396 36.6103 36.6815 35.9267 35.9606 34.7815C35.7776 34.4907 35.8727 34.1113 36.1733 33.9342C36.4738 33.757 36.8659 33.8492 37.049 34.14C37.5366 34.9147 38.3879 35.3771 39.3264 35.3771C42.9612 35.377 45.903 38.2235 45.903 41.7412ZM34.7839 35.5604C34.8588 35.8932 34.6409 36.2216 34.297 36.2942C32.6201 36.6477 30.9147 36.2938 29.5568 35.3969C28.2125 36.7909 26.4366 36.6103 26.6743 36.6103C23.7437 36.6102 21.372 38.905 21.372 41.7412V45.3834C21.372 45.7239 21.0867 46 20.7348 46C20.3829 46 20.0977 45.7239 20.0977 45.3834V41.7412C20.0977 38.2238 23.0389 35.3771 26.6741 35.3771C28.1446 35.3771 29.3366 34.2307 29.3366 32.8074V32.645C26.5555 31.3581 24.6033 28.6538 24.4843 25.5047C23.3398 25.2384 22.487 24.2471 22.487 23.0676V19.8712C22.4522 18.3066 22.6923 14.3879 25.6449 11.6338C29.2907 8.23288 35.1374 8.44892 39.4365 10.4517C39.8555 10.647 39.9192 11.1949 39.5712 11.4786C41.7491 11.9927 43.6272 13.2883 44.8338 15.1425C44.896 15.238 45.0101 15.3879 44.9803 15.6271C44.9618 15.7759 44.916 15.9018 44.7975 16.0182C44.021 16.7803 43.5933 17.7902 43.5933 18.8619V23.0678C43.5933 23.4083 43.3081 23.6844 42.9562 23.6844C42.6043 23.6844 42.319 23.4083 42.319 23.0678V18.8619C42.319 17.6259 42.7554 16.4527 43.5569 15.5102C42.3353 13.8195 40.4293 12.7322 38.2738 12.5088L37.1539 12.3928C36.499 12.3249 36.3705 11.4519 36.9791 11.2095L37.4884 11.0066C30.855 8.76877 23.7613 11.2552 23.7613 19.8645V23.0676C23.7613 23.5569 24.0525 23.9821 24.4781 24.1957V20.1984C24.4781 17.8186 26.479 15.8823 28.9383 15.8823H37.0623C39.5216 15.8823 41.5225 17.8184 41.5225 20.1982V25.2467C41.5225 30.609 36.1075 34.682 30.5974 33.1123C30.5615 33.5522 30.4483 33.9767 30.264 34.3713C31.3358 35.0837 32.6894 35.371 34.0257 35.0892C34.3695 35.0168 34.709 35.2277 34.7839 35.5604ZM33.0003 32.2135C36.9968 32.2135 40.2481 29.0672 40.2481 25.1999V20.1982C40.2481 18.4984 38.8189 17.1155 37.0623 17.1155H28.9383C27.1816 17.1155 25.7525 18.4985 25.7525 20.1984V25.1999C25.7525 29.0672 29.0038 32.2135 33.0003 32.2135Z" fill="#009A34"/>
<g clip-path="url(#clip1_4979_273699)">
<path d="M33.4227 1C18.8536 1 7 12.8536 7 27.4227C7 41.9927 18.8536 53.8455 33.4227 53.8455C47.9927 53.8455 59.8455 41.9927 59.8455 27.4227C59.8455 12.8536 47.9927 1 33.4227 1ZM33.4227 48.9675C21.5431 48.9675 11.878 39.3025 11.878 27.4228C11.878 15.5432 21.5431 5.87805 33.4227 5.87805C45.3024 5.87805 54.9674 15.5431 54.9674 27.4227C54.9674 39.3024 45.3024 48.9675 33.4227 48.9675Z" fill="#009A34"/>
<path d="M66.2849 56.8366L52.3012 42.8528C51.3483 41.9 49.8052 41.9 48.8523 42.8528C47.8995 43.8048 47.8995 45.3496 48.8523 46.3016L62.8361 60.2854C63.3125 60.7618 63.9361 61 64.5605 61C65.1841 61 65.8084 60.7618 66.2849 60.2854C67.2378 59.3334 67.2378 57.7886 66.2849 56.8366Z" fill="#009A34"/>
<circle cx="33.5" cy="27.5" r="20.5" stroke="white" stroke-width="2"/>
<circle cx="15" cy="41" r="14" fill="white"/>
<path d="M14.8285 34.7642C15.1521 34.7642 15.4144 34.5019 15.4144 34.1783C15.4144 33.8547 15.1521 33.5923 14.8285 33.5923H13.0515V32.9809C13.0515 32.6573 12.7891 32.395 12.4655 32.395C12.1419 32.395 11.8796 32.6573 11.8796 32.9809V33.5923H10.1026C9.779 33.5923 9.51666 33.8547 9.51666 34.1783C9.51666 34.5019 9.779 34.7642 10.1026 34.7642H11.8796V35.4023C11.7132 35.6903 11.2848 36.4076 10.8278 36.9745C10.3306 37.5914 9.76201 38.0121 9.75701 38.0158C9.49568 38.2066 9.43854 38.5732 9.6294 38.8345C9.82022 39.0958 10.1867 39.153 10.4481 38.9621C10.8564 38.6638 11.42 38.1336 11.8796 37.532V38.4889C11.8796 38.8125 12.1419 39.0749 12.4655 39.0749C12.7891 39.0749 13.0515 38.8125 13.0515 38.4889V37.532C13.5052 38.1259 14.0665 38.6578 14.4829 38.9622C14.7442 39.153 15.1108 39.0959 15.3017 38.8346C15.4925 38.5732 15.4354 38.2066 15.174 38.0158C15.1684 38.0117 14.6053 37.5975 14.1032 36.9746C13.6476 36.4092 13.2181 35.6906 13.0515 35.4022V34.7643H14.8285V34.7642Z" fill="#009A34"/>
<path d="M20.209 41.8391C20.1184 41.6258 19.9106 41.486 19.6789 41.4823C19.447 41.4772 19.2352 41.6119 19.1379 41.8222C17.4842 45.3977 17.9268 44.4407 17.064 46.3062C16.9282 46.5999 17.0562 46.9481 17.3499 47.0839C17.6437 47.2198 17.9918 47.0917 18.1276 46.7981L18.5404 45.9055H20.6636L21.0359 46.7813C21.1625 47.0793 21.5068 47.2179 21.8043 47.0914C22.1021 46.9648 22.2409 46.6207 22.1144 46.3229C21.5639 45.0279 22.0638 46.2042 20.209 41.8391ZM19.0824 44.7337L19.647 43.5131L20.1656 44.7337H19.0824Z" fill="#009A34"/>
<path d="M24.2282 40.1844L23.8878 37.5636C23.8386 37.1851 23.4461 36.9541 23.0917 37.094L19.2223 38.6205C18.8224 38.6205 18.5584 38.6132 18.1445 38.6654C18.6444 37.8191 18.9318 36.833 18.9318 35.781V35.6892C18.9318 32.5522 16.3798 30 13.243 30H11.6888C8.55199 30 6 32.5522 6 35.6892V35.781C6 37.015 6.40605 38.2245 7.14684 39.2068L7.48937 42.4771C7.50887 42.6631 7.61594 42.8286 7.77758 42.9226C7.86828 42.9754 7.97004 43.002 8.07215 43.002C8.15203 43.002 8.23211 42.9857 8.3073 42.9527L11.6918 41.4698H13.243C13.4854 41.4698 13.7241 41.4545 13.9586 41.4249C13.4584 42.2714 13.1708 43.2578 13.1708 44.3102C13.1708 45.8297 13.7626 47.2586 14.8373 48.3337C15.9123 49.4082 17.3411 50 18.8606 50H20.3102C23.4476 50 26 47.4476 26 44.3102C26 42.7411 25.367 41.2643 24.2282 40.1844ZM11.3366 40.346L8.57133 41.5576L8.29488 38.9181C8.28312 38.806 8.2393 38.6996 8.16859 38.6118C7.51652 37.8016 7.17188 36.8227 7.17188 35.781V35.6892C7.17188 33.1984 9.19816 31.1719 11.6888 31.1719H13.243C15.7336 31.1719 17.7599 33.1983 17.7599 35.6892V35.781C17.7599 38.2716 15.7336 40.2979 13.243 40.2979C11.4202 40.2979 11.4895 40.279 11.3366 40.346ZM20.3102 48.8281H18.8606C17.654 48.8281 16.5194 48.3582 15.6659 47.505C14.8126 46.6514 14.3427 45.5168 14.3427 44.3102C14.3427 41.819 16.3694 39.7923 18.8605 39.7923C19.3627 39.7923 19.4161 39.8038 19.5487 39.7514L22.8225 38.4599L23.0937 40.5479C23.1288 40.818 23.2861 40.8978 23.505 41.1154C24.3582 41.9687 24.8281 43.1033 24.8281 44.3102C24.8281 46.8014 22.8014 48.8281 20.3102 48.8281Z" fill="#009A34"/>
</g>
<g clip-path="url(#clip2_4979_273699)">
<circle cx="59" cy="12" r="14" fill="white"/>
<path d="M68.7939 5.08082C68.6113 4.82284 68.4207 4.57126 68.2179 4.32904C66.0153 1.68573 62.7005 0 58.9998 0C58.9929 0 58.9874 0.000492328 58.9815 0.000492328C58.9776 0.000492328 58.9746 0 58.9707 0C58.9574 0 58.9436 0.00147698 58.9294 0.00147698C55.2567 0.0226471 51.9709 1.70345 49.7811 4.32904C49.5793 4.57176 49.3877 4.82284 49.2051 5.08082C47.8187 7.03783 47 9.42414 47 12C47 14.5754 47.8182 16.9627 49.2051 18.9192C49.3877 19.1772 49.5793 19.4287 49.7811 19.671C51.9704 22.2965 55.2562 23.9774 58.9294 23.9985C58.9436 23.9985 58.9574 24 58.9707 24C58.9746 24 58.9776 23.9995 58.981 23.9995C58.987 23.9995 58.9924 24 58.9993 24C62.7005 24 66.0148 22.3148 68.2179 19.6715C68.4198 19.4292 68.6113 19.1772 68.7939 18.9192C70.1803 16.9622 70.999 14.5759 70.999 11.9995C70.999 9.42463 70.1803 7.03783 68.7939 5.08082ZM55.492 1.56068C54.3892 2.6246 53.4725 4.17986 52.8409 6.04628C51.9946 5.7302 51.2329 5.34963 50.5762 4.91934C51.8636 3.39017 53.5567 2.21252 55.492 1.56068ZM49.9982 5.67211C50.7446 6.17035 51.6071 6.60606 52.5607 6.96496C52.1492 8.46853 51.9128 10.1375 51.904 11.8986H47.9866C48.0078 9.58218 48.7536 7.43858 49.9982 5.67211ZM48.0235 12.8832H51.9232C51.9867 14.3573 52.2107 15.756 52.5597 17.0355C51.6056 17.3944 50.7436 17.8301 49.9982 18.3289C48.8949 16.7628 48.1835 14.9008 48.0235 12.8832ZM50.5792 19.0787C51.2359 18.6494 51.9955 18.2698 52.8399 17.9537C53.4715 19.8206 54.3887 21.3749 55.492 22.4388C53.5567 21.7875 51.8671 20.6074 50.5792 19.0787ZM58.5074 22.9799C56.487 22.7032 54.7432 20.631 53.7546 17.6465C55.1799 17.2192 56.7932 16.9602 58.5074 16.9184V22.9799ZM58.5074 15.9347C56.6996 15.978 54.9957 16.2572 53.4784 16.7229C53.1678 15.5433 52.9689 14.249 52.9093 12.8837H58.5074V15.9347ZM58.5074 11.8986H52.8886C52.8975 10.2449 53.1126 8.68269 53.4828 7.27858C54.9982 7.74284 56.7011 8.02248 58.5069 8.06532V11.8986H58.5074ZM58.5074 7.08164C56.7942 7.0398 55.1813 6.78182 53.7576 6.35448C54.7456 3.37146 56.4879 1.29728 58.5074 1.0201V7.08164ZM70.0114 11.8986H66.0374C66.0286 10.1449 65.7952 8.48281 65.3866 6.98466C66.3614 6.6223 67.2421 6.1797 68.0008 5.6726C69.2449 7.43907 69.9903 9.58218 70.0114 11.8986ZM67.4218 4.92032C66.7518 5.35899 65.9729 5.74547 65.1065 6.06499C64.4689 4.17297 63.5389 2.599 62.4189 1.53114C64.3901 2.17658 66.1142 3.36752 67.4218 4.92032ZM59.4921 1.02749C61.4904 1.33618 63.2115 3.40642 64.1893 6.36925C62.7788 6.78723 61.1842 7.04029 59.4921 7.08164V1.02749ZM59.4921 8.06581C61.2767 8.02347 62.9605 7.74973 64.4625 7.29531C64.8308 8.69549 65.0444 10.2517 65.0528 11.8991H59.4921V8.06581ZM59.4921 12.8832H65.0326C64.973 14.2421 64.7751 15.5305 64.4674 16.7067C62.9634 16.2508 61.2777 15.9775 59.4931 15.9347L59.4921 12.8832ZM59.4921 22.9725V16.9188C61.1852 16.9602 62.7798 17.2133 64.1922 17.6312C63.213 20.5951 61.4899 22.6638 59.4921 22.9725ZM62.4189 22.4694C63.5389 21.402 64.4709 19.829 65.1084 17.9365C65.9729 18.2555 66.7508 18.6415 67.4199 19.0792C66.1123 20.6315 64.3901 21.8234 62.4189 22.4694ZM68.0008 18.3289C67.2421 17.8218 66.3614 17.3782 65.3861 17.0163C65.7317 15.7422 65.9537 14.3499 66.0163 12.8837H69.975C69.815 14.9008 69.1056 16.7633 68.0008 18.3289Z" fill="#009A34"/>
</g>
</g>
<defs>
<clipPath id="clip0_4979_273699">
<rect width="71" height="61" fill="white"/>
</clipPath>
<clipPath id="clip1_4979_273699">
<rect width="66" height="63" fill="white" transform="translate(1 -2)"/>
</clipPath>
<clipPath id="clip2_4979_273699">
<rect width="26" height="28" fill="white" transform="translate(45 -2)"/>
</clipPath>
</defs>
</svg>
