<svg width="70" height="51" viewBox="0 0 70 51" fill="none" xmlns="http://www.w3.org/2000/svg">
<path d="M69.8776 3.22617C69.6477 2.35342 69.087 1.60939 68.3198 1.15831C67.5521 0.705008 66.6393 0.58239 65.7831 0.817085C64.9279 1.05233 64.1993 1.62437 63.7576 2.40779L63.2012 3.39651C62.6725 3.08636 61.9972 3.2689 61.688 3.80598L58.8617 8.72569L57.8935 8.15754C57.637 8.00607 57.3317 7.96501 57.0459 8.0438C56.7595 8.12314 56.5161 8.31511 56.3689 8.5781C56.0673 9.12129 56.251 9.8115 56.7807 10.1233L57.7489 10.6915L48.2907 27.4291L45.9539 33.8042L44.8412 35.9286C44.1897 37.086 44.2593 38.5247 45.0194 39.6105L42.5157 42.7464L41.8149 40.9516C41.4986 40.1515 40.7668 39.6033 39.9252 39.5362C39.083 39.4685 38.2762 39.8935 37.8421 40.6331L37.4416 41.3261L37.0635 36.7809C36.9766 35.7056 36.161 34.8412 35.1124 34.7113C34.0633 34.5821 33.0701 35.224 32.7348 36.2471L29.9976 44.6329C29.8063 45.226 30.1193 45.8652 30.6984 46.0649C30.8071 46.1165 30.9239 46.1476 31.0435 46.1553C31.5216 46.157 31.9475 45.8457 32.1008 45.383L34.8266 36.9973L35.2162 41.6101C35.2966 42.5944 35.9893 43.4128 36.9315 43.6358C37.8736 43.8589 38.8483 43.435 39.3444 42.5878L39.7562 41.8942L40.4462 43.6786C40.7391 44.4304 41.4014 44.9669 42.1854 45.0862C42.9694 45.2055 43.7562 44.8898 44.2517 44.2578L46.8444 40.9061C47.1313 40.9826 47.4269 41.0209 47.7235 41.0198C48.9161 41.0292 50.0234 40.3878 50.6276 39.3375L51.7403 37.44L55.9799 32.1791L65.538 15.2367L66.5062 15.8048C66.7643 15.9557 66.9523 16.2049 67.0289 16.4984C67.1061 16.7896 67.0659 17.1004 66.9181 17.3617L62.4672 25.2364C62.2993 25.495 62.2422 25.8124 62.3096 26.1153C62.377 26.4177 62.5622 26.679 62.823 26.8382C63.0795 26.9903 63.3848 27.0313 63.6706 26.9525C63.957 26.8732 64.2004 26.6812 64.3476 26.4182L68.7985 18.5435C69.2424 17.7595 69.3625 16.8274 69.1321 15.953C68.9017 15.0796 68.3416 14.3356 67.5744 13.8845L66.6062 13.3164L69.388 8.39612C69.6917 7.85626 69.513 7.16716 68.9876 6.8509L69.544 5.86219C69.9998 5.066 70.1204 4.11502 69.8776 3.22617V3.22617ZM65.6825 3.54409C65.8298 3.2811 66.0743 3.08858 66.3617 3.01034C66.6475 2.93822 66.9496 2.97872 67.2071 3.12408C67.4652 3.27444 67.6532 3.52412 67.7303 3.81707C67.801 4.10891 67.7613 4.4174 67.619 4.68039L67.0626 5.66911L65.1262 4.53281L65.6825 3.54409ZM50.5162 35.2701L49.9598 34.9405L48.313 33.9629L49.893 29.6452L53.398 31.713L50.5162 35.2701ZM47.178 38.5536C46.708 38.219 46.5635 37.5754 46.8444 37.0649L47.4008 36.0768L49.3366 37.2131L48.7803 38.1901C48.6243 38.4665 48.3625 38.6629 48.0577 38.7322C47.7529 38.801 47.4339 38.7367 47.178 38.5536ZM54.6667 29.8499L50.8167 27.5773L59.7185 11.8278L63.5685 14.1004L54.6667 29.8499ZM64.6812 12.1346L60.8312 9.86199L63.0567 5.93044L66.9067 8.20304L64.6812 12.1346Z" fill="#009A34"/>
<path d="M15.2268 37.9856L11.2883 41.9971L8.92917 39.588C8.49505 39.1474 7.79417 39.1474 7.36005 39.588C7.14924 39.8016 7.0308 40.0918 7.0308 40.3947C7.0308 40.6976 7.14924 40.9884 7.36005 41.2014L9.71916 43.6105C10.1364 44.0333 10.7004 44.2702 11.2883 44.2697C11.8794 44.273 12.4483 44.0361 12.8683 43.6105L16.796 39.588C17.1741 39.1369 17.1486 38.465 16.7378 38.0455C16.3265 37.6255 15.6686 37.5995 15.2268 37.9856Z" fill="#009A34"/>
<path d="M2.11926 41.042C2.11926 46.3767 6.35393 50.7005 11.5775 50.7005C16.801 50.7005 21.0356 46.3767 21.0356 41.042C21.0356 40.4144 20.5374 39.9057 19.9229 39.9057C19.3084 39.9057 18.8102 40.4144 18.8102 41.042C18.8102 45.1211 15.572 48.4279 11.5775 48.4279C7.58293 48.4279 4.34472 45.1211 4.34472 41.042C4.34472 36.9628 7.58293 33.656 11.5775 33.656C13.1433 33.6516 14.6673 34.1704 15.917 35.1335C16.4087 35.5103 17.1063 35.4082 17.4747 34.9061C17.8436 34.4039 17.7442 33.6921 17.2525 33.3154C14.3864 31.1204 10.5517 30.7676 7.34767 32.4032C4.14314 34.0394 2.11926 37.3839 2.11926 41.042Z" fill="#009A34"/>
<path d="M5.16406 18.5997L8.05469 9.70127H10.2266L6.13281 21.0763H4.21875L0.140625 9.70127H2.30469L5.16406 18.5997ZM13.7812 17.006H9.67969V15.4747H13.7812V17.006ZM20.0859 18.7794C20.0859 18.4408 19.9453 18.183 19.6641 18.006C19.388 17.8289 18.9271 17.6726 18.2812 17.5372C17.6354 17.4018 17.0964 17.2299 16.6641 17.0216C15.7161 16.5632 15.2422 15.8992 15.2422 15.0294C15.2422 14.3002 15.5495 13.6908 16.1641 13.2013C16.7786 12.7117 17.5599 12.4669 18.5078 12.4669C19.5182 12.4669 20.3333 12.7169 20.9531 13.2169C21.5781 13.7169 21.8906 14.3653 21.8906 15.1622H19.9922C19.9922 14.7976 19.8568 14.4955 19.5859 14.256C19.3151 14.0112 18.9557 13.8888 18.5078 13.8888C18.0911 13.8888 17.75 13.9851 17.4844 14.1778C17.224 14.3705 17.0938 14.6283 17.0938 14.9513C17.0938 15.2429 17.2161 15.4695 17.4609 15.631C17.7057 15.7924 18.2005 15.9565 18.9453 16.1231C19.6901 16.2846 20.2734 16.4799 20.6953 16.7091C21.1224 16.933 21.4375 17.2039 21.6406 17.5216C21.849 17.8393 21.9531 18.2247 21.9531 18.6778C21.9531 19.4382 21.638 20.0554 21.0078 20.5294C20.3776 20.9981 19.5521 21.2325 18.5312 21.2325C17.8385 21.2325 17.2214 21.1075 16.6797 20.8575C16.138 20.6075 15.7161 20.2638 15.4141 19.8263C15.112 19.3888 14.9609 18.9174 14.9609 18.4122H16.8047C16.8307 18.8601 17 19.2065 17.3125 19.4513C17.625 19.6908 18.0391 19.8106 18.5547 19.8106C19.0547 19.8106 19.4349 19.7169 19.6953 19.5294C19.9557 19.3367 20.0859 19.0867 20.0859 18.7794ZM25.6328 21.0763H23.7344V12.6231H25.6328V21.0763ZM23.6172 10.4278C23.6172 10.1362 23.7083 9.89397 23.8906 9.70127C24.0781 9.50856 24.3438 9.4122 24.6875 9.4122C25.0312 9.4122 25.2969 9.50856 25.4844 9.70127C25.6719 9.89397 25.7656 10.1362 25.7656 10.4278C25.7656 10.7143 25.6719 10.9539 25.4844 11.1466C25.2969 11.3341 25.0312 11.4278 24.6875 11.4278C24.3438 11.4278 24.0781 11.3341 23.8906 11.1466C23.7083 10.9539 23.6172 10.7143 23.6172 10.4278ZM27.375 16.7872C27.375 15.4747 27.6823 14.4278 28.2969 13.6466C28.9167 12.8601 29.737 12.4669 30.7578 12.4669C31.7214 12.4669 32.4792 12.8028 33.0312 13.4747L33.1172 12.6231H34.8281V20.8185C34.8281 21.9278 34.4818 22.8028 33.7891 23.4435C33.1016 24.0841 32.1719 24.4044 31 24.4044C30.3802 24.4044 29.7734 24.2742 29.1797 24.0138C28.5911 23.7586 28.1432 23.4226 27.8359 23.006L28.7344 21.8653C29.3177 22.558 30.0365 22.9044 30.8906 22.9044C31.5208 22.9044 32.0182 22.7325 32.3828 22.3888C32.7474 22.0502 32.9297 21.5502 32.9297 20.8888V20.3185C32.3828 20.9278 31.6536 21.2325 30.7422 21.2325C29.7526 21.2325 28.9427 20.8393 28.3125 20.0528C27.6875 19.2664 27.375 18.1778 27.375 16.7872ZM29.2656 16.9513C29.2656 17.8002 29.4375 18.4695 29.7812 18.9591C30.1302 19.4435 30.612 19.6856 31.2266 19.6856C31.9922 19.6856 32.5599 19.3575 32.9297 18.7013V14.9825C32.5703 14.3419 32.0078 14.0216 31.2422 14.0216C30.6172 14.0216 30.1302 14.269 29.7812 14.7638C29.4375 15.2586 29.2656 15.9877 29.2656 16.9513ZM38.5469 12.6231L38.6016 13.5997C39.2266 12.8445 40.0469 12.4669 41.0625 12.4669C42.8229 12.4669 43.7188 13.4747 43.75 15.4903V21.0763H41.8516V15.5997C41.8516 15.0632 41.7344 14.6674 41.5 14.4122C41.2708 14.1518 40.8932 14.0216 40.3672 14.0216C39.6016 14.0216 39.0312 14.3679 38.6562 15.0606V21.0763H36.7578V12.6231H38.5469Z" fill="#009A34"/>
</svg>
