<svg width="60" height="60" viewBox="0 0 60 60" fill="none" xmlns="http://www.w3.org/2000/svg">
<g clip-path="url(#clip0)">
<path d="M45.0198 0H2.70721C1.99052 0.000868332 1.30343 0.285117 0.796647 0.790398C0.289868 1.29568 0.00477716 1.98074 0.00390625 2.69531V57.3047C0.00477716 58.0193 0.289868 58.7043 0.796647 59.2096C1.30343 59.7149 1.99052 59.9991 2.70721 60H45.0198C45.7365 59.9991 46.4236 59.7149 46.9303 59.2096C47.4371 58.7043 47.7222 58.0193 47.7231 57.3047V2.69531C47.7222 1.98074 47.4371 1.29568 46.9303 0.790398C46.4236 0.285117 45.7365 0.000868332 45.0198 0V0ZM46.0776 57.3047C46.0772 57.5843 45.9656 57.8523 45.7673 58.0501C45.569 58.2478 45.3002 58.359 45.0198 58.3594H2.70721C2.42674 58.3591 2.15782 58.2479 1.9595 58.0502C1.76117 57.8525 1.64964 57.5843 1.64939 57.3047V2.69531C1.64964 2.41567 1.76117 2.14755 1.9595 1.94981C2.15782 1.75207 2.42674 1.64087 2.70721 1.64062H45.0198C45.3002 1.641 45.569 1.75224 45.7673 1.94995C45.9656 2.14766 46.0772 2.41571 46.0776 2.69531V57.3047Z" fill="#009A34"/>
<path d="M42.1987 4.6875H5.52782C5.30966 4.68762 5.10046 4.77409 4.94619 4.9279C4.79192 5.08171 4.7052 5.29029 4.70508 5.50781V49.8009C4.7052 50.0185 4.79192 50.227 4.94619 50.3809C5.10046 50.5347 5.30966 50.6211 5.52782 50.6213H42.1987C42.4169 50.6213 42.6262 50.5348 42.7805 50.381C42.9348 50.2271 43.0215 50.0185 43.0215 49.8009V5.50781C43.0215 5.29025 42.9348 5.0816 42.7805 4.92776C42.6262 4.77393 42.4169 4.6875 42.1987 4.6875ZM41.376 48.9806H6.35057V6.32813H41.376V48.9806Z" fill="#009A34"/>
<rect x="47.6514" y="19.7605" width="5.43251" height="16.3636" transform="rotate(30.636 47.6514 19.7605)" fill="white"/>
<path d="M11.1357 11.3793C10.7156 11.3793 10.375 11.7189 10.375 12.1378C10.375 12.557 10.7156 12.8963 11.1357 12.8963H26.3505C26.7706 12.8963 27.1113 12.557 27.1113 12.1378C27.1113 11.7189 26.7706 11.3793 26.3505 11.3793H11.1357Z" fill="#009A34"/>
<path d="M27.872 16.6889H11.1357C10.7156 16.6889 10.375 17.0285 10.375 17.4474C10.375 17.8666 10.7156 18.2058 11.1357 18.2058H27.872C28.2921 18.2058 28.6328 17.8666 28.6328 17.4474C28.6328 17.0285 28.2921 16.6889 27.872 16.6889Z" fill="#009A34"/>
<path d="M27.1113 21.9982C27.1113 21.5794 26.7707 21.2397 26.3505 21.2397H11.1357C10.7156 21.2397 10.375 21.5794 10.375 21.9982C10.375 22.4175 10.7156 22.7567 11.1357 22.7567H26.3505C26.7707 22.7567 27.1113 22.4175 27.1113 21.9982Z" fill="#009A34"/>
<path d="M34.7187 21.2397H29.3936C28.9734 21.2397 28.6328 21.5794 28.6328 21.9982C28.6328 22.4175 28.9734 22.7567 29.3936 22.7567H34.7187C35.1389 22.7567 35.4795 22.4175 35.4795 21.9982C35.4795 21.5794 35.1389 21.2397 34.7187 21.2397Z" fill="#009A34"/>
<path d="M18.7431 26.5492C19.1633 26.5492 19.5039 26.2099 19.5039 25.7907C19.5039 25.3718 19.1633 25.0322 18.7431 25.0322H11.1357C10.7156 25.0322 10.375 25.3718 10.375 25.7907C10.375 26.2099 10.7156 26.5492 11.1357 26.5492H18.7431Z" fill="#009A34"/>
<path d="M21.7861 26.5492H27.1113C27.5314 26.5492 27.872 26.2099 27.872 25.7907C27.872 25.3718 27.5314 25.0322 27.1113 25.0322H21.7861C21.366 25.0322 21.0254 25.3718 21.0254 25.7907C21.0254 26.2099 21.366 26.5492 21.7861 26.5492Z" fill="#009A34"/>
<path d="M26.7729 54.5454C26.7729 55.7755 25.7757 56.7727 24.5456 56.7727C23.3155 56.7727 22.3184 55.7755 22.3184 54.5454C22.3184 53.3154 23.3155 52.3182 24.5456 52.3182C25.7757 52.3182 26.7729 53.3154 26.7729 54.5454Z" fill="white" stroke="#009A34"/>
<path d="M59.89 7.40959C59.6835 6.64165 59.1797 5.98698 58.4904 5.59007C57.8006 5.19122 56.9804 5.08332 56.211 5.28983C55.4426 5.49683 54.7879 6.00016 54.391 6.6895L53.8911 7.55947C53.4161 7.28656 52.8092 7.44718 52.5314 7.91976L49.9918 12.2486L49.1219 11.7487C48.8914 11.6154 48.6171 11.5793 48.3603 11.6486C48.103 11.7184 47.8843 11.8873 47.752 12.1187C47.481 12.5967 47.646 13.204 48.122 13.4784L48.992 13.9783L40.4935 28.7058L38.3937 34.3152L37.3939 36.1845C36.8085 37.2029 36.871 38.4688 37.554 39.4242L35.3044 42.1834L34.6746 40.6041C34.3905 39.9001 33.7329 39.4178 32.9767 39.3587C32.22 39.2992 31.495 39.6731 31.1049 40.3239L30.7451 40.9337L30.4053 36.9343C30.3272 35.9882 29.5944 35.2276 28.6522 35.1134C27.7095 34.9996 26.8171 35.5645 26.5159 36.4647L24.0563 43.8433C23.8845 44.3652 24.1657 44.9276 24.6861 45.1034C24.7837 45.1488 24.8887 45.1761 24.9961 45.1829C25.4257 45.1844 25.8085 44.9105 25.9461 44.5034L28.3954 37.1247L28.7455 41.1836C28.8177 42.0497 29.4402 42.7698 30.2867 42.966C31.1332 43.1623 32.0091 42.7893 32.4548 42.0438L32.8248 41.4336L33.4448 43.0036C33.708 43.6651 34.3031 44.1372 35.0076 44.2422C35.712 44.3471 36.419 44.0694 36.8642 43.5133L39.1939 40.5641C39.4516 40.6315 39.7172 40.6652 39.9838 40.6642C41.0554 40.6725 42.0503 40.1081 42.5932 39.184L43.593 37.5143L47.4024 32.8852L55.9908 17.9776L56.8608 18.4775C57.0927 18.6103 57.2616 18.8295 57.3304 19.0878C57.3997 19.3441 57.3636 19.6175 57.2308 19.8474L53.2315 26.7764C53.0807 27.0039 53.0294 27.2832 53.0899 27.5497C53.1505 27.8158 53.3169 28.0457 53.5513 28.1858C53.7817 28.3196 54.0561 28.3557 54.3129 28.2864C54.5702 28.2166 54.7889 28.0477 54.9212 27.8163L58.9205 20.8873C59.3193 20.1974 59.4272 19.3773 59.2202 18.6079C59.0132 17.8395 58.5099 17.1848 57.8206 16.7879L56.9506 16.288L59.4502 11.9586C59.7231 11.4836 59.5625 10.8773 59.0904 10.599L59.5903 9.72902C59.9999 9.02845 60.1083 8.19168 59.89 7.40959ZM56.1207 7.68933C56.253 7.45792 56.4727 7.28852 56.7309 7.21968C56.9877 7.15621 57.2591 7.19185 57.4906 7.31976C57.7224 7.45206 57.8914 7.67175 57.9607 7.92952C58.0242 8.18631 57.9885 8.45775 57.8606 8.68916L57.3607 9.55912L55.6208 8.55929L56.1207 7.68933ZM42.4931 35.605L41.9932 35.315L40.5135 34.4548L41.9331 30.6556L45.0825 32.4751L42.4931 35.605ZM39.4936 38.4941C39.0713 38.1998 38.9415 37.6334 39.1939 37.1843L39.6938 36.3148L41.4332 37.3146L40.9333 38.1744C40.7932 38.4175 40.5579 38.5903 40.284 38.6513C40.0101 38.7119 39.7236 38.6552 39.4936 38.4941ZM46.2225 30.8358L42.7631 28.8361L50.7617 14.9781L54.2211 16.9778L46.2225 30.8358ZM55.2209 15.2481L51.7616 13.2484L53.7612 9.78907L57.2206 11.7887L55.2209 15.2481Z" fill="#009A34"/>
</g>
<defs>
<clipPath id="clip0">
<rect width="60" height="60" fill="white"/>
</clipPath>
</defs>
</svg>
