<svg width="60" height="60" viewBox="0 0 60 60" fill="none" xmlns="http://www.w3.org/2000/svg">
<path d="M58.5972 20.9461C58.5789 20.9337 58.5606 20.9214 58.5422 20.9094L51.482 16.2036H51.6888V8.96547C51.6888 8.39444 51.2258 7.93146 50.6548 7.93146H45.4847C44.9137 7.93146 44.4507 8.39444 44.4507 8.96547V11.5143L34.6845 5.00003C34.337 4.76816 33.8841 4.76816 33.5367 5.00003L9.67893 20.9094C8.20546 21.8698 7.78953 23.843 8.75 25.3164C9.71047 26.7899 11.6836 27.2058 13.1571 26.2454C13.1756 26.2334 13.1939 26.2211 13.212 26.2087L16.5324 23.9948L16.5442 35.3407H14.4762C14.4762 34.7697 14.0132 34.3067 13.4422 34.3067H5.17006C4.59903 34.3067 4.13605 34.7697 4.13605 35.3407H0C0 35.3407 0 36.0103 0 36.3747C0 36.7392 0 37.4087 0 37.4087H4.13605V47.7489H0V49.8169H4.13605C4.13605 50.3879 4.59903 50.8509 5.17006 50.8509H13.4422C14.0132 50.8509 14.4762 50.3879 14.4762 49.8169V49.4229L22.1961 52.6284C26.4049 54.3457 31.1094 54.3974 35.355 52.7731L51.3284 46.6838C52.2744 46.3241 53.0355 45.5984 53.4398 44.6706C53.859 43.7296 53.881 42.6593 53.5008 41.702C53.1627 40.8462 52.5221 40.1445 51.7006 39.7301L51.6888 23.9948L55.009 26.2087C56.4623 27.1995 58.4436 26.8247 59.4345 25.3715C60.4253 23.9182 60.0505 21.9369 58.5972 20.9461ZM12.4082 48.7829H6.20408V36.3747H12.4082V48.7829ZM46.5187 9.99949H49.6208V14.9627L46.5187 12.8947V9.99949ZM51.5486 43.8351C51.3653 44.2566 51.0204 44.5867 50.5911 44.7513L34.6177 50.8416C30.8642 52.279 26.7044 52.2339 22.983 50.7154L14.4762 47.1822V37.4087H17.0974C20.5261 37.4127 23.9071 38.2111 26.9753 39.7415C27.9889 40.2461 29.1054 40.5094 30.2376 40.5108H38.2585C39.115 40.5158 39.8055 41.2142 39.8004 42.0708C39.7963 42.7887 39.3 43.41 38.6007 43.5725C38.4653 43.5849 38.3319 43.6128 38.1944 43.6128H25.8503V45.6808H38.1944C38.2161 45.6808 38.2367 45.6808 38.2585 45.6808C38.2791 45.6808 38.2988 45.6746 38.3205 45.6746C39.141 45.6611 39.9513 45.4898 40.707 45.17L49.3524 41.4993C49.7642 41.3235 50.23 41.3235 50.6418 41.4993C51.0698 41.6811 51.4057 42.0288 51.5724 42.463C51.7485 42.9052 51.7399 43.3994 51.5486 43.8351ZM38.2585 38.4428H30.2376C29.4263 38.4413 28.6263 38.2528 27.8997 37.8916C25.0015 36.4475 21.8438 35.5978 18.6122 35.3924L18.6004 22.6144L34.1106 12.2743L49.6208 22.6144L49.6326 39.3341C49.2587 39.3657 48.8916 39.4536 48.5438 39.5946L41.8393 42.4423C41.8588 42.3163 41.8716 42.1892 41.8775 42.0618C41.8775 40.063 40.2572 38.4428 38.2585 38.4428ZM57.3035 24.5429V24.5398C56.9407 24.737 56.4981 24.7158 56.1557 24.485L34.6845 10.1732C34.337 9.94132 33.8841 9.94132 33.5367 10.1732L12.0654 24.4881C11.5515 24.8302 10.8577 24.6909 10.5156 24.177C10.3934 23.9934 10.3283 23.778 10.3283 23.5575C10.3276 23.1835 10.5144 22.834 10.8257 22.6268L34.1106 7.10425L57.3955 22.6299C57.7067 22.8373 57.8935 23.1866 57.8929 23.5606C57.8961 23.9726 57.6685 24.3518 57.3035 24.5429Z" fill="#009A34"/>
<path d="M10.3395 44.6468H8.27148V46.7149H10.3395V44.6468Z" fill="#009A34"/>
</svg>
