<svg width="42" height="18" viewBox="0 0 42 18" fill="none" xmlns="http://www.w3.org/2000/svg">
<path d="M5.25025 3.6C6.21625 3.6 7.00025 2.7936 7.00025 1.8C7.00025 0.8064 6.21625 0 5.25025 0H1.75025C0.784245 0 0.000244141 0.8064 0.000244141 1.8V16.2C0.000244141 17.1936 0.784245 18 1.75025 18C2.71625 18 3.50025 17.1936 3.50025 16.2V10.8H5.25025C6.21625 10.8 7.00025 9.9936 7.00025 9C7.00025 8.0064 6.21625 7.2 5.25025 7.2H3.50025V3.6H5.25025Z" fill="white"/>
<path d="M29.7502 3.6C30.7162 3.6 31.5002 2.7936 31.5002 1.8C31.5002 0.8064 30.7162 0 29.7502 0H26.2502C25.2842 0 24.5002 0.8064 24.5002 1.8V16.2C24.5002 17.1936 25.2842 18 26.2502 18H29.7502C30.7162 18 31.5002 17.1936 31.5002 16.2C31.5002 15.2064 30.7162 14.4 29.7502 14.4H28.0002V10.8H29.7502C30.7162 10.8 31.5002 9.9936 31.5002 9C31.5002 8.0064 30.7162 7.2 29.7502 7.2H28.0002V3.6H29.7502Z" fill="white"/>
<path d="M40.2503 10.8C41.2163 10.8 42.0003 9.9936 42.0003 9C42.0003 8.0064 41.2163 7.2 40.2503 7.2H38.5003V3.6H40.2503C41.2163 3.6 42.0003 2.7936 42.0003 1.8C42.0003 0.8064 41.2163 0 40.2503 0H36.7503C35.7843 0 35.0003 0.8064 35.0003 1.8V16.2C35.0003 17.1936 35.7843 18 36.7503 18H40.2503C41.2163 18 42.0003 17.1936 42.0003 16.2C42.0003 15.2064 41.2163 14.4 40.2503 14.4H38.5003V10.8H40.2503Z" fill="white"/>
<path d="M21.0003 5.4C21.0003 2.4228 18.6448 0 15.7503 0H12.2503C11.2843 0 10.5003 0.8064 10.5003 1.8V16.2C10.5003 17.1936 11.2843 18 12.2503 18C13.2163 18 14.0003 17.1936 14.0003 16.2V11.9988L17.8503 17.28C18.1933 17.7516 18.7183 18 19.2503 18C19.6143 18 19.9818 17.8848 20.2968 17.64C21.0703 17.0424 21.2278 15.9156 20.6468 15.12L17.3043 10.53C19.4358 9.846 21.0003 7.8192 21.0003 5.4ZM15.7503 7.2H14.0003V3.6H15.7503C16.7163 3.6 17.5003 4.4064 17.5003 5.4C17.5003 6.3936 16.7163 7.2 15.7503 7.2Z" fill="white"/>
</svg>
