<svg width="43" height="47" viewBox="0 0 43 47" fill="none" xmlns="http://www.w3.org/2000/svg">
<path d="M1.00024 16.5C1.00024 13.5 1.06531 12 3.28278 12C5.50024 12 5.50014 15 5.50014 16.5C5.50014 18 5.17411 22.1087 12.7393 25.8913C21.3817 30.2125 30.698 31.2506 34.0976 31.4934C34.9817 31.5565 35.8545 31.7665 36.55 32.3161C37.817 33.3175 39.8692 35.4114 41.1089 39.1304C43.0002 44.8044 43.0002 46.6957 43.0002 46.6957H7.06542C7.06542 46.6957 8.95672 37.2391 7.06542 33.4565C5.17411 29.6739 1.78273 24.7174 1.39151 22.1087C1.00028 19.5 1.00024 19.5 1.00024 16.5Z" fill="white"/>
<path d="M1.15014 1.9826C1.56436 1.9826 1.90014 2.31547 1.90014 2.72608V1.73479C1.90014 1.32418 2.23593 0.991313 2.65014 0.991313C3.06436 0.991313 3.40014 1.32418 3.40014 1.73479V0.743479C3.40014 0.33287 3.73593 0 4.15014 0C4.56436 0 4.90014 0.33287 4.90014 0.743479V1.73479C4.90014 1.32418 5.23593 0.991313 5.65014 0.991313C6.06436 0.991313 6.40014 1.32418 6.40014 1.73479V6.93915L8.13614 6.07869C8.30969 5.99265 8.50108 5.94786 8.69514 5.94783C9.08451 5.94783 9.40014 6.26072 9.40014 6.6467V6.64968C9.40054 6.83555 9.32622 7.01391 9.19364 7.14532L5.96064 10.3502C5.28136 11.0229 4.36031 11.4005 3.40014 11.4C1.7433 11.4 0.400144 10.0685 0.400144 8.42608V2.72608C0.400144 2.31547 0.73591 1.9826 1.15014 1.9826Z" fill="white"/>
<path d="M15.9995 6L18.9995 4.5L23.4995 3L32.4995 7.5V7.5C33.3953 8.39578 33.6174 9.76428 33.0508 10.8974L32.4995 12V16.5C32.4995 17.3284 31.8279 18 30.9995 18V18L29.4995 21V22.5L26.4995 25.5L21.9995 27L18.9995 25.5L15.9995 22.5L12.9995 13.5L15.9995 6Z" fill="white"/>
<path d="M19.3948 26.2074C16.7992 24.9443 14.9773 22.2901 14.8662 19.1992C13.7981 18.9379 13.0022 17.9649 13.0022 16.8073V13.67C12.9697 12.1343 13.1937 8.28823 15.9493 5.58507C19.352 2.24708 24.8086 2.45912 28.821 4.4248C29.2121 4.61656 29.2715 5.15426 28.9467 5.43272C30.9793 5.93728 32.7321 7.2089 33.8582 9.02881C33.9163 9.12254 34.0228 9.26967 33.995 9.5044C33.9777 9.65048 33.935 9.77408 33.8244 9.88831C33.0996 10.6363 32.7005 11.6275 32.7005 12.6794V16.8074C32.7005 17.1416 32.4343 17.4126 32.1059 17.4126C31.7775 17.4126 31.5112 17.1416 31.5112 16.8074V12.6794C31.5112 11.4662 31.9185 10.3147 32.6665 9.38972C31.5264 7.73034 29.7476 6.66311 27.7358 6.44389L26.6906 6.32996C26.0794 6.26339 25.9595 5.40654 26.5275 5.16863L27.0029 4.96946C20.8119 2.77305 14.1914 5.21349 14.1914 13.6634V16.8073C14.1914 17.2875 14.4632 17.7048 14.8604 17.9144V13.9912C14.8604 11.6553 16.7278 9.75495 19.0231 9.75495H26.6051C28.9004 9.75495 30.7678 11.6552 30.7678 13.9909V18.946C30.7678 24.2091 25.714 28.2067 20.5715 26.666C20.0771 26.5179 19.3948 26.2074 19.3948 26.2074ZM22.8141 25.7839C26.544 25.7839 29.5785 22.6958 29.5785 18.9V13.9909C29.5785 12.3226 28.2446 10.9653 26.6051 10.9653H19.0231C17.3836 10.9653 16.0498 12.3227 16.0498 13.9912V18.9C16.0498 22.6958 19.0842 25.7839 22.8141 25.7839Z" fill="#0084CC"/>
</svg>
