<svg width="46" height="46" viewBox="0 0 46 46" fill="none" xmlns="http://www.w3.org/2000/svg">
<path d="M23.0635 22.4996C21.9723 22.4996 21.0845 21.6118 21.0845 20.5207C21.0845 19.7235 21.5588 19.0077 22.2929 18.6967C23.179 18.3215 24.2395 18.6417 25.2031 19.5753C25.988 20.3357 27.2408 20.3159 28.0013 19.5311C28.7618 18.7461 28.7419 17.4933 27.9571 16.7328C27.0637 15.8673 26.0705 15.2555 25.0424 14.9102V12.6049C25.0424 11.512 24.1564 10.626 23.0635 10.626C21.9706 10.626 21.0845 11.512 21.0845 12.6049V14.923C20.9723 14.963 20.8604 15.0052 20.7494 15.0522C18.5487 15.9843 17.1267 18.1308 17.1267 20.5207C17.1267 23.7942 19.7899 26.4575 23.0635 26.4575C24.1546 26.4575 25.0424 27.3452 25.0424 28.4364C25.0424 29.2657 24.5193 30.0135 23.7408 30.297C22.7243 30.6671 21.541 30.1651 20.4945 28.919C19.7916 28.082 18.5435 27.9735 17.7065 28.6764C16.8695 29.3793 16.761 30.6276 17.4639 31.4644C18.5337 32.7382 19.779 33.6117 21.0847 34.0513V36.3522C21.0847 37.4451 21.9707 38.3311 23.0636 38.3311C24.1565 38.3311 25.0425 37.4451 25.0425 36.3522V34.0338C25.0602 34.0276 25.0779 34.0222 25.0954 34.0158C27.431 33.1651 29.0002 30.9229 29.0002 28.4364C29.0002 25.1629 26.337 22.4996 23.0635 22.4996Z" fill="white"/>
<path d="M39.4232 24.75V23.25C38.5948 23.25 37.9232 23.9216 37.9232 24.75H39.4232ZM43.5855 22.3684L44.6405 21.3022L43.5855 22.3684ZM23.0002 2L24.0553 0.933739C23.4708 0.35542 22.5297 0.35542 21.9452 0.933739L23.0002 2ZM6.57727 24.75H8.07727C8.07727 23.9216 7.40569 23.25 6.57727 23.25V24.75ZM2.415 22.3684L1.35997 21.3022H1.35997L2.415 22.3684ZM40.9232 42.25V24.75H37.9232V42.25H40.9232ZM44.6405 21.3022L24.0553 0.933739L21.9452 3.06626L42.5305 23.4347L44.6405 21.3022ZM39.4232 26.25H42.7078V23.25H39.4232V26.25ZM42.5305 23.4347C42.5194 23.4238 42.5059 23.3999 42.5015 23.3768C42.4999 23.3683 42.5002 23.3634 42.5004 23.3619C42.5005 23.3607 42.5006 23.3602 42.5009 23.3593C42.5012 23.3584 42.5031 23.3536 42.509 23.3453C42.5151 23.3369 42.5268 23.323 42.5469 23.3076C42.5676 23.2917 42.5948 23.2761 42.6273 23.2649C42.6603 23.2534 42.689 23.25 42.7078 23.25V26.25C44.0304 26.25 44.9582 25.3671 45.3159 24.3966C45.672 23.4303 45.5417 22.1939 44.6405 21.3022L42.5305 23.4347ZM37.7809 45.5C39.6047 45.5 40.9232 43.9537 40.9232 42.25H37.9232C37.9232 42.3497 37.8862 42.4207 37.8484 42.461C37.8122 42.4996 37.7882 42.5 37.7809 42.5V45.5ZM8.07727 42.25V24.75H5.07727V42.25H8.07727ZM3.47003 23.4347L24.0553 3.06626L21.9452 0.933739L1.35997 21.3022L3.47003 23.4347ZM6.57727 23.25H3.29267V26.25H6.57727V23.25ZM1.35997 21.3022C0.458784 22.1939 0.328516 23.4303 0.684623 24.3966C1.04226 25.3671 1.97006 26.25 3.29267 26.25V23.25C3.31147 23.25 3.34016 23.2534 3.37324 23.2649C3.40564 23.2761 3.43287 23.2917 3.45357 23.3076C3.47367 23.323 3.48544 23.3369 3.49149 23.3453C3.49741 23.3536 3.49924 23.3584 3.49956 23.3593C3.49989 23.3602 3.50003 23.3607 3.50014 23.3619C3.50027 23.3634 3.50055 23.3683 3.49895 23.3768C3.4946 23.3999 3.48106 23.4238 3.47003 23.4347L1.35997 21.3022ZM8.21956 42.5C8.21225 42.5 8.18828 42.4996 8.15207 42.461C8.11432 42.4207 8.07727 42.3497 8.07727 42.25H5.07727C5.07727 43.9537 6.39579 45.5 8.21956 45.5V42.5ZM19.7156 45.5H37.7809V42.5H19.7156V45.5ZM26.2848 42.5H8.21956V45.5H26.2848V42.5Z" fill="white"/>
</svg>
