<svg width="42" height="42" viewBox="0 0 42 42" fill="none" xmlns="http://www.w3.org/2000/svg">
<path d="M21.0002 26.0039C20.3217 26.0039 19.7698 25.4519 19.7698 24.7734C19.7698 24.2778 20.0647 23.8327 20.5211 23.6394C21.0721 23.4061 21.7314 23.6051 22.3306 24.1856C22.8187 24.6584 23.5977 24.6461 24.0705 24.1581C24.5434 23.67 24.531 22.8911 24.043 22.4182C23.4875 21.88 22.87 21.4997 22.2307 21.285V19.8516C22.2307 19.172 21.6798 18.6211 21.0002 18.6211C20.3207 18.6211 19.7698 19.172 19.7698 19.8516V21.2929C19.7 21.3178 19.6304 21.344 19.5614 21.3732C18.193 21.9528 17.3088 23.2874 17.3088 24.7734C17.3088 26.8089 18.9648 28.4648 21.0002 28.4648C21.6787 28.4648 22.2307 29.0168 22.2307 29.6953C22.2307 30.211 21.9054 30.6759 21.4214 30.8522C20.7893 31.0823 20.0536 30.7702 19.4029 29.9954C18.9659 29.475 18.1898 29.4075 17.6694 29.8445C17.149 30.2816 17.0814 31.0578 17.5185 31.5781C18.1837 32.3701 18.958 32.9132 19.7698 33.1866V34.6172C19.7698 35.2967 20.3208 35.8477 21.0003 35.8477C21.6799 35.8477 22.2308 35.2967 22.2308 34.6172V33.1757C22.2418 33.1718 22.2528 33.1684 22.2637 33.1645C23.7159 32.6356 24.6916 31.2414 24.6916 29.6953C24.6916 27.6599 23.0357 26.0039 21.0002 26.0039Z" fill="white"/>
<path d="M32.3957 18.4783C30.9332 16.6791 29.2614 15.2457 27.4262 14.2149C27.7268 13.8593 27.964 13.4423 28.1171 12.9776C28.7181 11.1476 27.8403 8.97373 25.5997 8.26555L28.7406 2.78873C29.1369 2.09754 28.7809 1.21718 28.0168 0.995039C25.7458 0.33477 23.3851 0 21 0C18.6149 0 16.2542 0.33477 13.9832 0.995039C13.2182 1.21743 12.8636 2.09836 13.2594 2.78873L16.4003 8.26563C14.1686 8.9702 13.2797 11.1408 13.8832 12.9786C14.0359 13.4421 14.2729 13.8588 14.5744 14.2145C12.739 15.2453 11.067 16.6789 9.60438 18.4783C6.68071 22.0751 5.00391 26.612 5.00391 30.9258C5.00391 39.8747 12.1445 42 21 42C29.8618 42 36.9961 39.871 36.9961 30.9258C36.9961 26.612 35.3193 22.0751 32.3957 18.4783ZM16.2008 2.97101C17.7707 2.63214 19.3789 2.46094 21 2.46094C22.6211 2.46094 24.2293 2.63214 25.7992 2.97101L23.0894 7.69617C21.7015 7.50241 20.2989 7.5025 18.9107 7.69625L16.2008 2.97101ZM17.0047 10.6555C19.1224 9.96089 21.3379 9.82923 23.4918 10.2598C23.4943 10.2603 23.4969 10.2608 23.4995 10.2613C24.0015 10.362 24.5002 10.4931 24.9935 10.655C25.6384 10.8675 25.9908 11.565 25.7794 12.2087C25.6257 12.6749 25.2201 12.996 24.7429 13.048C23.5161 12.6638 22.2647 12.4688 21 12.4688C19.7379 12.4688 18.4889 12.663 17.2645 13.0456C16.7799 12.9957 16.3733 12.6724 16.2209 12.2099C16.0092 11.565 16.3616 10.8674 17.0047 10.6555ZM21 39.5555C11.3863 39.5555 7.46484 37.0437 7.46484 30.9258C7.46484 27.2227 8.97857 23.1498 11.5139 20.0306C14.1877 16.7412 17.5566 14.9297 21 14.9297C24.7903 14.9297 28.1056 17.102 30.4861 20.0306C33.0214 23.1498 34.5352 27.2227 34.5352 30.9258C34.5352 37.0437 30.6137 39.5555 21 39.5555Z" fill="white"/>
</svg>
