<svg width="42" height="42" viewBox="0 0 42 42" fill="none" xmlns="http://www.w3.org/2000/svg">
<g clip-path="url(#clip0_5121_32558)">
<path d="M0.623194 17.9883L6.89152 21.0078V26.0343C6.89152 26.457 7.13365 26.8424 7.51447 27.0259L19.5063 32.8024C19.6552 32.8741 19.8185 32.9113 19.9839 32.9113H21.999C22.1645 32.9113 22.3276 32.8741 22.4768 32.8024L34.4354 27.0417C34.6672 26.9299 34.8526 26.7406 34.9593 26.5065C34.9743 26.4735 34.9887 26.4401 35.003 26.4066C35.0614 26.27 35.0915 26.1228 35.0915 25.9743V21.0077L36.8014 20.1841V27.0002C36.4314 27.2468 36.1462 27.6163 36.008 28.0664L35.0352 31.2363C34.9153 31.6273 34.9186 32.0397 35.0448 32.4287L35.9469 35.2091C36.2042 36.0022 36.9371 36.5522 37.7704 36.5779C37.7759 36.578 37.7814 36.5781 37.7869 36.5782L37.8144 36.5787C37.8201 36.5787 37.8258 36.5787 37.8316 36.5787C38.6508 36.5787 39.3743 36.0862 39.6746 35.3238L40.7177 32.6759C40.8787 32.2677 40.899 31.8109 40.7749 31.39L39.8024 28.0879C39.6668 27.6274 39.3792 27.2494 39.0026 26.9989V19.1239L41.3773 17.9799C41.7581 17.7964 42.0002 17.4111 42.0002 16.9883V16.1118C42.0002 15.6891 41.7581 15.3037 41.3773 15.1202L21.4691 5.53041C21.1671 5.38504 20.8156 5.38504 20.5137 5.53041L0.623194 15.1118C0.24238 15.2952 0.000244141 15.6806 0.000244141 16.1034V16.9968C0.000244141 17.4195 0.24238 17.8048 0.623194 17.9883ZM37.8514 33.9466L37.16 31.8156L37.8975 29.4123L38.642 31.9397L37.8514 33.9466ZM32.8902 25.3428L21.7477 30.7102H20.2351L9.09275 25.3428V22.0682L20.5138 27.5699C20.6647 27.6426 20.8281 27.6789 20.9915 27.6789C21.1549 27.6789 21.3181 27.6426 21.4692 27.5699L32.8903 22.0683L32.8902 25.3428ZM20.9914 7.74363L39.2733 16.5501L33.659 19.2545C33.6095 19.2702 33.5607 19.2886 33.5132 19.3114L20.9914 25.3433L8.46972 19.3114C8.42226 19.2886 8.37348 19.2702 8.32408 19.2545L2.7097 16.55L20.9914 7.74363Z" fill="white"/>
</g>
<defs>
<clipPath id="clip0_5121_32558">
<rect width="42" height="42" fill="white" transform="translate(0.000244141)"/>
</clipPath>
</defs>
</svg>
