<svg width="34" height="32" viewBox="0 0 34 32" fill="none" xmlns="http://www.w3.org/2000/svg">
<path d="M19.8894 6.3334L21.556 2.36673L23.7782 1.2334H26.556L28.7782 1.80007L30.4449 2.9334L32.1116 4.6334L31.556 6.3334L29.3338 13.1334L27.6672 14.8334V16.5334L31.556 18.2334L32.6672 21.0667V22.2001V23.3334H31.556H26.556H21.556H19.056H18.2227V21.6334V18.8001L20.4449 17.6667L22.6672 17.1001L23.7782 15.4001L21.556 13.1334L20.4449 10.3001L19.3338 9.7334L19.8894 6.3334Z" fill="#009A34"/>
<path d="M33.1643 20.7243V22.9556C33.1643 23.1642 32.9937 23.3333 32.7831 23.3333C32.5726 23.3333 32.4019 23.1642 32.4019 22.9556V20.7243C32.4019 18.987 30.9831 17.5811 29.2296 17.5811C28.3999 17.5811 27.0979 16.1397 26.6667 15.4381C26.5571 15.26 26.7641 14.9961 26.9439 14.8875C27.1237 14.779 27.2083 14.867 27.3178 15.0452C27.6095 15.5197 28.6681 16.8257 29.2296 16.8257C31.4043 16.8255 33.1643 18.5693 33.1643 20.7243ZM27.6271 16.4607C27.6719 16.6646 28.0623 16.7812 27.8565 16.8257C26.3333 17.5811 24.197 17.3872 23.3845 16.8377C22.5803 17.6917 21.5177 17.5811 21.66 17.5811C19.9067 17.5811 18.4877 18.9869 18.4877 20.7243V22.9556C18.4877 23.1642 18.317 23.3333 18.1065 23.3333C17.8959 23.3333 17.7253 23.1642 17.7253 22.9556V20.7243C17.7253 18.5695 19.485 16.8257 21.6599 16.8257C22.5397 16.8257 23.2529 16.1233 23.2529 15.2513V15.1519C21.5889 14.3635 20.4209 12.7069 20.3498 10.7777C19.665 10.6145 19.1548 10.0072 19.1548 9.28467V7.32647C19.134 6.368 19.2776 3.9674 21.0441 2.2802C23.2253 0.196736 26.7234 0.329069 29.2955 1.556C29.5462 1.67567 29.5843 2.01127 29.3761 2.18507C30.6791 2.5 31.8027 3.29374 32.5247 4.42967C32.5619 4.48814 32.6301 4.58 32.6123 4.72647C32.6013 4.81767 32.5739 4.8948 32.5029 4.96614C32.0383 5.433 31.7825 6.05167 31.7825 6.7082V9.28474C31.7825 9.4934 31.6118 9.66247 31.4013 9.66247C31.1908 9.66247 31.0201 9.4934 31.0201 9.28474V6.7082C31.0201 5.951 31.2812 5.23227 31.7607 4.65494C31.0298 3.6192 29.8895 2.95307 28.5999 2.8162L27.9298 2.74514C27.538 2.70354 27.4612 2.16874 27.8253 2.02027L28.13 1.89594C24.1613 0.525002 19.9172 2.04827 19.9172 7.3224V9.28467C19.9172 9.5844 20.0914 9.84487 20.3461 9.97574V7.52694C20.3461 6.069 21.5431 4.88287 23.0145 4.88287H27.875C29.3464 4.88287 30.5435 6.06894 30.5435 7.5268V10.6196C30.5435 13.9046 27.3038 16.3998 24.0071 15.4381C23.9857 15.7077 23.918 15.9677 23.8077 16.2095C24.4489 16.6459 26.6667 16.6667 27.2159 16.2095C27.4216 16.1651 27.5822 16.2569 27.6271 16.4607ZM25.4448 14.8875C27.8359 14.8875 29.7811 12.9601 29.7811 10.5909V7.5268C29.7811 6.48554 28.926 5.63834 27.875 5.63834H23.0145C21.9635 5.63834 21.1085 6.48554 21.1085 7.52694V10.5909C21.1085 12.9601 23.0537 14.8875 25.4448 14.8875Z" fill="white"/>
<path d="M20.1967 18.0341C19.9455 17.4433 19.6605 16.7738 19.6758 15.7015C19.6964 14.2527 19.3789 13.5934 19.072 12.9557C18.9289 12.6587 18.7939 12.3781 18.6922 12.0128C18.5433 11.4783 18.5382 11.0192 18.5327 10.5331C18.5263 9.96833 18.5197 9.38433 18.2991 8.64306C18.1407 8.11066 17.9327 7.7572 17.7317 7.41546C17.4479 6.933 17.1798 6.47733 17.0641 5.48433C16.8553 3.69146 15.7455 2.5302 14.8511 1.87173C13.8569 1.13973 12.6071 0.666664 11.6671 0.666664C11.2205 0.666664 10.841 0.769931 10.5393 0.973464C10.4123 1.05926 10.2545 1.05926 10.1275 0.973464C9.82567 0.769931 9.44627 0.666664 8.99974 0.666664C8.05974 0.666664 6.80987 1.13973 5.81561 1.87173C4.92134 2.5302 3.81141 3.69146 3.60257 5.48433C3.4869 6.47733 3.21885 6.933 2.93503 7.41546C2.73399 7.7572 2.52605 8.11066 2.36759 8.64306C2.14697 9.38433 2.14037 9.9684 2.13399 10.5331C2.12853 11.0192 2.12332 11.4783 1.97453 12.0128C1.87284 12.3781 1.73773 12.6587 1.59476 12.9557C1.28777 13.5933 0.970321 14.2527 0.990941 15.7015C1.00617 16.7739 0.721321 17.4434 0.469974 18.0341C0.184734 18.7047 -0.0846656 19.3379 0.225361 20.2691C0.567934 21.298 1.57371 21.9195 2.00565 22.1458V23.0013C2.00565 23.1847 2.1514 23.3333 2.33117 23.3333C2.51095 23.3333 2.65669 23.1847 2.65669 23.0013V20.2493C2.65669 19.926 2.74229 19.6173 2.89441 19.3495L4.43227 20.6939C4.66887 20.9008 4.80454 21.2018 4.80454 21.5197V23.0013C4.80454 23.1847 4.95034 23.3333 5.13007 23.3333C5.30987 23.3333 5.45561 23.1847 5.45561 23.0013V21.5197C5.45561 21.0077 5.23701 20.5229 4.85594 20.1897L3.31881 18.8459C3.47011 18.7222 3.64272 18.6227 3.83227 18.5544L5.90314 17.8089C7.30414 19.6812 8.75321 20.9348 10.2116 21.5348C10.2507 21.5509 10.292 21.5589 10.3334 21.5589C10.3747 21.5589 10.4161 21.5509 10.4552 21.5348C11.3426 21.1697 12.2406 20.5501 13.1243 19.6931C13.2545 19.5668 13.2597 19.3566 13.1359 19.2237C13.012 19.0908 12.8059 19.0855 12.6757 19.2119C11.8929 19.9709 11.1055 20.5273 10.3334 20.8671C8.79394 20.1892 7.46001 18.7619 6.54961 17.5761L7.42567 17.2607C8.11101 17.0141 8.57141 16.3503 8.57141 15.6091V14.478C9.11781 14.6962 9.71214 14.8161 10.3334 14.8161C10.9547 14.8161 11.549 14.6962 12.0955 14.478V15.6091C12.0955 16.3503 12.5559 17.014 13.2411 17.2607L14.1169 17.5761C13.9351 17.8131 13.7511 18.0417 13.5671 18.2575C13.4491 18.3959 13.4634 18.6057 13.5991 18.726C13.6607 18.7807 13.7368 18.8075 13.8125 18.8075C13.9035 18.8075 13.994 18.7689 14.0583 18.6933C14.2951 18.4157 14.5314 18.1182 14.7631 17.8087L16.8345 18.5544C17.0308 18.6251 17.2091 18.7292 17.3641 18.859L15.842 20.1898C15.4609 20.5229 15.2423 21.0077 15.2423 21.5197V23.0013C15.2423 23.1847 15.388 23.3333 15.5679 23.3333C15.7477 23.3333 15.8933 23.1847 15.8933 23.0013V21.5197C15.8933 21.2017 16.0291 20.9008 16.2657 20.6939L17.7827 19.3677C17.9284 19.6312 18.0101 19.9333 18.0101 20.2493V23.0013C18.0101 23.1847 18.1559 23.3333 18.3357 23.3333C18.5155 23.3333 18.6612 23.1847 18.6612 23.0013V22.1458C19.0931 21.9195 20.0989 21.298 20.4415 20.2691C20.7515 19.3379 20.482 18.7046 20.1967 18.0341ZM19.8249 20.0555C19.6187 20.6749 19.0633 21.1245 18.6611 21.3811V20.2493C18.6611 19.2077 18.0141 18.2749 17.0512 17.9282L13.4577 16.6346C13.0323 16.4814 12.7464 16.0693 12.7464 15.6091V14.1591C14.2007 13.3043 15.1819 11.7022 15.1819 9.87073V8.6948C15.2058 8.71206 15.2295 8.7292 15.253 8.74606C15.9527 9.24933 16.4149 9.58186 16.5035 10.7249C16.5169 10.8988 16.6594 11.0307 16.8276 11.0307C16.8361 11.0307 16.8449 11.0304 16.8536 11.0297C17.0328 11.0153 17.1666 10.8554 17.1525 10.6726C17.0399 9.2188 16.3542 8.7256 15.6283 8.2034C15.111 7.83133 14.5762 7.44653 14.0889 6.649C13.2997 5.3574 12.4385 5.13606 11.7465 4.95826C11.4118 4.8722 11.1269 4.79866 10.8787 4.6216C10.7402 4.52286 10.6589 4.3602 10.6589 4.18786V3.4968C10.6589 3.315 10.5216 3.1564 10.3434 3.151C10.1591 3.14533 10.0079 3.29606 10.0079 3.48286V4.1878C10.0079 4.36013 9.92661 4.5228 9.78814 4.62153C9.53981 4.79866 9.25494 4.8722 8.92027 4.9582C8.22827 5.13606 7.36701 5.3574 6.57794 6.649C6.09061 7.44653 5.55581 7.83126 5.03854 8.20333C4.31261 8.72553 3.62687 9.2188 3.51437 10.6726C3.50023 10.8554 3.63404 11.0153 3.81327 11.0297C3.99274 11.0444 4.14921 10.9076 4.16341 10.7248C4.25187 9.5818 4.71407 9.24926 5.41374 8.74593C5.93047 8.37426 6.57354 7.91173 7.13047 7.00013C7.78074 5.9358 8.41154 5.77373 9.07941 5.602C9.50527 5.49253 9.94294 5.38006 10.3334 5.02886C10.7239 5.38013 11.1615 5.4926 11.5875 5.602C12.2553 5.77373 12.8861 5.9358 13.5364 7.00013C13.8531 7.51853 14.1976 7.89153 14.5309 8.18533V9.816C14.5309 12.1731 12.6857 14.1289 10.3749 14.1518C8.04147 14.1749 6.13601 12.2455 6.13601 9.8706V9.7514C6.13601 9.5696 5.99867 9.41106 5.82047 9.4056C5.63614 9.4 5.48494 9.55066 5.48494 9.73746V9.8706C5.48494 11.7021 6.46607 13.3042 7.92041 14.1589V15.6089C7.92041 16.0692 7.63454 16.4813 7.20907 16.6345L3.61568 17.9281C2.6527 18.2748 2.00574 19.2075 2.00574 20.2491V21.3823C1.60405 21.1268 1.04931 20.6783 0.841894 20.0553C0.612688 19.3669 0.793501 18.9419 1.06729 18.2983C1.33104 17.6784 1.65925 16.9069 1.64198 15.6917C1.62367 14.4022 1.8935 13.8417 2.17922 13.2483C2.32865 12.9379 2.48321 12.6169 2.60092 12.1941C2.77345 11.5744 2.77935 11.0489 2.78512 10.5407C2.79124 9.99853 2.79701 9.48646 2.99068 8.8358C3.12579 8.38186 3.30435 8.07833 3.49341 7.75693C3.80001 7.23573 4.11707 6.6968 4.24921 5.56246C4.43014 4.00886 5.40814 2.99066 6.19674 2.41006C7.20941 1.66446 8.33421 1.33073 8.99974 1.33073C9.31641 1.33073 9.57494 1.39686 9.76834 1.52726C10.1115 1.75886 10.5552 1.75893 10.8985 1.52733C11.0919 1.39686 11.3505 1.33073 11.6671 1.33073C12.5906 1.33073 13.7404 1.87286 14.4701 2.4102C15.2587 2.9908 16.2367 4.009 16.4177 5.5626C16.5499 6.69693 16.8669 7.23586 17.1735 7.75706C17.3625 8.07846 17.5411 8.38193 17.6761 8.83593C17.8698 9.4866 17.8756 9.99866 17.8817 10.5408C17.8875 11.049 17.8934 11.5745 18.0659 12.1942C18.1836 12.6171 18.3381 12.9381 18.4876 13.2485C18.7733 13.8419 19.0431 14.4023 19.0249 15.6919C19.0076 16.907 19.3358 17.6786 19.5995 18.2985C19.8733 18.942 20.0542 19.3671 19.8249 20.0555Z" fill="white"/>
<path d="M11.8894 6.3334L13.556 2.36673L15.7782 1.2334H18.556L20.7782 1.80007L22.4449 2.9334L24.1116 4.6334L23.556 6.3334L21.3338 13.1334L19.6672 14.8334V16.5334L23.556 18.2334L24.6672 21.0667V22.2001V23.3334H23.556H18.556H13.556H11.056H10.2227V21.6334V18.8001L12.4449 17.6667L14.6672 17.1001L15.7782 15.4001L13.556 13.1334L12.4449 10.3001L11.3338 9.7334L11.8894 6.3334Z" fill="#009A34"/>
<path d="M25.1643 20.7243V22.9556C25.1643 23.1642 24.9937 23.3333 24.7831 23.3333C24.5726 23.3333 24.4019 23.1642 24.4019 22.9556V20.7243C24.4019 18.987 22.9831 17.5811 21.2296 17.5811C20.3999 17.5811 19.0979 16.1397 18.6667 15.4381C18.5571 15.26 18.7641 14.9961 18.9439 14.8875C19.1237 14.779 19.2083 14.867 19.3178 15.0452C19.6095 15.5197 20.6681 16.8257 21.2296 16.8257C23.4043 16.8255 25.1643 18.5693 25.1643 20.7243ZM19.6271 16.4607C19.6719 16.6646 20.0623 16.7812 19.8565 16.8257C18.3333 17.5811 16.197 17.3872 15.3845 16.8377C14.5803 17.6917 13.5177 17.5811 13.66 17.5811C11.9067 17.5811 10.4877 18.9869 10.4877 20.7243V22.9556C10.4877 23.1642 10.317 23.3333 10.1065 23.3333C9.89595 23.3333 9.72528 23.1642 9.72528 22.9556V20.7243C9.72528 18.5695 11.485 16.8257 13.6599 16.8257C14.5397 16.8257 15.2529 16.1233 15.2529 15.2513V15.1519C13.5889 14.3635 12.4209 12.7069 12.3498 10.7777C11.665 10.6145 11.1548 10.0072 11.1548 9.28467V7.32647C11.134 6.368 11.2776 3.9674 13.0441 2.2802C15.2253 0.196736 18.7234 0.329069 21.2955 1.556C21.5462 1.67567 21.5843 2.01127 21.3761 2.18507C22.6791 2.5 23.8027 3.29374 24.5247 4.42967C24.5619 4.48814 24.6301 4.58 24.6123 4.72647C24.6013 4.81767 24.5739 4.8948 24.5029 4.96614C24.0383 5.433 23.7825 6.05167 23.7825 6.7082V9.28474C23.7825 9.4934 23.6118 9.66247 23.4013 9.66247C23.1908 9.66247 23.0201 9.4934 23.0201 9.28474V6.7082C23.0201 5.951 23.2812 5.23227 23.7607 4.65494C23.0298 3.6192 21.8895 2.95307 20.5999 2.8162L19.9298 2.74514C19.538 2.70354 19.4612 2.16874 19.8253 2.02027L20.13 1.89594C16.1613 0.525002 11.9172 2.04827 11.9172 7.3224V9.28467C11.9172 9.5844 12.0914 9.84487 12.3461 9.97574V7.52694C12.3461 6.069 13.5431 4.88287 15.0145 4.88287H19.875C21.3464 4.88287 22.5435 6.06894 22.5435 7.5268V10.6196C22.5435 13.9046 19.3038 16.3998 16.0071 15.4381C15.9857 15.7077 15.918 15.9677 15.8077 16.2095C16.4489 16.6459 18.6667 16.6667 19.2159 16.2095C19.4216 16.1651 19.5822 16.2569 19.6271 16.4607ZM17.4448 14.8875C19.8359 14.8875 21.7811 12.9601 21.7811 10.5909V7.5268C21.7811 6.48554 20.926 5.63834 19.875 5.63834H15.0145C13.9635 5.63834 13.1085 6.48554 13.1085 7.52694V10.5909C13.1085 12.9601 15.0537 14.8875 17.4448 14.8875Z" fill="white"/>
<path d="M17.3333 32.6667C22.3039 32.6667 26.3333 28.6372 26.3333 23.6667C26.3333 18.6961 22.3039 14.6667 17.3333 14.6667C12.3628 14.6667 8.33334 18.6961 8.33334 23.6667C8.33334 28.6372 12.3628 32.6667 17.3333 32.6667Z" fill="#009A34"/>
<path d="M17.6667 17.3333V28" stroke="white" stroke-width="2" stroke-linecap="round"/>
<path d="M13 22.6667H22.3333" stroke="white" stroke-width="2" stroke-linecap="round"/>
</svg>
