<svg width="31" height="32" viewBox="0 0 31 32" fill="none" xmlns="http://www.w3.org/2000/svg">
<path d="M30.2005 17.3303H23.1903C23.2509 17.2337 23.3093 17.1354 23.363 17.034C24.2777 15.3112 24.0056 13.2677 22.836 11.8469L20.4361 7.61287C19.0925 5.1244 16.7824 4.8972 14.5483 4.6774C14.2279 4.64593 13.8967 4.61333 13.5709 4.57447C11.3115 4.3044 10.8707 4.06247 9.22993 3.1622C9.03613 3.05587 8.82613 2.94067 8.596 2.816C8.62887 2.59234 8.6118 2.36199 8.5432 2.13881C8.4222 1.74518 8.1562 1.42322 7.79647 1.23345L5.82 0.180226C5.4578 -0.0122405 5.0416 -0.0521404 4.64827 0.068173C4.2544 0.188553 3.9316 0.454579 3.7394 0.816866L0.699847 6.539C0.507321 6.90073 0.467414 7.31667 0.587608 7.7102C0.707861 8.104 0.973647 8.42693 1.336 8.6194L3.3118 9.67233C3.541 9.79413 3.7874 9.8518 4.0306 9.8518C4.5816 9.85173 5.11573 9.55527 5.3924 9.0356L5.42173 8.98033C6.0454 9.3672 6.41073 9.73293 6.74347 10.2735C7.72167 11.8604 8.67807 12.3226 9.60293 12.7695C9.9246 12.925 10.2284 13.0719 10.5455 13.2697L14.5599 15.7731C14.5896 15.7915 14.6197 15.8099 14.65 15.8281C14.7664 16.3641 14.9739 16.8719 15.2619 17.3302H8.9004C8.5624 17.3302 8.28847 17.6042 8.28847 17.9422V29.4047C8.28847 30.4682 9.15307 31.3333 10.2159 31.3333H28.8851C29.9479 31.3333 30.8125 30.4682 30.8125 29.4047V17.9423C30.8125 17.6043 30.5385 17.3303 30.2005 17.3303ZM22.2821 16.4601C22.1095 16.7853 21.8888 17.0768 21.6257 17.3303H16.8281C16.5033 17.0183 16.2439 16.6471 16.0629 16.2378C16.1122 16.2306 16.1615 16.2211 16.2109 16.2078C16.5841 16.1073 16.8849 15.8467 17.1047 15.4331C17.5174 14.6565 17.3518 13.3961 16.7802 12.3833C17.8431 11.3158 19.4907 11.0506 20.8519 11.7743C22.5356 12.6722 23.1772 14.7741 22.2821 16.4601ZM16.0224 11.4137L13.9971 9.31067C13.9913 9.30367 13.986 9.29693 13.9809 9.2906C14.0521 9.26307 14.1618 9.23047 14.3255 9.20293C15.9313 8.9344 16.3931 9.3862 17.1408 10.6332C16.7374 10.8341 16.3602 11.0955 16.0224 11.4137ZM4.31167 8.461C4.23147 8.61173 4.03647 8.67153 3.8866 8.59187L1.91083 7.539L1.91009 7.5386C1.81114 7.48607 1.7724 7.3996 1.75814 7.3528C1.74382 7.306 1.72767 7.2128 1.78048 7.11373L4.82053 1.39072C4.87307 1.29171 4.95927 1.25297 5.006 1.23871C5.0284 1.23191 5.06133 1.22463 5.10047 1.22463C5.14333 1.22463 5.19347 1.23332 5.24513 1.26074L7.22327 2.31487C7.3206 2.36622 7.35907 2.45189 7.37333 2.49834C7.38787 2.54547 7.40427 2.63934 7.35127 2.73893L4.31167 8.461ZM15.207 14.7343L11.1931 12.2312C10.8203 11.9986 10.4721 11.8303 10.1355 11.6676C9.2642 11.2465 8.576 10.914 7.78553 9.63167C7.2914 8.82887 6.71833 8.33353 5.9974 7.89673L8.09967 3.9392C8.2938 4.0446 8.47373 4.14333 8.64133 4.23527C10.3075 5.14947 10.931 5.4916 13.426 5.7898C13.7645 5.83013 14.1021 5.8634 14.4286 5.89553C16.607 6.10973 18.3278 6.279 19.3618 8.1992C19.3639 8.20307 19.366 8.20693 19.3682 8.2108L20.5775 10.3442C19.8355 10.1196 19.0627 10.0867 18.3252 10.2312C17.4325 8.71367 16.6067 7.58047 14.1233 7.99587C13.3789 8.12087 12.9173 8.41447 12.7514 8.86867C12.6505 9.14493 12.6248 9.5856 13.0754 10.1161C13.0837 10.1259 13.0922 10.1353 13.1011 10.1445L15.3233 12.452C16.028 13.1823 16.2514 14.4309 16.024 14.8587C15.9572 14.9844 15.9057 15.0225 15.8929 15.0259C15.8675 15.0327 15.7155 15.0507 15.207 14.7343ZM28.8851 30.1094H10.2159C9.828 30.1094 9.5124 29.7933 9.5124 29.4047V22.1813H12.8225C13.1605 22.1813 13.4345 21.9073 13.4345 21.5693C13.4345 21.2313 13.1605 20.9573 12.8225 20.9573H9.5124V18.5542H29.5885V20.9573H12.6113C12.2733 20.9573 11.9993 21.2313 11.9993 21.5693C11.9993 21.9073 12.2733 22.1813 12.6113 22.1813H29.5885V29.4047C29.5885 29.7933 29.273 30.1094 28.8851 30.1094Z" fill="white"/>
<path d="M25.3933 23.9723H13.7083C13.3703 23.9723 13.0963 24.2463 13.0963 24.5843V27.7051C13.0963 28.0431 13.3703 28.317 13.7083 28.317H25.3933C25.7313 28.317 26.0053 28.0431 26.0053 27.7051V24.5843C26.0053 24.2463 25.7313 23.9723 25.3933 23.9723ZM24.7813 27.0931H14.3203V25.1963H24.7813V27.0931Z" fill="white"/>
</svg>
