<svg width="30" height="30" viewBox="0 0 30 30" fill="none" xmlns="http://www.w3.org/2000/svg">
<path d="M15.0002 18.5742C14.5155 18.5742 14.1213 18.1799 14.1213 17.6953C14.1213 17.3413 14.3319 17.0234 14.6579 16.8853C15.0515 16.7186 15.5224 16.8608 15.9504 17.2754C16.2991 17.6131 16.8555 17.6044 17.1932 17.2558C17.531 16.9071 17.5222 16.3508 17.1736 16.013C16.7768 15.6286 16.3357 15.3569 15.8791 15.2036V14.1797C15.8791 13.6943 15.4856 13.3008 15.0002 13.3008C14.5148 13.3008 14.1213 13.6943 14.1213 14.1797V15.2092C14.0714 15.227 14.0217 15.2457 13.9724 15.2666C12.995 15.6806 12.3634 16.6339 12.3634 17.6953C12.3634 19.1492 13.5463 20.332 15.0002 20.332C15.4848 20.332 15.8791 20.7263 15.8791 21.2109C15.8791 21.5793 15.6467 21.9114 15.301 22.0373C14.8495 22.2016 14.324 21.9787 13.8592 21.4253C13.5471 21.0536 12.9927 21.0054 12.621 21.3175C12.2493 21.6297 12.201 22.1841 12.5132 22.5558C12.9884 23.1215 13.5414 23.5094 14.1213 23.7047V24.7266C14.1213 25.2119 14.5149 25.6055 15.0002 25.6055C15.4857 25.6055 15.8792 25.2119 15.8792 24.7266V23.6969C15.887 23.6941 15.8949 23.6917 15.9027 23.6889C16.9399 23.3111 17.6369 22.3153 17.6369 21.2109C17.6369 19.7571 16.4541 18.5742 15.0002 18.5742Z" fill="white"/>
<path d="M23.1398 13.1988C22.0951 11.9136 20.901 10.8898 19.5901 10.1535C19.8049 9.8995 19.9743 9.60164 20.0836 9.26971C20.5129 7.96257 19.8859 6.40981 18.2855 5.90396L20.529 1.99195C20.8121 1.49824 20.5578 0.869414 20.012 0.710742C18.3899 0.239121 16.7036 0 15 0C13.2964 0 11.6101 0.239121 9.988 0.710742C9.44157 0.869593 9.18828 1.49883 9.471 1.99195L11.7145 5.90402C10.1204 6.40729 9.4855 7.95771 9.91657 9.27043C10.0256 9.6015 10.1949 9.89914 10.4103 10.1532C9.09928 10.8895 7.905 11.9135 6.86027 13.1988C4.77193 15.7679 3.57422 19.0086 3.57422 22.0899C3.57422 28.4819 8.67464 30 15 30C21.3299 30 26.4258 28.4793 26.4258 22.0899C26.4258 19.0086 25.2281 15.7679 23.1398 13.1988ZM11.572 2.12215C12.6934 1.8801 13.8421 1.75781 15 1.75781C16.1579 1.75781 17.3066 1.8801 18.428 2.12215L16.4924 5.49726C15.5011 5.35886 14.4992 5.35893 13.5076 5.49732L11.572 2.12215ZM12.1462 7.61107C13.6589 7.11492 15.2414 7.02088 16.7799 7.32843C16.7816 7.32879 16.7835 7.32914 16.7854 7.3295C17.1439 7.40143 17.5001 7.49507 17.8525 7.61071C18.3131 7.7625 18.5649 8.26071 18.4139 8.7205C18.3041 9.0535 18.0144 9.28286 17.6735 9.32C16.7972 9.04557 15.9034 8.90629 15 8.90629C14.0985 8.90629 13.2064 9.045 12.3318 9.31829C11.9856 9.28264 11.6952 9.05171 11.5864 8.72136C11.4351 8.26071 11.6869 7.76243 12.1462 7.61107ZM15 28.2539C8.13307 28.2539 5.33203 26.4598 5.33203 22.0899C5.33203 19.4448 6.41326 16.5356 8.22421 14.3076C10.1341 11.958 12.5404 10.6641 15 10.6641C17.7074 10.6641 20.0754 12.2157 21.7758 14.3076C23.5867 16.5356 24.668 19.4448 24.668 22.0899C24.668 26.4598 21.8669 28.2539 15 28.2539Z" fill="white"/>
</svg>
