<svg width="75" height="63" viewBox="0 0 75 63" fill="none" xmlns="http://www.w3.org/2000/svg">
<g clip-path="url(#clip0)">
<path d="M45.0198 3H2.70721C1.99052 3.00087 1.30343 3.28512 0.796647 3.7904C0.289868 4.29568 0.00477716 4.98074 0.00390625 5.69531V60.3047C0.00477716 61.0193 0.289868 61.7043 0.796647 62.2096C1.30343 62.7149 1.99052 62.9991 2.70721 63H45.0198C45.7365 62.9991 46.4236 62.7149 46.9303 62.2096C47.4371 61.7043 47.7222 61.0193 47.7231 60.3047V5.69531C47.7222 4.98074 47.4371 4.29568 46.9303 3.7904C46.4236 3.28512 45.7365 3.00087 45.0198 3V3ZM46.0776 60.3047C46.0772 60.5843 45.9656 60.8523 45.7673 61.0501C45.569 61.2478 45.3002 61.359 45.0198 61.3594H2.70721C2.42674 61.3591 2.15782 61.2479 1.9595 61.0502C1.76117 60.8525 1.64964 60.5843 1.64939 60.3047V5.69531C1.64964 5.41567 1.76117 5.14755 1.9595 4.94981C2.15782 4.75207 2.42674 4.64087 2.70721 4.64062H45.0198C45.3002 4.641 45.569 4.75224 45.7673 4.94995C45.9656 5.14766 46.0772 5.41571 46.0776 5.69531V60.3047Z" fill="#009A34"/>
<path d="M42.1987 7.6875H5.52782C5.30966 7.68762 5.10046 7.77409 4.94619 7.9279C4.79192 8.08171 4.7052 8.29029 4.70508 8.50781V52.8009C4.7052 53.0185 4.79192 53.227 4.94619 53.3809C5.10046 53.5347 5.30966 53.6211 5.52782 53.6213H42.1987C42.4169 53.6213 42.6262 53.5348 42.7805 53.381C42.9348 53.2271 43.0215 53.0185 43.0215 52.8009V8.50781C43.0215 8.29025 42.9348 8.0816 42.7805 7.92776C42.6262 7.77393 42.4169 7.6875 42.1987 7.6875ZM41.376 51.9806H6.35057V9.32813H41.376V51.9806Z" fill="#009A34"/>
<path d="M11.1357 14.3793C10.7156 14.3793 10.375 14.7189 10.375 15.1378C10.375 15.557 10.7156 15.8963 11.1357 15.8963H26.3505C26.7706 15.8963 27.1113 15.557 27.1113 15.1378C27.1113 14.7189 26.7706 14.3793 26.3505 14.3793H11.1357Z" fill="#009A34"/>
<path d="M27.872 19.6889H11.1357C10.7156 19.6889 10.375 20.0285 10.375 20.4474C10.375 20.8666 10.7156 21.2058 11.1357 21.2058H27.872C28.2921 21.2058 28.6328 20.8666 28.6328 20.4474C28.6328 20.0285 28.2921 19.6889 27.872 19.6889Z" fill="#009A34"/>
<path d="M27.1113 24.9982C27.1113 24.5794 26.7707 24.2397 26.3505 24.2397H11.1357C10.7156 24.2397 10.375 24.5794 10.375 24.9982C10.375 25.4175 10.7156 25.7567 11.1357 25.7567H26.3505C26.7707 25.7567 27.1113 25.4175 27.1113 24.9982Z" fill="#009A34"/>
<path d="M34.7187 24.2397H29.3936C28.9734 24.2397 28.6328 24.5794 28.6328 24.9982C28.6328 25.4175 28.9734 25.7567 29.3936 25.7567H34.7187C35.1389 25.7567 35.4795 25.4175 35.4795 24.9982C35.4795 24.5794 35.1389 24.2397 34.7187 24.2397Z" fill="#009A34"/>
<path d="M18.7431 29.5492C19.1633 29.5492 19.5039 29.2099 19.5039 28.7907C19.5039 28.3718 19.1633 28.0322 18.7431 28.0322H11.1357C10.7156 28.0322 10.375 28.3718 10.375 28.7907C10.375 29.2099 10.7156 29.5492 11.1357 29.5492H18.7431Z" fill="#009A34"/>
<path d="M21.7861 29.5492H27.1113C27.5314 29.5492 27.872 29.2099 27.872 28.7907C27.872 28.3718 27.5314 28.0322 27.1113 28.0322H21.7861C21.366 28.0322 21.0254 28.3718 21.0254 28.7907C21.0254 29.2099 21.366 29.5492 21.7861 29.5492Z" fill="#009A34"/>
<path d="M26.7729 57.5454C26.7729 58.7755 25.7757 59.7727 24.5456 59.7727C23.3155 59.7727 22.3184 58.7755 22.3184 57.5454C22.3184 56.3154 23.3155 55.3182 24.5456 55.3182C25.7757 55.3182 26.7729 56.3154 26.7729 57.5454Z" fill="white" stroke="#009A34"/>
<path d="M37.0332 44.2696C36.9583 43.6886 36.6879 43.4352 36.4191 42.9699C36.1503 42.5046 35.5877 41.8989 34.92 41.8456C34.252 41.7919 33.6119 42.1294 33.2675 42.7169L32.9499 43.2674L32.6499 39.657C32.5809 38.8029 31.934 38.1162 31.1021 38.0131C30.2698 37.9104 29.4819 38.4203 29.216 39.233L27.0445 45.8941C26.8928 46.3652 27.1411 46.8729 27.6006 47.0316C27.6868 47.0726 27.7794 47.0973 27.8742 47.1034C28.2535 47.1048 28.5915 46.8575 28.713 46.49L30.8754 39.8289L31.1844 43.493C31.2482 44.2749 31.7978 44.925 32.5451 45.1021C33.2925 45.2793 34.0658 44.9426 34.4593 44.2696L34.786 43.7187L35.3334 45.1361C35.5657 45.7332 36.0911 46.1594 36.7131 46.2542C37.335 46.3489 37.9591 46.098 38.3522 45.5962C38.7453 45.0943 37.108 44.8506 37.0332 44.2696Z" fill="#009A34"/>
<g clip-path="url(#clip1)">
<rect x="30.6543" y="9.72879" width="30.4686" height="24.5128" transform="rotate(-15.8309 30.6543 9.72879)" fill="white"/>
<rect width="31.4536" height="15.2649" transform="matrix(-0.861367 0.507984 0.507984 0.861367 65.7812 10.3242)" fill="white"/>
<path d="M48.3005 39.7106C48.5701 39.6351 48.8367 39.524 49.0893 39.3753L72.0424 25.7752C73.6122 24.8298 74.1327 22.7835 73.2098 21.2074L66.8081 10.4145C66.5725 10.0184 66.0631 9.89284 65.6668 10.1216C65.2702 10.3556 65.1403 10.868 65.3739 11.263L71.773 22.0531C72.2345 22.8412 71.9724 23.8701 71.1863 24.3448L48.2419 37.939C47.4527 38.4025 46.4311 38.1419 45.9722 37.3566L43.4172 33.0634C43.1816 32.6673 42.6704 32.5354 42.2747 32.7726C41.8786 33.0083 41.7503 33.5202 41.9839 33.9152L44.5355 38.2023C45.3129 39.5249 46.8786 40.1091 48.3005 39.7106Z" fill="#009A34"/>
<path d="M39.3041 34.1266L64.9815 26.9306C66.7516 26.4345 67.7877 24.5915 67.2917 22.8214L61.8946 3.56337C61.3985 1.79324 59.5556 0.757127 57.7854 1.2532L32.1081 8.44925C30.3379 8.94533 29.3018 10.7883 29.7979 12.5584L35.1949 31.8165C35.691 33.5866 37.534 34.6227 39.3041 34.1266ZM58.2352 2.85804C59.1195 2.61023 60.042 3.12886 60.2898 4.01312L65.6868 23.2712C65.9346 24.1554 65.416 25.0779 64.5317 25.3258L38.8544 32.5218C37.9701 32.7696 37.0476 32.251 36.7998 31.3667L31.4027 12.1087C31.1549 11.2244 31.6735 10.3019 32.5578 10.0541L58.2352 2.85804Z" fill="#009A34"/>
<path d="M56.1196 13.8363C57.8897 13.3403 58.9259 11.4973 58.4298 9.72716C57.9337 7.95702 56.0907 6.92091 54.3206 7.41699C52.5505 7.91307 51.5144 9.75603 52.0104 11.5262C52.5065 13.2963 54.3495 14.3324 56.1196 13.8363ZM54.7704 9.02183C55.6546 8.77401 56.5771 9.29265 56.8249 10.1769C57.0728 11.0612 56.5541 11.9837 55.6699 12.2315C54.7856 12.4793 53.8631 11.9607 53.6153 11.0764C53.3675 10.1922 53.8861 9.26964 54.7704 9.02183Z" fill="#009A34"/>
<path d="M66.7957 24.5702C67.0012 24.5126 67.1845 24.3764 67.2982 24.1767C67.5234 23.776 67.3809 23.2673 66.9802 23.042L57.2764 17.5866C56.1135 16.9328 54.5263 17.3776 53.8725 18.5405L52.2485 21.4293L43.9021 15.6851C43.2955 15.2684 42.5393 15.1393 41.8265 15.3321L41.8089 15.3371C41.106 15.5341 40.5254 16.0256 40.2162 16.6887L34.5673 28.8336C34.3724 29.25 34.5531 29.7463 34.971 29.9407C35.3874 30.1356 35.8826 29.957 36.0782 29.537L41.7271 17.3921C41.8324 17.1687 42.0195 17.0089 42.2586 16.9419C42.4215 16.8807 42.7476 16.9139 42.9559 17.0581L52.0549 23.32C52.2479 23.4528 52.4873 23.4982 52.7163 23.4444C52.9487 23.3966 53.1402 23.246 53.2541 23.041L55.3251 19.3572C55.5439 18.9704 56.0719 18.8225 56.4598 19.0392L66.1636 24.4946C66.3629 24.6067 66.5903 24.6278 66.7957 24.5702Z" fill="#009A34"/>
</g>
</g>
<defs>
<clipPath id="clip0">
<rect width="75" height="63" fill="white"/>
</clipPath>
<clipPath id="clip1">
<rect width="40" height="40" fill="white" transform="matrix(-0.962902 0.269852 0.269852 0.962902 66.5156 -4.65506)"/>
</clipPath>
</defs>
</svg>
