<svg width="60" height="60" viewBox="0 0 60 60" fill="none" xmlns="http://www.w3.org/2000/svg">
<path d="M31.703 1.1743C30.6777 0.467323 29.3223 0.467327 28.297 1.17431L15.5556 9.96016V9.87915C15.5556 8.2223 14.2124 6.87915 12.5556 6.87915H9.66667C8.00981 6.87915 6.66667 8.2223 6.66667 9.87915V16.089L1.29693 19.7918C0.484889 20.3518 0 21.2751 0 22.2615V28.1145C0 28.9204 0.904302 29.3952 1.56769 28.9378L3.33333 27.7202V57C3.33333 58.6569 4.67648 60 6.33333 60H10H50H53.6667C55.3235 60 56.6667 58.6569 56.6667 57V27.7191L58.4323 28.9367C59.0957 29.3941 60 28.9192 60 28.1134V22.2616C60 21.2752 59.5151 20.3518 58.703 19.7918L31.703 1.1743ZM8.88889 11.3147C8.88889 10.0874 9.88381 9.09252 11.1111 9.09252C12.3384 9.09252 13.3333 10.0874 13.3333 11.3147V11.4918L8.88889 14.5562V11.3147ZM30 57.7866H43.3333H16.6667H30ZM54.4444 56.7866C54.4444 57.3389 53.9967 57.7866 53.4444 57.7866H50H10H6.55556C6.00327 57.7866 5.55556 57.3389 5.55556 56.7866V26.1875L28.297 10.5059C29.3223 9.79891 30.6777 9.79891 31.703 10.5059L54.4444 26.1875V56.7866ZM57.7778 25.7946L31.703 7.81446C30.6777 7.10745 29.3223 7.10745 28.297 7.81446L2.22222 25.7946V23.4224C2.22222 22.436 2.70709 21.5127 3.51911 20.9527L28.2969 3.86592C29.3222 3.15886 30.6778 3.15886 31.7031 3.86592L56.4809 20.9527C57.2929 21.5127 57.7778 22.436 57.7778 23.4224V25.7946Z" fill="#009A34"/>
<path fill-rule="evenodd" clip-rule="evenodd" d="M45.0456 25.7518C45.0043 25.7427 44.9631 25.7336 44.9218 25.7247C43.4517 25.407 41.9521 25.2445 40.4478 25.2401C40.4465 25.2401 40.4452 25.2401 40.4439 25.2401C40.4426 25.2401 40.4413 25.2401 40.44 25.2401C37.6651 25.2413 33.8852 25.882 31.1346 28.654C31.0432 28.746 30.953 28.8404 30.8641 28.9372C30.8336 28.9703 30.8033 29.0037 30.7732 29.0374C30.7726 29.038 30.772 29.0386 30.7715 29.0393V48.3453C30.8093 48.321 30.8479 48.2964 30.8874 48.2717C31.308 48.0078 31.8219 47.7243 32.4381 47.4479C32.8199 47.2767 33.241 47.1081 33.7036 46.9487C33.707 46.9475 33.7105 46.9463 33.7139 46.9451C33.8097 46.9121 33.9073 46.8796 34.0067 46.8475C34.1406 46.8042 34.2779 46.7617 34.4184 46.7201C36.0762 46.2301 38.1945 45.872 40.8509 45.872C40.8538 45.872 40.8567 45.872 40.8596 45.872C40.8662 45.8721 40.8729 45.8721 40.8795 45.8721C41.7138 45.8768 42.5475 45.9121 43.3789 45.9779C43.9046 46.0195 44.4294 46.0733 44.9528 46.1393C44.9837 46.1432 45.0147 46.1471 45.0456 46.1511V25.7518ZM46.5885 26.0387H49.2247C49.6529 26.0387 50 26.3859 50 26.814V51.5785C49.9984 51.8539 49.8507 52.1077 49.6123 52.2453C49.3725 52.3838 49.0769 52.3838 48.837 52.2453C48.8273 52.2309 48.4872 52.0379 47.8574 51.7653C45.9379 50.9346 41.3275 49.3648 35.1847 49.8603C35.0191 49.8736 34.8523 49.8885 34.6844 49.9049C34.5842 49.9147 34.4837 49.9251 34.3827 49.936C34.3781 49.9365 34.3734 49.937 34.3688 49.9375C33.2538 50.0587 32.0921 50.2489 30.8901 50.5239C30.6669 50.575 30.4423 50.629 30.2164 50.686C30.205 50.6889 30.1936 50.6917 30.1822 50.6946C30.1204 50.7021 30.058 50.7021 29.9961 50.6946H29.81C29.781 50.6873 29.7521 50.6801 29.7231 50.6728C29.5159 50.6212 29.3097 50.5722 29.1048 50.5256C27.891 50.2496 26.7181 50.0604 25.5929 49.9416C25.5883 49.9411 25.5838 49.9406 25.5793 49.9401C25.4773 49.9294 25.3758 49.9193 25.2747 49.9097C25.1177 49.8949 24.9618 49.8814 24.8068 49.8692C18.6751 49.3875 14.0666 50.9642 12.1418 51.7833C11.5626 52.0298 11.2264 52.2077 11.1649 52.2402C11.1597 52.243 11.1565 52.2447 11.1553 52.2453C11.0393 52.311 10.9085 52.3457 10.7753 52.3461C10.3472 52.3461 10 51.999 10 51.5708V26.8063C10 26.3781 10.3472 26.0309 10.7753 26.0309H13.3883V25.1393C13.3874 25.1185 13.3874 25.0978 13.3883 25.0772C13.4014 24.7466 13.6244 24.4576 13.9465 24.364C14.1568 24.3088 14.3678 24.2569 14.5795 24.2081C16.1982 23.8352 17.8549 23.648 19.5173 23.6506C19.5186 23.6506 19.5199 23.6506 19.5212 23.6506C19.5264 23.6506 19.5316 23.6506 19.5367 23.6506C22.4922 23.6506 26.5092 24.2592 29.5662 27.1124C29.6948 27.2325 29.8218 27.3565 29.9468 27.4846C29.9607 27.4988 29.9746 27.5131 29.9884 27.5274C30.0016 27.5139 30.0149 27.5005 30.0282 27.4871C30.1587 27.3555 30.2912 27.2283 30.4253 27.1052C33.4985 24.2859 37.481 23.6506 40.44 23.6506C40.4426 23.6506 40.4452 23.6506 40.4478 23.6506C40.4493 23.6506 40.4509 23.6506 40.4524 23.6506C42.1145 23.6475 43.7708 23.8341 45.3892 24.2063C45.6035 24.2556 45.8173 24.3081 46.0302 24.364C46.3523 24.4576 46.5753 24.7466 46.5885 25.0772C46.5893 25.0978 46.5893 25.1185 46.5885 25.1393V26.0387ZM14.9234 46.1511C14.9724 46.1449 15.0214 46.1388 15.0704 46.1328C15.5759 46.0709 16.0826 46.0203 16.5901 45.9811C17.4299 45.9162 18.2719 45.8824 19.1146 45.8798C19.1193 45.8798 19.124 45.8798 19.1288 45.8798C19.1329 45.8798 19.1371 45.8798 19.1413 45.8798C21.8078 45.8798 23.9287 46.2364 25.584 46.7249C25.7101 46.7621 25.8336 46.8001 25.9543 46.8387C26.0549 46.8709 26.1537 46.9036 26.2506 46.9367C26.2538 46.9378 26.257 46.9389 26.2602 46.94C26.7342 47.102 27.1644 47.2738 27.553 47.4484C28.1724 47.7268 28.6864 48.0125 29.1048 48.2783C29.1402 48.3008 29.1749 48.3232 29.2089 48.3453C29.2129 48.3479 29.2168 48.3505 29.2208 48.3531L29.1975 29.0393C29.0774 28.9037 28.9549 28.7727 28.8304 28.6462C26.0826 25.8556 22.3096 25.2424 19.5367 25.2401C19.5354 25.2401 19.5341 25.2401 19.5328 25.2401C19.5289 25.2401 19.5251 25.2401 19.5212 25.2401C18.0195 25.2438 16.5225 25.4057 15.0549 25.723C15.0111 25.7324 14.9672 25.7421 14.9234 25.7518V46.1511ZM25.1141 48.222C23.1769 47.6578 21.1647 47.388 19.1448 47.4226C19.1436 47.4226 19.1425 47.4227 19.1413 47.4227C17.7962 47.4336 16.4532 47.5245 15.1194 47.6949C14.8443 47.73 14.5696 47.7685 14.2954 47.8104C14.254 47.8167 14.2122 47.8196 14.1703 47.8191C14.0681 47.8179 13.9708 47.7971 13.8819 47.7601C13.5982 47.6423 13.4001 47.361 13.4038 47.035V27.5894H11.5507V50.338C11.5893 50.3222 11.628 50.3065 11.6667 50.2908C12.1787 50.084 12.6959 49.8925 13.2174 49.7163C13.4644 49.6328 13.7125 49.5528 13.9615 49.4762C14.0248 49.4567 14.0883 49.4374 14.1518 49.4184C14.1519 49.4184 14.1516 49.4184 14.1518 49.4184C14.2754 49.3813 14.3996 49.345 14.5236 49.3096C14.5239 49.3095 14.5234 49.3097 14.5236 49.3096C16.0393 48.8774 17.587 48.572 19.1492 48.396C19.1522 48.3956 19.1552 48.3953 19.1582 48.395C21.1764 48.1682 23.2199 48.157 25.2542 48.366C25.4238 48.3834 25.5933 48.4024 25.7627 48.4229C25.5475 48.3522 25.3313 48.2853 25.1141 48.222ZM34.8774 48.2134C36.8141 47.6531 38.8252 47.3861 40.8435 47.4226C40.846 47.4226 40.8485 47.4226 40.8509 47.4227C42.1876 47.4301 43.5225 47.5166 44.8484 47.6815C45.142 47.718 45.4352 47.7584 45.7279 47.8026C45.8641 47.8233 45.9975 47.8071 46.1178 47.7616C46.3714 47.6657 46.5672 47.4395 46.6108 47.1524C46.6171 47.111 46.62 47.0691 46.6195 47.0273V27.5894H48.4726L48.4416 50.338C48.4055 50.3232 48.3694 50.3085 48.3333 50.2939C47.819 50.0859 47.2996 49.8933 46.7757 49.7162C46.5248 49.6313 46.2728 49.55 46.0199 49.4723C45.8467 49.419 45.6731 49.3675 45.499 49.3176C45.4994 49.3177 45.4987 49.3175 45.499 49.3176C43.9746 48.8807 42.4173 48.572 40.8455 48.3943C40.8414 48.3939 40.8372 48.3934 40.8331 48.3929C38.8185 48.1661 36.7787 48.1541 34.7481 48.3614C34.5648 48.3801 34.3816 48.4006 34.1985 48.4229C34.4237 48.349 34.65 48.2792 34.8774 48.2134Z" fill="#009A34"/>
<path fill-rule="evenodd" clip-rule="evenodd" d="M18.7254 30.6184C18.5921 30.1779 18.8412 29.7128 19.2817 29.5795L19.523 30.3772C19.2817 29.5795 19.282 29.5795 19.2823 29.5794L19.2829 29.5792L19.2842 29.5788L19.2874 29.5778L19.2955 29.5755L19.3194 29.5687C19.3385 29.5634 19.3642 29.5565 19.3961 29.5484C19.4599 29.5323 19.5486 29.5116 19.6599 29.4897C19.882 29.446 20.1953 29.3973 20.5789 29.3717C21.3448 29.3207 22.403 29.3612 23.5782 29.7275C24.6658 30.0664 25.4202 30.372 25.9123 30.5994C26.1584 30.713 26.3391 30.8072 26.4631 30.8762C26.5251 30.9107 26.5729 30.9389 26.6077 30.9601C26.6251 30.9707 26.6393 30.9796 26.6503 30.9866L26.6645 30.9958L26.6698 30.9993L26.6721 31.0008L26.6731 31.0015L26.6736 31.0018C26.6739 31.002 26.6741 31.0021 26.214 31.6903L26.6741 31.0021C27.0567 31.2579 27.1595 31.7755 26.9037 32.1581C26.6491 32.5389 26.1352 32.6425 25.7531 32.3912L25.7399 32.383C25.7244 32.3736 25.6958 32.3565 25.6528 32.3326C25.5668 32.2848 25.4234 32.2094 25.2134 32.1124C24.7934 31.9184 24.1074 31.6381 23.0823 31.3186C22.1448 31.0265 21.2993 30.9941 20.6898 31.0347C20.3857 31.055 20.1433 31.0932 19.9817 31.125C19.901 31.1409 19.8409 31.1551 19.8038 31.1645C19.7852 31.1691 19.7724 31.1726 19.7657 31.1745L19.7637 31.175L19.7606 31.1759C19.3211 31.3067 18.8582 31.0577 18.7254 30.6184Z" fill="#009A34"/>
<path fill-rule="evenodd" clip-rule="evenodd" d="M18.7254 36.3327C18.5922 35.8922 18.8412 35.4271 19.2818 35.2938L19.523 36.0915C19.2818 35.2938 19.2815 35.2939 19.2818 35.2938L19.2843 35.2931L19.2874 35.2921L19.2956 35.2897L19.3194 35.283C19.3386 35.2776 19.3643 35.2707 19.3962 35.2627C19.4599 35.2466 19.5487 35.2259 19.6599 35.204C19.8821 35.1603 20.1953 35.1116 20.579 35.086C21.3449 35.0349 22.403 35.0755 23.5782 35.4417C24.6658 35.7807 25.4202 36.0863 25.9123 36.3136C26.1584 36.4273 26.3391 36.5215 26.4631 36.5905C26.5251 36.625 26.573 36.6532 26.6078 36.6744C26.6252 36.685 26.6393 36.6939 26.6503 36.7009L26.6645 36.7101L26.6699 36.7136L26.6722 36.7151L26.6737 36.7161C26.6739 36.7163 26.6741 36.7164 26.211 37.4092L26.6737 36.7161C27.0563 36.9719 27.1595 37.4897 26.9037 37.8723C26.6491 38.2532 26.1352 38.3568 25.7531 38.1055L25.7399 38.0973C25.7244 38.0878 25.6958 38.0708 25.6528 38.0469C25.5668 37.999 25.4234 37.9237 25.2135 37.8267C24.7934 37.6327 24.1075 37.3524 23.0823 37.0329C22.1448 36.7407 21.2993 36.7083 20.6898 36.749C20.3857 36.7692 20.1433 36.8075 19.9817 36.8393C19.9011 36.8552 19.841 36.8694 19.8038 36.8787C19.7852 36.8834 19.7725 36.8869 19.7658 36.8888L19.7638 36.8893L19.7606 36.8902C19.3212 37.0209 18.8583 36.772 18.7254 36.3327Z" fill="#009A34"/>
<path fill-rule="evenodd" clip-rule="evenodd" d="M18.7254 42.047C18.5922 41.6065 18.8413 41.1413 19.2818 41.0081L19.523 41.8057C19.2818 41.0081 19.2815 41.0082 19.2818 41.0081L19.2843 41.0073L19.2874 41.0064L19.2956 41.004L19.3194 40.9972C19.3386 40.9919 19.3643 40.985 19.3962 40.977C19.4599 40.9609 19.5487 40.9402 19.6599 40.9183C19.8821 40.8745 20.1953 40.8258 20.579 40.8003C21.3449 40.7492 22.403 40.7897 23.5782 41.156C24.6658 41.4949 25.4202 41.8006 25.9123 42.0279C26.1584 42.1416 26.3391 42.2357 26.4631 42.3047C26.5251 42.3392 26.573 42.3674 26.6078 42.3887C26.6252 42.3993 26.6393 42.4081 26.6503 42.4152L26.6645 42.4243L26.6699 42.4279L26.6722 42.4294L26.6737 42.4304C26.6739 42.4305 26.6741 42.4307 26.211 43.1234L26.6737 42.4304C27.0563 42.6862 27.1595 43.204 26.9037 43.5866C26.6491 43.9674 26.1352 44.071 25.7531 43.8198L25.7399 43.8115C25.7244 43.8021 25.6958 43.7851 25.6528 43.7611C25.5668 43.7133 25.4234 43.6379 25.2135 43.5409C24.7934 43.3469 24.1075 43.0667 23.0823 42.7472C22.1448 42.455 21.2993 42.4226 20.6898 42.4632C20.3857 42.4835 20.1433 42.5218 19.9818 42.5536C19.9011 42.5694 19.841 42.5836 19.8038 42.593C19.7853 42.5977 19.7725 42.6012 19.7658 42.603L19.7638 42.6035L19.7606 42.6045C19.3212 42.7352 18.8583 42.4863 18.7254 42.047Z" fill="#009A34"/>
<path fill-rule="evenodd" clip-rule="evenodd" d="M42.3254 30.6184C42.4587 30.1779 42.2096 29.7128 41.769 29.5795L41.5278 30.3772C41.769 29.5795 41.7688 29.5795 41.7685 29.5794L41.7679 29.5792L41.7665 29.5788L41.7634 29.5778L41.7552 29.5755L41.7314 29.5687C41.7123 29.5634 41.6866 29.5565 41.6547 29.5484C41.5909 29.5323 41.5021 29.5116 41.3909 29.4897C41.1688 29.446 40.8555 29.3973 40.4718 29.3717C39.7059 29.3207 38.6478 29.3612 37.4726 29.7275C36.385 30.0664 35.6306 30.372 35.1385 30.5994C34.8924 30.713 34.7117 30.8072 34.5877 30.8762C34.5257 30.9107 34.4778 30.9389 34.443 30.9601C34.4256 30.9707 34.4115 30.9796 34.4005 30.9866L34.3863 30.9958L34.3809 30.9993L34.3787 31.0008L34.3776 31.0015L34.3772 31.0018C34.3769 31.002 34.3767 31.0021 34.8368 31.6903L34.3767 31.0021C33.9941 31.2579 33.8913 31.7755 34.1471 32.1581C34.4017 32.5389 34.9156 32.6425 35.2977 32.3912L35.3109 32.383C35.3264 32.3736 35.355 32.3565 35.398 32.3326C35.484 32.2848 35.6274 32.2094 35.8374 32.1124C36.2574 31.9184 36.9433 31.6381 37.9685 31.3186C38.906 31.0265 39.7515 30.9941 40.361 31.0347C40.6651 31.055 40.9075 31.0932 41.0691 31.125C41.1497 31.1409 41.2099 31.1551 41.247 31.1645C41.2656 31.1691 41.2784 31.1726 41.2851 31.1745L41.287 31.175L41.2902 31.1759C41.7296 31.3067 42.1925 31.0577 42.3254 30.6184Z" fill="#009A34"/>
<path fill-rule="evenodd" clip-rule="evenodd" d="M42.3254 36.3327C42.4586 35.8922 42.2095 35.4271 41.769 35.2938L41.5277 36.0915C41.769 35.2938 41.7693 35.2939 41.769 35.2938L41.7665 35.2931L41.7634 35.2921L41.7552 35.2897L41.7314 35.283C41.7122 35.2776 41.6865 35.2707 41.6546 35.2627C41.5909 35.2466 41.5021 35.2259 41.3909 35.204C41.1687 35.1603 40.8554 35.1116 40.4718 35.086C39.7059 35.0349 38.6478 35.0755 37.4726 35.4417C36.385 35.7807 35.6306 36.0863 35.1384 36.3136C34.8923 36.4273 34.7117 36.5215 34.5877 36.5905C34.5257 36.625 34.4778 36.6532 34.443 36.6744C34.4256 36.685 34.4115 36.6939 34.4004 36.7009L34.3863 36.7101L34.3809 36.7136L34.3786 36.7151L34.3771 36.7161C34.3769 36.7163 34.3767 36.7164 34.8398 37.4092L34.3771 36.7161C33.9945 36.9719 33.8913 37.4897 34.1471 37.8723C34.4017 38.2532 34.9156 38.3568 35.2976 38.1055L35.3109 38.0973C35.3263 38.0878 35.355 38.0708 35.398 38.0469C35.484 37.999 35.6274 37.9237 35.8373 37.8267C36.2574 37.6327 36.9433 37.3524 37.9684 37.0329C38.9059 36.7407 39.7514 36.7083 40.361 36.749C40.665 36.7692 40.9074 36.8075 41.069 36.8393C41.1497 36.8552 41.2098 36.8694 41.247 36.8787C41.2655 36.8834 41.2783 36.8869 41.285 36.8888L41.287 36.8893L41.2902 36.8902C41.7296 37.0209 42.1925 36.772 42.3254 36.3327Z" fill="#009A34"/>
<path fill-rule="evenodd" clip-rule="evenodd" d="M42.3254 42.047C42.4586 41.6065 42.2095 41.1413 41.769 41.0081L41.5277 41.8057C41.769 41.0081 41.7693 41.0082 41.769 41.0081L41.7665 41.0073L41.7634 41.0064L41.7552 41.004L41.7314 40.9972C41.7122 40.9919 41.6865 40.985 41.6546 40.977C41.5909 40.9609 41.5021 40.9402 41.3909 40.9183C41.1687 40.8745 40.8554 40.8258 40.4718 40.8003C39.7059 40.7492 38.6478 40.7897 37.4726 41.156C36.385 41.4949 35.6306 41.8006 35.1384 42.0279C34.8923 42.1416 34.7117 42.2357 34.5877 42.3047C34.5257 42.3392 34.4778 42.3674 34.443 42.3887C34.4256 42.3993 34.4115 42.4081 34.4004 42.4152L34.3863 42.4243L34.3809 42.4279L34.3786 42.4294L34.3771 42.4304C34.3769 42.4305 34.3767 42.4307 34.8398 43.1234L34.3771 42.4304C33.9945 42.6862 33.8913 43.204 34.1471 43.5866C34.4017 43.9674 34.9156 44.071 35.2976 43.8198L35.3109 43.8115C35.3263 43.8021 35.355 43.7851 35.398 43.7611C35.484 43.7133 35.6274 43.6379 35.8373 43.5409C36.2574 43.3469 36.9433 43.0667 37.9684 42.7472C38.9059 42.455 39.7514 42.4226 40.361 42.4632C40.6651 42.4835 40.9074 42.5218 41.069 42.5536C41.1497 42.5694 41.2098 42.5836 41.247 42.593C41.2655 42.5977 41.2783 42.6012 41.285 42.603L41.287 42.6035L41.2902 42.6045C41.7296 42.7352 42.1925 42.4863 42.3254 42.047Z" fill="#009A34"/>
</svg>
